M48
;Layer_Color=9474304
;FILE_FORMAT=2:5
INCH,LZ
;TYPE=PLATED
T1F00S00C0.01500
T2F00S00C0.04000
%
T01
X00225Y004
X0037185Y00265
Y00565
X00225Y007
X00675
X0084756Y0069567
X009263Y0094764
X0092925Y0103425
X0077079Y0109134
X0077079Y0116614
X0057197Y0128622
X0049323Y0140433
X0029638Y0140504
Y0128622
X0065071Y0089252
X0100504Y0098307
X0104441Y010185
X0099717Y0112874
X011389Y0116811
X0112315Y0132559
X0120189
X012885
X0135937
X0135937Y0127047
X0147748Y0132559
X0151685Y0100276
X0155622Y0096732
X0159559Y0093189
X0163496Y008689
X0130819Y0078622
X0127276Y0073504
X0125Y0057606
X0135
Y0037984
X0125
X0100504Y0053819
T02
X0115Y001
X0125
X0135
X0145
X0155
X0165
X0095
X0085
X0075
X0065
X0055
X0045
X0009Y00275
Y00375
Y01
Y011
Y012
X0105Y02
X0115
X0125
X0135
X0145
X0155
X0165
X0095
X0079
X0069
X0059
X0049
X0039
X0029
X0019
X0009
M30
