%FSLAX25Y25*%
%MOIN*%
G70*
G01*
G75*
G04 Layer_Color=65535*
%ADD10R,0.01969X0.02756*%
%ADD11R,0.02953X0.02559*%
%ADD12R,0.02559X0.02953*%
%ADD13R,0.02362X0.01969*%
%ADD14R,0.04803X0.02362*%
%ADD15R,0.02362X0.03543*%
G04:AMPARAMS|DCode=16|XSize=25.59mil|YSize=23.62mil|CornerRadius=5.91mil|HoleSize=0mil|Usage=FLASHONLY|Rotation=0.000|XOffset=0mil|YOffset=0mil|HoleType=Round|Shape=RoundedRectangle|*
%AMROUNDEDRECTD16*
21,1,0.02559,0.01181,0,0,0.0*
21,1,0.01378,0.02362,0,0,0.0*
1,1,0.01181,0.00689,-0.00591*
1,1,0.01181,-0.00689,-0.00591*
1,1,0.01181,-0.00689,0.00591*
1,1,0.01181,0.00689,0.00591*
%
%ADD16ROUNDEDRECTD16*%
%ADD17R,0.01969X0.02362*%
G04:AMPARAMS|DCode=18|XSize=25.59mil|YSize=23.62mil|CornerRadius=5.91mil|HoleSize=0mil|Usage=FLASHONLY|Rotation=270.000|XOffset=0mil|YOffset=0mil|HoleType=Round|Shape=RoundedRectangle|*
%AMROUNDEDRECTD18*
21,1,0.02559,0.01181,0,0,270.0*
21,1,0.01378,0.02362,0,0,270.0*
1,1,0.01181,-0.00591,-0.00689*
1,1,0.01181,-0.00591,0.00689*
1,1,0.01181,0.00591,0.00689*
1,1,0.01181,0.00591,-0.00689*
%
%ADD18ROUNDEDRECTD18*%
%ADD19R,0.05709X0.02165*%
%ADD20R,0.05709X0.02165*%
%ADD21R,0.05000X0.02500*%
%ADD22R,0.02500X0.05000*%
%ADD23C,0.01000*%
%ADD24C,0.01500*%
%ADD25C,0.02000*%
%ADD26C,0.00600*%
%ADD27C,0.06000*%
%ADD28C,0.05906*%
%ADD29C,0.03000*%
%ADD30C,0.03000*%
%ADD31C,0.00984*%
%ADD32C,0.00394*%
%ADD33C,0.00500*%
%ADD34C,0.00787*%
%ADD35C,0.00591*%
%ADD36C,0.00472*%
G36*
X74973Y136118D02*
X75064Y136110D01*
X75181Y136093D01*
X75298Y136077D01*
X75431Y136052D01*
X75573Y136018D01*
X75723Y135985D01*
X75872Y135935D01*
X76022Y135877D01*
X76172Y135810D01*
X76322Y135727D01*
X76456Y135643D01*
X76589Y135535D01*
X76597Y135527D01*
X76614Y135510D01*
X76647Y135477D01*
X76689Y135427D01*
X76739Y135369D01*
X76797Y135293D01*
X76855Y135210D01*
X76914Y135119D01*
X76980Y135010D01*
X77039Y134885D01*
X77097Y134760D01*
X77147Y134619D01*
X77189Y134460D01*
X77222Y134302D01*
X77239Y134127D01*
X77247Y133944D01*
Y133936D01*
Y133902D01*
X77239Y133852D01*
Y133777D01*
X77230Y133694D01*
X77214Y133602D01*
X77189Y133494D01*
X77164Y133378D01*
X77130Y133253D01*
X77089Y133119D01*
X77030Y132994D01*
X76972Y132861D01*
X76897Y132728D01*
X76806Y132603D01*
X76705Y132478D01*
X76589Y132361D01*
X76581Y132353D01*
X76556Y132336D01*
X76522Y132311D01*
X76464Y132270D01*
X76397Y132228D01*
X76314Y132178D01*
X76222Y132128D01*
X76114Y132070D01*
X75989Y132020D01*
X75856Y131962D01*
X75706Y131912D01*
X75548Y131870D01*
X75373Y131828D01*
X75190Y131803D01*
X74990Y131787D01*
X74781Y131778D01*
X74673D01*
X74590Y131787D01*
X74498Y131795D01*
X74390Y131812D01*
X74265Y131828D01*
X74132Y131853D01*
X73990Y131878D01*
X73840Y131920D01*
X73698Y131970D01*
X73540Y132028D01*
X73399Y132095D01*
X73249Y132170D01*
X73115Y132261D01*
X72982Y132361D01*
X72974Y132370D01*
X72957Y132386D01*
X72924Y132420D01*
X72874Y132470D01*
X72824Y132528D01*
X72774Y132603D01*
X72707Y132686D01*
X72649Y132778D01*
X72591Y132886D01*
X72524Y133011D01*
X72474Y133136D01*
X72416Y133278D01*
X72374Y133428D01*
X72341Y133594D01*
X72324Y133761D01*
X72316Y133944D01*
Y133952D01*
Y133986D01*
Y134044D01*
X72324Y134111D01*
X72332Y134194D01*
X72349Y134294D01*
X72374Y134402D01*
X72399Y134519D01*
X72432Y134644D01*
X72474Y134769D01*
X72532Y134902D01*
X72599Y135035D01*
X72674Y135169D01*
X72765Y135293D01*
X72865Y135418D01*
X72982Y135535D01*
X72990Y135543D01*
X73015Y135560D01*
X73049Y135593D01*
X73107Y135627D01*
X73174Y135668D01*
X73249Y135718D01*
X73349Y135777D01*
X73457Y135835D01*
X73582Y135885D01*
X73715Y135943D01*
X73865Y135993D01*
X74023Y136035D01*
X74198Y136068D01*
X74382Y136101D01*
X74573Y136118D01*
X74781Y136126D01*
X74890D01*
X74973Y136118D01*
D02*
G37*
G36*
X76955Y130720D02*
X76972Y130687D01*
X76997Y130629D01*
X77030Y130545D01*
X77064Y130454D01*
X77105Y130345D01*
X77139Y130229D01*
X77172Y130112D01*
Y130096D01*
X77180Y130054D01*
X77197Y129996D01*
X77205Y129912D01*
X77222Y129812D01*
X77239Y129696D01*
X77247Y129571D01*
Y129438D01*
Y129421D01*
Y129379D01*
X77239Y129313D01*
X77230Y129229D01*
X77222Y129121D01*
X77205Y129004D01*
X77180Y128871D01*
X77139Y128721D01*
X77097Y128571D01*
X77047Y128413D01*
X76972Y128246D01*
X76897Y128088D01*
X76797Y127930D01*
X76689Y127780D01*
X76564Y127638D01*
X76414Y127505D01*
X76406Y127497D01*
X76372Y127480D01*
X76322Y127447D01*
X76256Y127405D01*
X76172Y127347D01*
X76064Y127297D01*
X75939Y127230D01*
X75798Y127172D01*
X75639Y127113D01*
X75456Y127047D01*
X75264Y126997D01*
X75048Y126947D01*
X74815Y126897D01*
X74565Y126864D01*
X74290Y126847D01*
X74007Y126839D01*
X73940D01*
X73857Y126847D01*
X73748D01*
X73615Y126855D01*
X73465Y126872D01*
X73290Y126897D01*
X73107Y126922D01*
X72915Y126955D01*
X72724Y127005D01*
X72524Y127055D01*
X72316Y127122D01*
X72124Y127197D01*
X71932Y127288D01*
X71758Y127388D01*
X71591Y127505D01*
X71583Y127513D01*
X71558Y127538D01*
X71516Y127572D01*
X71458Y127630D01*
X71399Y127697D01*
X71324Y127780D01*
X71249Y127880D01*
X71166Y127997D01*
X71091Y128130D01*
X71016Y128271D01*
X70941Y128430D01*
X70883Y128604D01*
X70825Y128788D01*
X70783Y128988D01*
X70758Y129204D01*
X70750Y129438D01*
Y129446D01*
Y129454D01*
Y129496D01*
Y129571D01*
X70758Y129654D01*
X70766Y129762D01*
X70783Y129879D01*
X70825Y130121D01*
Y130137D01*
X70841Y130179D01*
X70858Y130237D01*
X70883Y130321D01*
X70916Y130412D01*
X70950Y130520D01*
X71049Y130737D01*
X72424D01*
X72407Y130720D01*
X72374Y130679D01*
X72324Y130620D01*
X72257Y130537D01*
X72191Y130446D01*
X72124Y130337D01*
X72057Y130229D01*
X71999Y130112D01*
X71991Y130096D01*
X71974Y130062D01*
X71957Y130004D01*
X71924Y129921D01*
X71899Y129829D01*
X71882Y129729D01*
X71866Y129613D01*
X71858Y129496D01*
Y129488D01*
Y129463D01*
Y129429D01*
X71866Y129388D01*
X71874Y129329D01*
X71882Y129263D01*
X71924Y129113D01*
X71991Y128946D01*
X72032Y128863D01*
X72082Y128779D01*
X72149Y128696D01*
X72224Y128613D01*
X72307Y128538D01*
X72399Y128471D01*
X72407D01*
X72424Y128455D01*
X72457Y128438D01*
X72499Y128421D01*
X72557Y128396D01*
X72624Y128363D01*
X72707Y128330D01*
X72799Y128305D01*
X72907Y128271D01*
X73032Y128238D01*
X73157Y128213D01*
X73307Y128180D01*
X73465Y128163D01*
X73632Y128146D01*
X73815Y128130D01*
X74107D01*
X74182Y128138D01*
X74265D01*
X74373Y128146D01*
X74481Y128155D01*
X74606Y128171D01*
X74865Y128213D01*
X75131Y128271D01*
X75381Y128355D01*
X75498Y128413D01*
X75606Y128471D01*
X75614Y128480D01*
X75631Y128488D01*
X75656Y128505D01*
X75689Y128538D01*
X75773Y128621D01*
X75872Y128729D01*
X75972Y128879D01*
X76056Y129054D01*
X76089Y129154D01*
X76114Y129254D01*
X76131Y129371D01*
X76139Y129496D01*
Y129513D01*
Y129554D01*
X76131Y129613D01*
X76122Y129696D01*
X76106Y129787D01*
X76081Y129887D01*
X76047Y130004D01*
X76006Y130112D01*
X75998Y130129D01*
X75981Y130162D01*
X75947Y130221D01*
X75898Y130304D01*
X75839Y130395D01*
X75764Y130504D01*
X75681Y130620D01*
X75573Y130737D01*
X76947D01*
X76955Y130720D01*
D02*
G37*
G36*
X75914Y141016D02*
X75972Y141008D01*
X76047Y141000D01*
X76206Y140966D01*
X76381Y140908D01*
X76472Y140866D01*
X76564Y140825D01*
X76656Y140766D01*
X76739Y140700D01*
X76814Y140625D01*
X76889Y140541D01*
Y140533D01*
X76906Y140516D01*
X76922Y140491D01*
X76947Y140450D01*
X76972Y140400D01*
X77005Y140341D01*
X77030Y140267D01*
X77064Y140183D01*
X77097Y140092D01*
X77130Y139983D01*
X77164Y139867D01*
X77189Y139733D01*
X77214Y139600D01*
X77230Y139442D01*
X77239Y139284D01*
X77247Y139109D01*
Y139100D01*
Y139092D01*
Y139067D01*
Y139034D01*
X77239Y138950D01*
Y138842D01*
X77230Y138709D01*
X77214Y138559D01*
X77197Y138401D01*
X77172Y138234D01*
Y138226D01*
Y138217D01*
X77164Y138192D01*
X77155Y138159D01*
X77139Y138067D01*
X77122Y137959D01*
X77089Y137826D01*
X77055Y137676D01*
X77005Y137509D01*
X76955Y137343D01*
X75881D01*
Y137351D01*
X75889Y137359D01*
X75923Y137409D01*
X75964Y137493D01*
X76014Y137593D01*
X76073Y137718D01*
X76131Y137859D01*
X76189Y138009D01*
X76239Y138167D01*
Y138176D01*
X76247Y138184D01*
Y138209D01*
X76256Y138242D01*
X76272Y138326D01*
X76297Y138426D01*
X76322Y138551D01*
X76339Y138692D01*
X76347Y138834D01*
X76356Y138984D01*
Y138992D01*
Y139000D01*
Y139059D01*
X76347Y139134D01*
X76339Y139225D01*
X76322Y139334D01*
X76306Y139442D01*
X76272Y139550D01*
X76231Y139642D01*
X76222Y139650D01*
X76206Y139675D01*
X76181Y139717D01*
X76139Y139758D01*
X76089Y139792D01*
X76022Y139833D01*
X75956Y139858D01*
X75872Y139867D01*
X75831D01*
X75789Y139858D01*
X75739Y139850D01*
X75673Y139825D01*
X75614Y139800D01*
X75556Y139758D01*
X75506Y139708D01*
X75498Y139700D01*
X75481Y139675D01*
X75456Y139625D01*
X75423Y139558D01*
X75389Y139450D01*
X75364Y139392D01*
X75339Y139325D01*
X75314Y139242D01*
X75289Y139159D01*
X75264Y139059D01*
X75239Y138950D01*
X75165Y138609D01*
Y138601D01*
X75156Y138576D01*
X75148Y138542D01*
X75131Y138492D01*
X75115Y138434D01*
X75098Y138367D01*
X75039Y138217D01*
X74973Y138051D01*
X74890Y137884D01*
X74781Y137726D01*
X74723Y137651D01*
X74665Y137584D01*
X74648Y137568D01*
X74598Y137534D01*
X74523Y137484D01*
X74423Y137426D01*
X74290Y137368D01*
X74140Y137318D01*
X73957Y137284D01*
X73757Y137268D01*
X73690D01*
X73640Y137276D01*
X73590Y137284D01*
X73523Y137293D01*
X73365Y137326D01*
X73199Y137384D01*
X73107Y137426D01*
X73024Y137476D01*
X72932Y137534D01*
X72849Y137601D01*
X72774Y137676D01*
X72699Y137759D01*
X72690Y137768D01*
X72682Y137784D01*
X72666Y137809D01*
X72641Y137851D01*
X72607Y137901D01*
X72574Y137959D01*
X72540Y138034D01*
X72507Y138117D01*
X72474Y138209D01*
X72441Y138309D01*
X72407Y138426D01*
X72374Y138551D01*
X72349Y138675D01*
X72332Y138826D01*
X72316Y138975D01*
Y139134D01*
Y139142D01*
Y139150D01*
Y139200D01*
Y139284D01*
X72324Y139384D01*
X72332Y139508D01*
X72341Y139642D01*
X72357Y139783D01*
X72382Y139933D01*
Y139942D01*
Y139950D01*
X72391Y140000D01*
X72407Y140083D01*
X72432Y140183D01*
X72457Y140300D01*
X72491Y140433D01*
X72574Y140708D01*
X73648D01*
X73640Y140691D01*
X73615Y140650D01*
X73573Y140583D01*
X73523Y140491D01*
X73474Y140383D01*
X73423Y140258D01*
X73365Y140133D01*
X73324Y139992D01*
X73315Y139975D01*
X73307Y139925D01*
X73290Y139858D01*
X73265Y139767D01*
X73240Y139650D01*
X73224Y139525D01*
X73215Y139392D01*
X73207Y139259D01*
Y139250D01*
Y139242D01*
Y139192D01*
X73215Y139117D01*
X73224Y139025D01*
X73240Y138925D01*
X73257Y138817D01*
X73290Y138717D01*
X73332Y138634D01*
X73340Y138626D01*
X73357Y138601D01*
X73382Y138567D01*
X73415Y138534D01*
X73465Y138492D01*
X73532Y138459D01*
X73598Y138434D01*
X73682Y138426D01*
X73698D01*
X73740Y138442D01*
X73798Y138476D01*
X73840Y138501D01*
X73882Y138542D01*
X73923Y138584D01*
X73965Y138642D01*
X74015Y138717D01*
X74057Y138809D01*
X74107Y138909D01*
X74148Y139025D01*
X74190Y139167D01*
X74231Y139325D01*
X74248Y139367D01*
X74331Y139725D01*
Y139733D01*
X74340Y139758D01*
X74348Y139792D01*
X74365Y139833D01*
X74382Y139892D01*
X74398Y139950D01*
X74456Y140100D01*
X74523Y140258D01*
X74615Y140425D01*
X74723Y140575D01*
X74848Y140708D01*
X74865Y140725D01*
X74915Y140758D01*
X74990Y140808D01*
X75098Y140866D01*
X75231Y140925D01*
X75398Y140975D01*
X75581Y141008D01*
X75798Y141025D01*
X75864D01*
X75914Y141016D01*
D02*
G37*
G36*
X77122Y150312D02*
X76606D01*
X76622Y150304D01*
X76656Y150271D01*
X76714Y150221D01*
X76780Y150154D01*
X76855Y150071D01*
X76939Y149979D01*
X77014Y149863D01*
X77080Y149738D01*
X77089Y149721D01*
X77105Y149679D01*
X77130Y149604D01*
X77164Y149513D01*
X77197Y149396D01*
X77222Y149271D01*
X77239Y149121D01*
X77247Y148971D01*
Y148963D01*
Y148938D01*
Y148896D01*
X77239Y148838D01*
X77230Y148772D01*
X77222Y148696D01*
X77214Y148605D01*
X77197Y148513D01*
X77147Y148313D01*
X77072Y148105D01*
X77022Y148005D01*
X76964Y147905D01*
X76906Y147813D01*
X76831Y147722D01*
X76822Y147714D01*
X76814Y147705D01*
X76789Y147680D01*
X76755Y147655D01*
X76705Y147622D01*
X76656Y147580D01*
X76597Y147539D01*
X76522Y147505D01*
X76439Y147464D01*
X76356Y147422D01*
X76256Y147380D01*
X76147Y147347D01*
X76031Y147322D01*
X75914Y147297D01*
X75781Y147289D01*
X75639Y147280D01*
X75564D01*
X75506Y147289D01*
X75439Y147297D01*
X75356Y147305D01*
X75181Y147347D01*
X74990Y147405D01*
X74881Y147455D01*
X74781Y147505D01*
X74690Y147564D01*
X74598Y147630D01*
X74506Y147714D01*
X74431Y147805D01*
X74423Y147813D01*
X74415Y147830D01*
X74398Y147863D01*
X74365Y147905D01*
X74340Y147964D01*
X74306Y148030D01*
X74265Y148113D01*
X74231Y148213D01*
X74190Y148322D01*
X74157Y148438D01*
X74123Y148580D01*
X74090Y148730D01*
X74065Y148888D01*
X74048Y149063D01*
X74040Y149255D01*
X74032Y149454D01*
Y150312D01*
X73782D01*
X73732Y150304D01*
X73665Y150287D01*
X73590Y150263D01*
X73515Y150221D01*
X73440Y150171D01*
X73382Y150096D01*
X73374Y150088D01*
X73357Y150054D01*
X73332Y150004D01*
X73299Y149938D01*
X73274Y149846D01*
X73249Y149738D01*
X73232Y149604D01*
X73224Y149454D01*
Y149446D01*
Y149438D01*
Y149413D01*
Y149380D01*
X73232Y149296D01*
X73240Y149180D01*
X73249Y149055D01*
X73274Y148905D01*
X73299Y148755D01*
X73340Y148597D01*
Y148588D01*
X73349Y148580D01*
Y148555D01*
X73357Y148530D01*
X73390Y148447D01*
X73423Y148338D01*
X73474Y148213D01*
X73532Y148063D01*
X73607Y147914D01*
X73690Y147747D01*
X72641D01*
Y147755D01*
X72632Y147764D01*
X72615Y147813D01*
X72582Y147897D01*
X72549Y147997D01*
X72507Y148122D01*
X72466Y148263D01*
X72432Y148405D01*
X72399Y148563D01*
Y148572D01*
Y148580D01*
X72391Y148605D01*
X72382Y148638D01*
X72374Y148722D01*
X72357Y148838D01*
X72341Y148971D01*
X72332Y149121D01*
X72316Y149280D01*
Y149454D01*
Y149471D01*
Y149504D01*
Y149563D01*
X72324Y149638D01*
X72332Y149738D01*
X72341Y149838D01*
X72357Y149954D01*
X72374Y150088D01*
X72432Y150346D01*
X72515Y150612D01*
X72566Y150737D01*
X72624Y150862D01*
X72699Y150971D01*
X72782Y151062D01*
X72790Y151071D01*
X72807Y151079D01*
X72832Y151104D01*
X72874Y151137D01*
X72924Y151171D01*
X72990Y151212D01*
X73074Y151254D01*
X73165Y151295D01*
X73274Y151337D01*
X73390Y151379D01*
X73532Y151420D01*
X73682Y151454D01*
X73848Y151487D01*
X74032Y151512D01*
X74231Y151520D01*
X74448Y151529D01*
X77122D01*
Y150312D01*
D02*
G37*
G36*
X74981Y146506D02*
X75073Y146497D01*
X75190Y146489D01*
X75323Y146472D01*
X75456Y146456D01*
X75756Y146406D01*
X76056Y146323D01*
X76206Y146273D01*
X76347Y146206D01*
X76489Y146139D01*
X76614Y146056D01*
X76622Y146048D01*
X76639Y146039D01*
X76672Y146006D01*
X76714Y145973D01*
X76764Y145923D01*
X76814Y145873D01*
X76872Y145806D01*
X76930Y145731D01*
X76989Y145639D01*
X77047Y145548D01*
X77097Y145440D01*
X77147Y145323D01*
X77189Y145198D01*
X77222Y145065D01*
X77239Y144923D01*
X77247Y144773D01*
Y144756D01*
Y144706D01*
X77239Y144640D01*
X77222Y144548D01*
X77197Y144440D01*
X77164Y144332D01*
X77122Y144215D01*
X77055Y144098D01*
X77047Y144082D01*
X77022Y144048D01*
X76972Y143990D01*
X76906Y143923D01*
X76831Y143840D01*
X76722Y143748D01*
X76606Y143657D01*
X76464Y143574D01*
X78905D01*
Y142349D01*
X72424D01*
Y143574D01*
X73132D01*
X73124Y143582D01*
X73074Y143607D01*
X72999Y143649D01*
X72907Y143707D01*
X72807Y143782D01*
X72707Y143865D01*
X72607Y143965D01*
X72524Y144073D01*
X72515Y144090D01*
X72491Y144132D01*
X72457Y144198D01*
X72416Y144282D01*
X72382Y144390D01*
X72349Y144523D01*
X72324Y144665D01*
X72316Y144815D01*
Y144823D01*
Y144848D01*
Y144890D01*
X72324Y144948D01*
X72332Y145015D01*
X72349Y145098D01*
X72374Y145181D01*
X72399Y145273D01*
X72432Y145373D01*
X72474Y145473D01*
X72524Y145581D01*
X72591Y145681D01*
X72666Y145789D01*
X72749Y145881D01*
X72849Y145981D01*
X72965Y146064D01*
X72974Y146073D01*
X72999Y146081D01*
X73032Y146106D01*
X73082Y146131D01*
X73149Y146172D01*
X73232Y146206D01*
X73324Y146247D01*
X73432Y146289D01*
X73557Y146331D01*
X73690Y146372D01*
X73840Y146414D01*
X74007Y146447D01*
X74182Y146472D01*
X74365Y146497D01*
X74565Y146506D01*
X74781Y146514D01*
X74898D01*
X74981Y146506D01*
D02*
G37*
G36*
X105656Y151562D02*
Y148457D01*
Y145352D01*
Y142247D01*
Y139142D01*
Y136037D01*
X105176D01*
Y139142D01*
Y142247D01*
Y145352D01*
Y148457D01*
Y151562D01*
Y154667D01*
X105656D01*
Y151562D01*
D02*
G37*
G36*
X103481Y129512D02*
X103526Y129507D01*
X103581Y129497D01*
X103641Y129487D01*
X103706Y129477D01*
X103846Y129432D01*
X103916Y129407D01*
X103986Y129372D01*
X104051Y129337D01*
X104121Y129287D01*
X104181Y129237D01*
X104236Y129177D01*
X104241Y129172D01*
X104246Y129162D01*
X104261Y129142D01*
X104281Y129112D01*
X104301Y129077D01*
X104326Y129037D01*
X104351Y128982D01*
X104376Y128927D01*
X104401Y128857D01*
X104426Y128782D01*
X104451Y128697D01*
X104471Y128607D01*
X104491Y128507D01*
X104506Y128402D01*
X104511Y128287D01*
X104516Y128162D01*
Y128157D01*
Y128152D01*
Y128132D01*
Y128112D01*
X104511Y128057D01*
X104506Y127987D01*
X104501Y127902D01*
X104486Y127807D01*
X104471Y127707D01*
X104451Y127602D01*
Y127597D01*
X104446Y127592D01*
Y127577D01*
X104441Y127552D01*
X104421Y127502D01*
X104401Y127432D01*
X104371Y127347D01*
X104341Y127257D01*
X104296Y127162D01*
X104251Y127062D01*
X103481D01*
Y127067D01*
X103491Y127077D01*
X103501Y127092D01*
X103516Y127112D01*
X103536Y127137D01*
X103556Y127172D01*
X103601Y127242D01*
X103651Y127332D01*
X103706Y127427D01*
X103756Y127527D01*
X103801Y127632D01*
Y127637D01*
X103806Y127647D01*
X103811Y127662D01*
X103816Y127682D01*
X103831Y127737D01*
X103851Y127807D01*
X103871Y127887D01*
X103886Y127982D01*
X103896Y128082D01*
X103901Y128182D01*
Y128187D01*
Y128192D01*
Y128207D01*
Y128227D01*
X103896Y128277D01*
X103886Y128337D01*
X103871Y128407D01*
X103851Y128477D01*
X103821Y128547D01*
X103781Y128607D01*
X103776Y128612D01*
X103756Y128632D01*
X103731Y128657D01*
X103691Y128687D01*
X103641Y128712D01*
X103581Y128737D01*
X103511Y128757D01*
X103431Y128762D01*
X103401D01*
X103371Y128757D01*
X103331Y128747D01*
X103286Y128737D01*
X103236Y128717D01*
X103186Y128692D01*
X103136Y128657D01*
X103131Y128652D01*
X103116Y128637D01*
X103091Y128617D01*
X103061Y128582D01*
X103031Y128542D01*
X102996Y128492D01*
X102961Y128432D01*
X102931Y128367D01*
X102796Y128002D01*
X102791Y127997D01*
X102786Y127977D01*
X102776Y127947D01*
X102761Y127912D01*
X102741Y127867D01*
X102716Y127812D01*
X102691Y127757D01*
X102661Y127697D01*
X102591Y127572D01*
X102516Y127447D01*
X102476Y127387D01*
X102431Y127332D01*
X102391Y127282D01*
X102346Y127242D01*
X102341D01*
X102336Y127232D01*
X102321Y127222D01*
X102301Y127212D01*
X102281Y127197D01*
X102251Y127182D01*
X102176Y127147D01*
X102086Y127107D01*
X101981Y127077D01*
X101851Y127057D01*
X101711Y127047D01*
X101661D01*
X101626Y127052D01*
X101586Y127057D01*
X101536Y127062D01*
X101481Y127072D01*
X101421Y127087D01*
X101291Y127127D01*
X101226Y127152D01*
X101156Y127182D01*
X101091Y127222D01*
X101026Y127267D01*
X100966Y127317D01*
X100911Y127372D01*
X100906Y127377D01*
X100896Y127387D01*
X100886Y127407D01*
X100866Y127432D01*
X100841Y127467D01*
X100816Y127507D01*
X100791Y127552D01*
X100761Y127607D01*
X100736Y127667D01*
X100711Y127737D01*
X100686Y127812D01*
X100661Y127892D01*
X100641Y127977D01*
X100631Y128072D01*
X100621Y128167D01*
X100616Y128272D01*
Y128277D01*
Y128282D01*
Y128297D01*
Y128317D01*
X100621Y128367D01*
Y128437D01*
X100631Y128512D01*
X100641Y128602D01*
X100656Y128697D01*
X100676Y128792D01*
Y128797D01*
X100681Y128802D01*
Y128817D01*
X100686Y128837D01*
X100701Y128887D01*
X100721Y128952D01*
X100746Y129032D01*
X100776Y129117D01*
X100811Y129212D01*
X100851Y129307D01*
X101576D01*
Y129302D01*
X101571Y129297D01*
X101551Y129267D01*
X101521Y129217D01*
X101481Y129157D01*
X101441Y129082D01*
X101401Y128997D01*
X101356Y128912D01*
X101321Y128817D01*
Y128812D01*
X101316Y128807D01*
X101311Y128792D01*
X101306Y128777D01*
X101291Y128727D01*
X101276Y128662D01*
X101261Y128592D01*
X101246Y128507D01*
X101236Y128417D01*
X101231Y128327D01*
Y128322D01*
Y128317D01*
Y128302D01*
Y128282D01*
X101236Y128232D01*
X101246Y128172D01*
X101256Y128107D01*
X101276Y128037D01*
X101306Y127972D01*
X101341Y127912D01*
X101346Y127907D01*
X101361Y127892D01*
X101386Y127867D01*
X101421Y127842D01*
X101466Y127817D01*
X101516Y127792D01*
X101581Y127777D01*
X101651Y127772D01*
X101676D01*
X101706Y127777D01*
X101741Y127787D01*
X101781Y127797D01*
X101826Y127812D01*
X101871Y127837D01*
X101911Y127872D01*
X101916Y127877D01*
X101926Y127892D01*
X101951Y127922D01*
X101976Y127967D01*
X102011Y128027D01*
X102046Y128102D01*
X102071Y128147D01*
X102091Y128197D01*
X102111Y128252D01*
X102136Y128312D01*
X102256Y128632D01*
Y128637D01*
X102261Y128652D01*
X102271Y128677D01*
X102286Y128707D01*
X102301Y128742D01*
X102321Y128787D01*
X102371Y128887D01*
X102436Y128997D01*
X102511Y129107D01*
X102596Y129212D01*
X102646Y129257D01*
X102696Y129302D01*
X102701Y129307D01*
X102706Y129312D01*
X102726Y129322D01*
X102746Y129337D01*
X102771Y129352D01*
X102806Y129372D01*
X102841Y129392D01*
X102886Y129412D01*
X102986Y129447D01*
X103101Y129482D01*
X103236Y129507D01*
X103311Y129517D01*
X103441D01*
X103481Y129512D01*
D02*
G37*
G36*
X94782Y153977D02*
X94852D01*
X94932Y153972D01*
X95027Y153962D01*
X95132Y153947D01*
X95242Y153932D01*
X95357Y153912D01*
X95477Y153882D01*
X95597Y153852D01*
X95717Y153812D01*
X95832Y153767D01*
X95937Y153712D01*
X96037Y153647D01*
X96127Y153577D01*
X96132Y153572D01*
X96147Y153557D01*
X96167Y153532D01*
X96197Y153502D01*
X96227Y153457D01*
X96267Y153402D01*
X96307Y153337D01*
X96347Y153262D01*
X96387Y153172D01*
X96427Y153077D01*
X96467Y152967D01*
X96497Y152847D01*
X96527Y152717D01*
X96547Y152572D01*
X96562Y152417D01*
X96567Y152252D01*
Y151457D01*
X92807D01*
Y152252D01*
Y152257D01*
Y152262D01*
Y152292D01*
X92812Y152342D01*
Y152402D01*
X92822Y152477D01*
X92832Y152567D01*
X92842Y152662D01*
X92862Y152762D01*
X92887Y152872D01*
X92912Y152982D01*
X92952Y153092D01*
X92992Y153197D01*
X93042Y153302D01*
X93102Y153402D01*
X93167Y153497D01*
X93247Y153577D01*
X93252Y153582D01*
X93267Y153597D01*
X93292Y153617D01*
X93332Y153642D01*
X93377Y153672D01*
X93437Y153707D01*
X93512Y153742D01*
X93592Y153782D01*
X93687Y153817D01*
X93792Y153852D01*
X93912Y153887D01*
X94042Y153917D01*
X94182Y153947D01*
X94337Y153967D01*
X94507Y153977D01*
X94687Y153982D01*
X94732D01*
X94782Y153977D01*
D02*
G37*
G36*
X104441Y131832D02*
X101711Y130782D01*
X104441D01*
Y130127D01*
X100681D01*
Y130922D01*
X103416Y131972D01*
X100681D01*
Y132627D01*
X104441D01*
Y131832D01*
D02*
G37*
G36*
Y134062D02*
X103516D01*
Y134902D01*
X104441D01*
Y134062D01*
D02*
G37*
G36*
X102686D02*
X101766D01*
Y134902D01*
X102686D01*
Y134062D01*
D02*
G37*
G36*
X77122Y191554D02*
X74190D01*
X74098Y191546D01*
X73990Y191538D01*
X73865Y191521D01*
X73748Y191488D01*
X73632Y191454D01*
X73540Y191404D01*
X73532Y191396D01*
X73507Y191379D01*
X73465Y191338D01*
X73423Y191288D01*
X73390Y191221D01*
X73349Y191138D01*
X73324Y191046D01*
X73315Y190930D01*
Y190913D01*
X73324Y190871D01*
X73332Y190813D01*
X73349Y190738D01*
X73390Y190655D01*
X73440Y190571D01*
X73515Y190480D01*
X73615Y190405D01*
X73632Y190396D01*
X73673Y190372D01*
X73740Y190347D01*
X73832Y190313D01*
X73948Y190271D01*
X74090Y190247D01*
X74256Y190222D01*
X74440Y190213D01*
X77122D01*
Y188997D01*
X72424D01*
Y190213D01*
X73132D01*
X73124Y190222D01*
X73074Y190238D01*
X73007Y190271D01*
X72915Y190313D01*
X72815Y190380D01*
X72716Y190455D01*
X72624Y190546D01*
X72532Y190655D01*
X72524Y190671D01*
X72499Y190713D01*
X72466Y190780D01*
X72424Y190871D01*
X72382Y190980D01*
X72349Y191104D01*
X72324Y191254D01*
X72316Y191413D01*
Y191421D01*
Y191446D01*
Y191479D01*
X72324Y191521D01*
X72332Y191579D01*
X72341Y191646D01*
X72374Y191796D01*
X72424Y191954D01*
X72507Y192129D01*
X72557Y192212D01*
X72615Y192287D01*
X72682Y192362D01*
X72765Y192429D01*
X72774D01*
X72782Y192446D01*
X72815Y192462D01*
X72849Y192479D01*
X72890Y192512D01*
X72949Y192537D01*
X73015Y192571D01*
X73099Y192604D01*
X73182Y192629D01*
X73282Y192662D01*
X73390Y192696D01*
X73507Y192721D01*
X73632Y192737D01*
X73773Y192754D01*
X73923Y192771D01*
X77122D01*
Y191554D01*
D02*
G37*
G36*
X76955Y187681D02*
X77047Y187673D01*
X77155Y187664D01*
X77264Y187648D01*
X77389Y187623D01*
X77655Y187564D01*
X77788Y187523D01*
X77922Y187473D01*
X78055Y187414D01*
X78172Y187339D01*
X78288Y187264D01*
X78388Y187173D01*
X78396Y187164D01*
X78413Y187148D01*
X78438Y187115D01*
X78463Y187073D01*
X78505Y187023D01*
X78547Y186956D01*
X78597Y186873D01*
X78638Y186773D01*
X78688Y186665D01*
X78738Y186548D01*
X78780Y186415D01*
X78813Y186265D01*
X78846Y186098D01*
X78871Y185923D01*
X78888Y185732D01*
X78896Y185523D01*
Y185507D01*
Y185457D01*
Y185382D01*
X78888Y185282D01*
X78880Y185165D01*
X78871Y185040D01*
X78855Y184899D01*
X78838Y184757D01*
Y184740D01*
X78830Y184690D01*
X78813Y184616D01*
X78796Y184524D01*
X78771Y184407D01*
X78738Y184282D01*
X78705Y184141D01*
X78663Y183999D01*
X77539D01*
X77547Y184016D01*
X77572Y184057D01*
X77605Y184124D01*
X77647Y184216D01*
X77688Y184324D01*
X77738Y184441D01*
X77780Y184565D01*
X77822Y184699D01*
Y184707D01*
Y184715D01*
X77838Y184757D01*
X77847Y184832D01*
X77863Y184924D01*
X77880Y185040D01*
X77897Y185165D01*
X77905Y185299D01*
X77913Y185440D01*
Y185449D01*
Y185465D01*
Y185490D01*
X77905Y185523D01*
X77897Y185615D01*
X77880Y185732D01*
X77855Y185857D01*
X77805Y185982D01*
X77747Y186098D01*
X77663Y186206D01*
X77655Y186215D01*
X77614Y186248D01*
X77564Y186290D01*
X77480Y186331D01*
X77372Y186381D01*
X77247Y186415D01*
X77089Y186448D01*
X76914Y186456D01*
X76406D01*
X76422Y186448D01*
X76464Y186423D01*
X76522Y186381D01*
X76589Y186331D01*
X76672Y186257D01*
X76755Y186173D01*
X76839Y186082D01*
X76906Y185973D01*
X76914Y185957D01*
X76930Y185923D01*
X76955Y185857D01*
X76980Y185773D01*
X77014Y185665D01*
X77039Y185548D01*
X77055Y185407D01*
X77064Y185249D01*
Y185240D01*
Y185215D01*
X77055Y185174D01*
Y185115D01*
X77047Y185049D01*
X77030Y184974D01*
X77014Y184882D01*
X76989Y184790D01*
X76955Y184690D01*
X76914Y184582D01*
X76864Y184482D01*
X76797Y184374D01*
X76731Y184266D01*
X76647Y184166D01*
X76547Y184066D01*
X76439Y183974D01*
X76431Y183966D01*
X76406Y183957D01*
X76372Y183932D01*
X76322Y183899D01*
X76264Y183866D01*
X76181Y183824D01*
X76098Y183782D01*
X75989Y183741D01*
X75872Y183699D01*
X75748Y183658D01*
X75606Y183616D01*
X75456Y183582D01*
X75289Y183549D01*
X75115Y183524D01*
X74931Y183516D01*
X74731Y183508D01*
X74623D01*
X74548Y183516D01*
X74456Y183524D01*
X74340Y183533D01*
X74223Y183549D01*
X74090Y183566D01*
X73807Y183624D01*
X73515Y183707D01*
X73365Y183757D01*
X73224Y183824D01*
X73090Y183891D01*
X72965Y183974D01*
X72957Y183982D01*
X72940Y183999D01*
X72907Y184024D01*
X72865Y184057D01*
X72815Y184107D01*
X72757Y184166D01*
X72699Y184232D01*
X72632Y184307D01*
X72574Y184399D01*
X72515Y184491D01*
X72457Y184599D01*
X72407Y184707D01*
X72366Y184832D01*
X72332Y184957D01*
X72316Y185099D01*
X72307Y185240D01*
Y185249D01*
Y185257D01*
Y185307D01*
X72316Y185382D01*
X72332Y185482D01*
X72357Y185598D01*
X72391Y185715D01*
X72432Y185840D01*
X72499Y185957D01*
X72507Y185973D01*
X72532Y186007D01*
X72574Y186065D01*
X72641Y186140D01*
X72716Y186215D01*
X72807Y186298D01*
X72907Y186381D01*
X73032Y186456D01*
X72424D01*
Y187689D01*
X76881D01*
X76955Y187681D01*
D02*
G37*
G36*
X21500Y96500D02*
X18372D01*
Y98447D01*
X18917D01*
Y97120D01*
X19591D01*
Y98322D01*
X20135D01*
Y97120D01*
X20955D01*
Y98447D01*
X21500D01*
Y96500D01*
D02*
G37*
G36*
X18913Y102915D02*
X21500D01*
Y102295D01*
X18913D01*
Y101500D01*
X18372D01*
Y103709D01*
X18913D01*
Y102915D01*
D02*
G37*
G36*
X21500Y100618D02*
X20468Y100019D01*
X21500Y99424D01*
Y98788D01*
X19915Y99703D01*
X18372Y98813D01*
Y99449D01*
X19370Y100019D01*
X18372Y100593D01*
Y101234D01*
X19915Y100344D01*
X21500Y101259D01*
Y100618D01*
D02*
G37*
G36*
X71574Y180059D02*
X70142D01*
Y181292D01*
X71574D01*
Y180059D01*
D02*
G37*
G36*
X74148Y167181D02*
X74265D01*
X74398Y167173D01*
X74556Y167156D01*
X74731Y167131D01*
X74915Y167106D01*
X75106Y167072D01*
X75306Y167023D01*
X75506Y166972D01*
X75706Y166906D01*
X75898Y166831D01*
X76073Y166739D01*
X76239Y166631D01*
X76389Y166514D01*
X76397Y166506D01*
X76422Y166481D01*
X76456Y166439D01*
X76506Y166389D01*
X76556Y166314D01*
X76622Y166223D01*
X76689Y166114D01*
X76755Y165990D01*
X76822Y165840D01*
X76889Y165681D01*
X76955Y165498D01*
X77005Y165298D01*
X77055Y165082D01*
X77089Y164840D01*
X77114Y164582D01*
X77122Y164307D01*
Y162982D01*
X70858D01*
Y164307D01*
Y164315D01*
Y164324D01*
Y164374D01*
X70866Y164457D01*
Y164557D01*
X70883Y164682D01*
X70899Y164832D01*
X70916Y164990D01*
X70950Y165157D01*
X70991Y165340D01*
X71033Y165523D01*
X71100Y165706D01*
X71166Y165881D01*
X71249Y166056D01*
X71349Y166223D01*
X71458Y166381D01*
X71591Y166514D01*
X71599Y166523D01*
X71624Y166548D01*
X71666Y166581D01*
X71732Y166623D01*
X71807Y166673D01*
X71908Y166731D01*
X72032Y166789D01*
X72166Y166856D01*
X72324Y166914D01*
X72499Y166972D01*
X72699Y167031D01*
X72915Y167081D01*
X73149Y167131D01*
X73407Y167164D01*
X73690Y167181D01*
X73990Y167189D01*
X74065D01*
X74148Y167181D01*
D02*
G37*
G36*
X77122Y155344D02*
X74190D01*
X74098Y155335D01*
X73990Y155327D01*
X73865Y155310D01*
X73748Y155277D01*
X73632Y155244D01*
X73540Y155194D01*
X73532Y155186D01*
X73507Y155169D01*
X73465Y155127D01*
X73423Y155077D01*
X73390Y155011D01*
X73349Y154927D01*
X73324Y154836D01*
X73315Y154719D01*
Y154702D01*
X73324Y154661D01*
X73332Y154603D01*
X73349Y154527D01*
X73390Y154444D01*
X73440Y154361D01*
X73515Y154269D01*
X73615Y154194D01*
X73632Y154186D01*
X73673Y154161D01*
X73740Y154136D01*
X73832Y154103D01*
X73948Y154061D01*
X74090Y154036D01*
X74256Y154011D01*
X74440Y154003D01*
X77122D01*
Y152787D01*
X72424D01*
Y154003D01*
X73132D01*
X73124Y154011D01*
X73074Y154028D01*
X73007Y154061D01*
X72915Y154103D01*
X72815Y154169D01*
X72716Y154244D01*
X72624Y154336D01*
X72532Y154444D01*
X72524Y154461D01*
X72499Y154502D01*
X72466Y154569D01*
X72424Y154661D01*
X72382Y154769D01*
X72349Y154894D01*
X72324Y155044D01*
X72316Y155202D01*
Y155211D01*
Y155236D01*
Y155269D01*
X72324Y155310D01*
X72332Y155369D01*
X72341Y155436D01*
X72374Y155585D01*
X72424Y155744D01*
X72507Y155919D01*
X72557Y156002D01*
X72615Y156077D01*
X72682Y156152D01*
X72765Y156219D01*
X72774D01*
X72782Y156235D01*
X72815Y156252D01*
X72849Y156269D01*
X72890Y156302D01*
X72949Y156327D01*
X73015Y156360D01*
X73099Y156393D01*
X73182Y156418D01*
X73282Y156452D01*
X73390Y156485D01*
X73507Y156510D01*
X73632Y156527D01*
X73773Y156543D01*
X73923Y156560D01*
X77122D01*
Y155344D01*
D02*
G37*
G36*
X75173Y169213D02*
X75223D01*
X75264Y169222D01*
X75364Y169230D01*
X75489Y169255D01*
X75623Y169288D01*
X75756Y169347D01*
X75889Y169422D01*
X76006Y169530D01*
X76014Y169546D01*
X76047Y169588D01*
X76089Y169663D01*
X76139Y169771D01*
X76189Y169905D01*
X76231Y170071D01*
X76264Y170271D01*
X76272Y170496D01*
Y170504D01*
Y170513D01*
Y170538D01*
Y170571D01*
X76264Y170654D01*
X76256Y170763D01*
X76247Y170888D01*
X76222Y171029D01*
X76197Y171179D01*
X76156Y171329D01*
Y171337D01*
X76147Y171346D01*
X76139Y171371D01*
X76131Y171404D01*
X76106Y171487D01*
X76064Y171596D01*
X76014Y171721D01*
X75947Y171871D01*
X75864Y172029D01*
X75773Y172195D01*
X76897D01*
Y172187D01*
X76906Y172179D01*
X76914Y172154D01*
X76922Y172120D01*
X76955Y172037D01*
X76997Y171921D01*
X77039Y171796D01*
X77080Y171646D01*
X77122Y171487D01*
X77155Y171321D01*
Y171312D01*
Y171304D01*
X77164Y171279D01*
X77172Y171246D01*
X77180Y171154D01*
X77197Y171038D01*
X77214Y170896D01*
X77230Y170738D01*
X77239Y170563D01*
X77247Y170379D01*
Y170363D01*
Y170329D01*
X77239Y170271D01*
Y170188D01*
X77230Y170088D01*
X77214Y169971D01*
X77197Y169846D01*
X77172Y169713D01*
X77139Y169571D01*
X77097Y169422D01*
X77047Y169272D01*
X76980Y169122D01*
X76914Y168980D01*
X76831Y168838D01*
X76731Y168705D01*
X76622Y168580D01*
X76614Y168572D01*
X76589Y168555D01*
X76556Y168522D01*
X76506Y168480D01*
X76439Y168439D01*
X76356Y168389D01*
X76264Y168330D01*
X76156Y168272D01*
X76039Y168214D01*
X75898Y168155D01*
X75748Y168105D01*
X75589Y168064D01*
X75414Y168022D01*
X75223Y167989D01*
X75023Y167972D01*
X74806Y167964D01*
X74698D01*
X74615Y167972D01*
X74523Y167981D01*
X74406Y167997D01*
X74282Y168014D01*
X74148Y168039D01*
X74007Y168072D01*
X73857Y168105D01*
X73707Y168155D01*
X73557Y168214D01*
X73407Y168280D01*
X73257Y168364D01*
X73124Y168455D01*
X72990Y168555D01*
X72982Y168564D01*
X72957Y168580D01*
X72924Y168614D01*
X72882Y168664D01*
X72832Y168730D01*
X72774Y168797D01*
X72716Y168888D01*
X72649Y168988D01*
X72591Y169097D01*
X72532Y169222D01*
X72474Y169355D01*
X72424Y169505D01*
X72374Y169655D01*
X72341Y169830D01*
X72324Y170005D01*
X72316Y170196D01*
Y170205D01*
Y170246D01*
Y170296D01*
X72324Y170371D01*
X72332Y170455D01*
X72349Y170554D01*
X72366Y170671D01*
X72391Y170788D01*
X72424Y170913D01*
X72466Y171046D01*
X72515Y171179D01*
X72582Y171321D01*
X72649Y171454D01*
X72732Y171579D01*
X72832Y171696D01*
X72940Y171812D01*
X72949Y171821D01*
X72965Y171837D01*
X73007Y171862D01*
X73057Y171904D01*
X73115Y171946D01*
X73190Y171995D01*
X73282Y172054D01*
X73390Y172104D01*
X73507Y172162D01*
X73632Y172212D01*
X73773Y172262D01*
X73932Y172304D01*
X74098Y172345D01*
X74282Y172370D01*
X74473Y172387D01*
X74673Y172395D01*
X75173D01*
Y169213D01*
D02*
G37*
G36*
X77122Y178526D02*
X76181D01*
Y180059D01*
X73365D01*
Y178859D01*
X72424D01*
Y181292D01*
X76181D01*
Y182816D01*
X77122D01*
Y178526D01*
D02*
G37*
G36*
X75914Y177227D02*
X75972Y177218D01*
X76047Y177210D01*
X76206Y177177D01*
X76381Y177119D01*
X76472Y177077D01*
X76564Y177035D01*
X76656Y176977D01*
X76739Y176910D01*
X76814Y176835D01*
X76889Y176752D01*
Y176744D01*
X76906Y176727D01*
X76922Y176702D01*
X76947Y176660D01*
X76972Y176610D01*
X77005Y176552D01*
X77030Y176477D01*
X77064Y176394D01*
X77097Y176302D01*
X77130Y176194D01*
X77164Y176077D01*
X77189Y175944D01*
X77214Y175811D01*
X77230Y175652D01*
X77239Y175494D01*
X77247Y175319D01*
Y175311D01*
Y175303D01*
Y175277D01*
Y175244D01*
X77239Y175161D01*
Y175053D01*
X77230Y174919D01*
X77214Y174769D01*
X77197Y174611D01*
X77172Y174444D01*
Y174436D01*
Y174428D01*
X77164Y174403D01*
X77155Y174370D01*
X77139Y174278D01*
X77122Y174170D01*
X77089Y174036D01*
X77055Y173886D01*
X77005Y173720D01*
X76955Y173553D01*
X75881D01*
Y173562D01*
X75889Y173570D01*
X75923Y173620D01*
X75964Y173703D01*
X76014Y173803D01*
X76073Y173928D01*
X76131Y174070D01*
X76189Y174220D01*
X76239Y174378D01*
Y174386D01*
X76247Y174395D01*
Y174420D01*
X76256Y174453D01*
X76272Y174536D01*
X76297Y174636D01*
X76322Y174761D01*
X76339Y174903D01*
X76347Y175044D01*
X76356Y175194D01*
Y175203D01*
Y175211D01*
Y175269D01*
X76347Y175344D01*
X76339Y175436D01*
X76322Y175544D01*
X76306Y175652D01*
X76272Y175761D01*
X76231Y175852D01*
X76222Y175861D01*
X76206Y175886D01*
X76181Y175927D01*
X76139Y175969D01*
X76089Y176002D01*
X76022Y176044D01*
X75956Y176069D01*
X75872Y176077D01*
X75831D01*
X75789Y176069D01*
X75739Y176061D01*
X75673Y176036D01*
X75614Y176011D01*
X75556Y175969D01*
X75506Y175919D01*
X75498Y175911D01*
X75481Y175886D01*
X75456Y175836D01*
X75423Y175769D01*
X75389Y175661D01*
X75364Y175602D01*
X75339Y175536D01*
X75314Y175452D01*
X75289Y175369D01*
X75264Y175269D01*
X75239Y175161D01*
X75165Y174819D01*
Y174811D01*
X75156Y174786D01*
X75148Y174753D01*
X75131Y174703D01*
X75115Y174644D01*
X75098Y174578D01*
X75039Y174428D01*
X74973Y174261D01*
X74890Y174095D01*
X74781Y173936D01*
X74723Y173861D01*
X74665Y173795D01*
X74648Y173778D01*
X74598Y173745D01*
X74523Y173695D01*
X74423Y173636D01*
X74290Y173578D01*
X74140Y173528D01*
X73957Y173495D01*
X73757Y173478D01*
X73690D01*
X73640Y173487D01*
X73590Y173495D01*
X73523Y173503D01*
X73365Y173537D01*
X73199Y173595D01*
X73107Y173636D01*
X73024Y173687D01*
X72932Y173745D01*
X72849Y173811D01*
X72774Y173886D01*
X72699Y173970D01*
X72690Y173978D01*
X72682Y173995D01*
X72666Y174020D01*
X72641Y174061D01*
X72607Y174111D01*
X72574Y174170D01*
X72540Y174245D01*
X72507Y174328D01*
X72474Y174420D01*
X72441Y174520D01*
X72407Y174636D01*
X72374Y174761D01*
X72349Y174886D01*
X72332Y175036D01*
X72316Y175186D01*
Y175344D01*
Y175353D01*
Y175361D01*
Y175411D01*
Y175494D01*
X72324Y175594D01*
X72332Y175719D01*
X72341Y175852D01*
X72357Y175994D01*
X72382Y176144D01*
Y176152D01*
Y176161D01*
X72391Y176210D01*
X72407Y176294D01*
X72432Y176394D01*
X72457Y176510D01*
X72491Y176644D01*
X72574Y176919D01*
X73648D01*
X73640Y176902D01*
X73615Y176860D01*
X73573Y176794D01*
X73523Y176702D01*
X73474Y176594D01*
X73423Y176469D01*
X73365Y176344D01*
X73324Y176202D01*
X73315Y176186D01*
X73307Y176136D01*
X73290Y176069D01*
X73265Y175977D01*
X73240Y175861D01*
X73224Y175736D01*
X73215Y175602D01*
X73207Y175469D01*
Y175461D01*
Y175452D01*
Y175402D01*
X73215Y175328D01*
X73224Y175236D01*
X73240Y175136D01*
X73257Y175028D01*
X73290Y174928D01*
X73332Y174844D01*
X73340Y174836D01*
X73357Y174811D01*
X73382Y174778D01*
X73415Y174744D01*
X73465Y174703D01*
X73532Y174670D01*
X73598Y174644D01*
X73682Y174636D01*
X73698D01*
X73740Y174653D01*
X73798Y174686D01*
X73840Y174711D01*
X73882Y174753D01*
X73923Y174794D01*
X73965Y174853D01*
X74015Y174928D01*
X74057Y175019D01*
X74107Y175119D01*
X74148Y175236D01*
X74190Y175378D01*
X74231Y175536D01*
X74248Y175577D01*
X74331Y175936D01*
Y175944D01*
X74340Y175969D01*
X74348Y176002D01*
X74365Y176044D01*
X74382Y176102D01*
X74398Y176161D01*
X74456Y176311D01*
X74523Y176469D01*
X74615Y176635D01*
X74723Y176785D01*
X74848Y176919D01*
X74865Y176935D01*
X74915Y176969D01*
X74990Y177018D01*
X75098Y177077D01*
X75231Y177135D01*
X75398Y177185D01*
X75581Y177218D01*
X75798Y177235D01*
X75864D01*
X75914Y177227D01*
D02*
G37*
G36*
X96567Y146491D02*
X95103D01*
X95057Y146487D01*
X95003Y146483D01*
X94940Y146475D01*
X94882Y146458D01*
X94824Y146441D01*
X94778Y146416D01*
X94774Y146412D01*
X94762Y146404D01*
X94741Y146383D01*
X94720Y146358D01*
X94703Y146325D01*
X94682Y146283D01*
X94670Y146237D01*
X94666Y146179D01*
Y146171D01*
X94670Y146150D01*
X94674Y146121D01*
X94682Y146083D01*
X94703Y146042D01*
X94728Y146000D01*
X94766Y145954D01*
X94816Y145917D01*
X94824Y145913D01*
X94845Y145900D01*
X94878Y145888D01*
X94924Y145871D01*
X94982Y145851D01*
X95053Y145838D01*
X95136Y145826D01*
X95227Y145821D01*
X96567D01*
Y145214D01*
X94221D01*
Y145821D01*
X94574D01*
X94570Y145826D01*
X94545Y145834D01*
X94512Y145851D01*
X94466Y145871D01*
X94416Y145905D01*
X94366Y145942D01*
X94320Y145988D01*
X94275Y146042D01*
X94271Y146050D01*
X94258Y146071D01*
X94241Y146104D01*
X94221Y146150D01*
X94200Y146204D01*
X94183Y146266D01*
X94171Y146341D01*
X94167Y146420D01*
Y146424D01*
Y146437D01*
Y146454D01*
X94171Y146475D01*
X94175Y146504D01*
X94179Y146537D01*
X94196Y146612D01*
X94221Y146691D01*
X94262Y146778D01*
X94287Y146820D01*
X94316Y146857D01*
X94350Y146895D01*
X94391Y146928D01*
X94395D01*
X94400Y146936D01*
X94416Y146944D01*
X94433Y146953D01*
X94454Y146969D01*
X94483Y146982D01*
X94516Y146999D01*
X94558Y147015D01*
X94599Y147028D01*
X94649Y147044D01*
X94703Y147061D01*
X94762Y147073D01*
X94824Y147082D01*
X94895Y147090D01*
X94969Y147099D01*
X96567D01*
Y146491D01*
D02*
G37*
G36*
X89622Y170863D02*
X86690D01*
X86598Y170854D01*
X86490Y170846D01*
X86373Y170829D01*
X86257Y170796D01*
X86140Y170763D01*
X86049Y170713D01*
X86040Y170704D01*
X86015Y170688D01*
X85974Y170646D01*
X85932Y170596D01*
X85899Y170529D01*
X85857Y170446D01*
X85832Y170354D01*
X85824Y170238D01*
Y170221D01*
X85832Y170180D01*
X85840Y170121D01*
X85857Y170046D01*
X85899Y169955D01*
X85948Y169871D01*
X86023Y169780D01*
X86123Y169705D01*
X86140Y169696D01*
X86173Y169680D01*
X86240Y169647D01*
X86332Y169613D01*
X86448Y169580D01*
X86590Y169546D01*
X86756Y169530D01*
X86940Y169521D01*
X89622D01*
Y168305D01*
X83100D01*
Y169521D01*
X85632D01*
X85624Y169530D01*
X85574Y169546D01*
X85507Y169580D01*
X85415Y169622D01*
X85315Y169688D01*
X85216Y169763D01*
X85124Y169855D01*
X85032Y169963D01*
X85024Y169980D01*
X84999Y170021D01*
X84966Y170088D01*
X84924Y170180D01*
X84882Y170288D01*
X84849Y170413D01*
X84824Y170563D01*
X84816Y170721D01*
Y170729D01*
Y170754D01*
Y170788D01*
X84824Y170829D01*
X84832Y170888D01*
X84841Y170954D01*
X84874Y171104D01*
X84924Y171263D01*
X85007Y171437D01*
X85057Y171521D01*
X85115Y171596D01*
X85182Y171671D01*
X85265Y171737D01*
X85274D01*
X85282Y171754D01*
X85315Y171771D01*
X85349Y171787D01*
X85390Y171821D01*
X85449Y171846D01*
X85515Y171879D01*
X85599Y171912D01*
X85682Y171937D01*
X85782Y171970D01*
X85890Y172004D01*
X86007Y172029D01*
X86132Y172046D01*
X86273Y172062D01*
X86423Y172079D01*
X89622D01*
Y170863D01*
D02*
G37*
G36*
X88023Y167056D02*
X88098Y167048D01*
X88189Y167031D01*
X88289Y167014D01*
X88398Y166998D01*
X88631Y166923D01*
X88747Y166881D01*
X88864Y166823D01*
X88972Y166764D01*
X89089Y166681D01*
X89189Y166598D01*
X89280Y166498D01*
X89289Y166489D01*
X89297Y166473D01*
X89322Y166439D01*
X89355Y166389D01*
X89389Y166331D01*
X89430Y166264D01*
X89472Y166173D01*
X89514Y166081D01*
X89555Y165965D01*
X89597Y165840D01*
X89639Y165698D01*
X89672Y165548D01*
X89705Y165382D01*
X89730Y165207D01*
X89739Y165015D01*
X89747Y164807D01*
Y164798D01*
Y164790D01*
Y164757D01*
Y164723D01*
X89739Y164632D01*
X89730Y164515D01*
X89722Y164374D01*
X89697Y164215D01*
X89672Y164049D01*
X89639Y163874D01*
Y163865D01*
X89630Y163857D01*
Y163832D01*
X89622Y163791D01*
X89589Y163707D01*
X89555Y163591D01*
X89505Y163449D01*
X89455Y163299D01*
X89381Y163141D01*
X89306Y162974D01*
X88023D01*
Y162982D01*
X88039Y162999D01*
X88056Y163024D01*
X88081Y163057D01*
X88114Y163099D01*
X88148Y163157D01*
X88223Y163274D01*
X88306Y163424D01*
X88398Y163582D01*
X88481Y163749D01*
X88556Y163924D01*
Y163932D01*
X88564Y163949D01*
X88573Y163974D01*
X88581Y164007D01*
X88606Y164099D01*
X88639Y164215D01*
X88672Y164349D01*
X88697Y164507D01*
X88714Y164673D01*
X88722Y164840D01*
Y164848D01*
Y164857D01*
Y164882D01*
Y164915D01*
X88714Y164998D01*
X88697Y165098D01*
X88672Y165215D01*
X88639Y165331D01*
X88589Y165448D01*
X88522Y165548D01*
X88514Y165556D01*
X88481Y165590D01*
X88439Y165631D01*
X88372Y165681D01*
X88289Y165723D01*
X88189Y165765D01*
X88073Y165798D01*
X87939Y165806D01*
X87889D01*
X87839Y165798D01*
X87773Y165781D01*
X87698Y165765D01*
X87615Y165731D01*
X87531Y165690D01*
X87448Y165631D01*
X87440Y165623D01*
X87415Y165598D01*
X87373Y165565D01*
X87323Y165506D01*
X87273Y165440D01*
X87215Y165357D01*
X87156Y165257D01*
X87106Y165148D01*
X86882Y164540D01*
X86873Y164532D01*
X86865Y164498D01*
X86848Y164448D01*
X86823Y164390D01*
X86790Y164315D01*
X86748Y164224D01*
X86707Y164132D01*
X86657Y164032D01*
X86540Y163824D01*
X86415Y163616D01*
X86348Y163516D01*
X86273Y163424D01*
X86207Y163341D01*
X86132Y163274D01*
X86123D01*
X86115Y163257D01*
X86090Y163241D01*
X86057Y163224D01*
X86023Y163199D01*
X85974Y163174D01*
X85849Y163116D01*
X85699Y163049D01*
X85524Y162999D01*
X85307Y162966D01*
X85074Y162949D01*
X84991D01*
X84932Y162958D01*
X84866Y162966D01*
X84782Y162974D01*
X84691Y162991D01*
X84591Y163016D01*
X84374Y163082D01*
X84266Y163124D01*
X84149Y163174D01*
X84041Y163241D01*
X83933Y163316D01*
X83833Y163399D01*
X83741Y163491D01*
X83733Y163499D01*
X83716Y163516D01*
X83699Y163549D01*
X83666Y163591D01*
X83624Y163649D01*
X83583Y163716D01*
X83541Y163791D01*
X83491Y163882D01*
X83450Y163982D01*
X83408Y164099D01*
X83366Y164224D01*
X83325Y164357D01*
X83291Y164498D01*
X83275Y164657D01*
X83258Y164815D01*
X83250Y164990D01*
Y164998D01*
Y165007D01*
Y165032D01*
Y165065D01*
X83258Y165148D01*
Y165265D01*
X83275Y165390D01*
X83291Y165540D01*
X83316Y165698D01*
X83350Y165856D01*
Y165865D01*
X83358Y165873D01*
Y165898D01*
X83366Y165931D01*
X83391Y166015D01*
X83425Y166123D01*
X83466Y166256D01*
X83516Y166398D01*
X83574Y166556D01*
X83641Y166714D01*
X84849D01*
Y166706D01*
X84841Y166698D01*
X84807Y166648D01*
X84757Y166564D01*
X84691Y166464D01*
X84624Y166340D01*
X84557Y166198D01*
X84482Y166056D01*
X84424Y165898D01*
Y165890D01*
X84416Y165881D01*
X84408Y165856D01*
X84399Y165831D01*
X84374Y165748D01*
X84349Y165640D01*
X84324Y165523D01*
X84299Y165382D01*
X84282Y165232D01*
X84274Y165082D01*
Y165073D01*
Y165065D01*
Y165040D01*
Y165007D01*
X84282Y164923D01*
X84299Y164823D01*
X84316Y164715D01*
X84349Y164599D01*
X84399Y164490D01*
X84457Y164390D01*
X84466Y164382D01*
X84491Y164357D01*
X84532Y164315D01*
X84591Y164274D01*
X84666Y164232D01*
X84749Y164190D01*
X84857Y164165D01*
X84974Y164157D01*
X85015D01*
X85066Y164165D01*
X85124Y164182D01*
X85190Y164199D01*
X85265Y164224D01*
X85340Y164265D01*
X85407Y164324D01*
X85415Y164332D01*
X85432Y164357D01*
X85474Y164407D01*
X85515Y164482D01*
X85574Y164582D01*
X85632Y164707D01*
X85674Y164782D01*
X85707Y164865D01*
X85740Y164957D01*
X85782Y165057D01*
X85982Y165590D01*
Y165598D01*
X85990Y165623D01*
X86007Y165665D01*
X86032Y165715D01*
X86057Y165773D01*
X86090Y165848D01*
X86173Y166015D01*
X86282Y166198D01*
X86407Y166381D01*
X86548Y166556D01*
X86632Y166631D01*
X86715Y166706D01*
X86723Y166714D01*
X86731Y166723D01*
X86765Y166739D01*
X86798Y166764D01*
X86840Y166789D01*
X86898Y166823D01*
X86956Y166856D01*
X87031Y166889D01*
X87198Y166947D01*
X87390Y167006D01*
X87615Y167048D01*
X87739Y167064D01*
X87956D01*
X88023Y167056D01*
D02*
G37*
G36*
X89622Y173353D02*
X88681D01*
Y174886D01*
X85865D01*
Y173687D01*
X84924D01*
Y176119D01*
X88681D01*
Y177643D01*
X89622D01*
Y173353D01*
D02*
G37*
G36*
X87673Y179559D02*
X87723D01*
X87764Y179568D01*
X87864Y179576D01*
X87989Y179601D01*
X88123Y179634D01*
X88256Y179692D01*
X88389Y179767D01*
X88506Y179876D01*
X88514Y179892D01*
X88547Y179934D01*
X88589Y180009D01*
X88639Y180117D01*
X88689Y180251D01*
X88731Y180417D01*
X88764Y180617D01*
X88772Y180842D01*
Y180850D01*
Y180859D01*
Y180884D01*
Y180917D01*
X88764Y181000D01*
X88756Y181108D01*
X88747Y181234D01*
X88722Y181375D01*
X88697Y181525D01*
X88656Y181675D01*
Y181683D01*
X88647Y181692D01*
X88639Y181717D01*
X88631Y181750D01*
X88606Y181833D01*
X88564Y181941D01*
X88514Y182067D01*
X88447Y182216D01*
X88364Y182375D01*
X88273Y182541D01*
X89397D01*
Y182533D01*
X89406Y182525D01*
X89414Y182500D01*
X89422Y182466D01*
X89455Y182383D01*
X89497Y182266D01*
X89539Y182141D01*
X89580Y181992D01*
X89622Y181833D01*
X89655Y181667D01*
Y181658D01*
Y181650D01*
X89664Y181625D01*
X89672Y181592D01*
X89680Y181500D01*
X89697Y181383D01*
X89714Y181242D01*
X89730Y181084D01*
X89739Y180909D01*
X89747Y180725D01*
Y180709D01*
Y180675D01*
X89739Y180617D01*
Y180534D01*
X89730Y180434D01*
X89714Y180317D01*
X89697Y180192D01*
X89672Y180059D01*
X89639Y179917D01*
X89597Y179767D01*
X89547Y179618D01*
X89480Y179467D01*
X89414Y179326D01*
X89331Y179184D01*
X89231Y179051D01*
X89122Y178926D01*
X89114Y178918D01*
X89089Y178901D01*
X89056Y178868D01*
X89006Y178826D01*
X88939Y178785D01*
X88856Y178735D01*
X88764Y178676D01*
X88656Y178618D01*
X88539Y178560D01*
X88398Y178501D01*
X88248Y178451D01*
X88089Y178410D01*
X87914Y178368D01*
X87723Y178335D01*
X87523Y178318D01*
X87306Y178310D01*
X87198D01*
X87115Y178318D01*
X87023Y178326D01*
X86906Y178343D01*
X86782Y178360D01*
X86648Y178385D01*
X86507Y178418D01*
X86357Y178451D01*
X86207Y178501D01*
X86057Y178560D01*
X85907Y178626D01*
X85757Y178709D01*
X85624Y178801D01*
X85490Y178901D01*
X85482Y178909D01*
X85457Y178926D01*
X85424Y178959D01*
X85382Y179009D01*
X85332Y179076D01*
X85274Y179143D01*
X85216Y179234D01*
X85149Y179334D01*
X85091Y179443D01*
X85032Y179568D01*
X84974Y179701D01*
X84924Y179851D01*
X84874Y180001D01*
X84841Y180176D01*
X84824Y180350D01*
X84816Y180542D01*
Y180550D01*
Y180592D01*
Y180642D01*
X84824Y180717D01*
X84832Y180800D01*
X84849Y180900D01*
X84866Y181017D01*
X84891Y181133D01*
X84924Y181258D01*
X84966Y181392D01*
X85015Y181525D01*
X85082Y181667D01*
X85149Y181800D01*
X85232Y181925D01*
X85332Y182042D01*
X85440Y182158D01*
X85449Y182167D01*
X85465Y182183D01*
X85507Y182208D01*
X85557Y182250D01*
X85615Y182291D01*
X85690Y182341D01*
X85782Y182400D01*
X85890Y182450D01*
X86007Y182508D01*
X86132Y182558D01*
X86273Y182608D01*
X86432Y182650D01*
X86598Y182691D01*
X86782Y182716D01*
X86973Y182733D01*
X87173Y182741D01*
X87673D01*
Y179559D01*
D02*
G37*
G36*
X84074Y174886D02*
X82642D01*
Y176119D01*
X84074D01*
Y174886D01*
D02*
G37*
G36*
X89622Y155485D02*
X89106D01*
X89122Y155477D01*
X89156Y155444D01*
X89214Y155394D01*
X89280Y155327D01*
X89355Y155244D01*
X89439Y155152D01*
X89514Y155036D01*
X89580Y154911D01*
X89589Y154894D01*
X89605Y154852D01*
X89630Y154777D01*
X89664Y154686D01*
X89697Y154569D01*
X89722Y154444D01*
X89739Y154294D01*
X89747Y154144D01*
Y154136D01*
Y154111D01*
Y154069D01*
X89739Y154011D01*
X89730Y153944D01*
X89722Y153869D01*
X89714Y153778D01*
X89697Y153686D01*
X89647Y153486D01*
X89572Y153278D01*
X89522Y153178D01*
X89464Y153078D01*
X89406Y152987D01*
X89331Y152895D01*
X89322Y152886D01*
X89314Y152878D01*
X89289Y152853D01*
X89255Y152828D01*
X89205Y152795D01*
X89156Y152753D01*
X89097Y152712D01*
X89022Y152678D01*
X88939Y152637D01*
X88856Y152595D01*
X88756Y152553D01*
X88647Y152520D01*
X88531Y152495D01*
X88414Y152470D01*
X88281Y152462D01*
X88139Y152453D01*
X88064D01*
X88006Y152462D01*
X87939Y152470D01*
X87856Y152478D01*
X87681Y152520D01*
X87490Y152578D01*
X87381Y152628D01*
X87281Y152678D01*
X87190Y152737D01*
X87098Y152803D01*
X87006Y152886D01*
X86931Y152978D01*
X86923Y152987D01*
X86915Y153003D01*
X86898Y153036D01*
X86865Y153078D01*
X86840Y153136D01*
X86806Y153203D01*
X86765Y153286D01*
X86731Y153386D01*
X86690Y153495D01*
X86657Y153611D01*
X86623Y153753D01*
X86590Y153903D01*
X86565Y154061D01*
X86548Y154236D01*
X86540Y154428D01*
X86532Y154628D01*
Y155485D01*
X86282D01*
X86232Y155477D01*
X86165Y155461D01*
X86090Y155436D01*
X86015Y155394D01*
X85940Y155344D01*
X85882Y155269D01*
X85874Y155261D01*
X85857Y155227D01*
X85832Y155177D01*
X85799Y155111D01*
X85774Y155019D01*
X85749Y154911D01*
X85732Y154777D01*
X85724Y154628D01*
Y154619D01*
Y154611D01*
Y154586D01*
Y154552D01*
X85732Y154469D01*
X85740Y154353D01*
X85749Y154228D01*
X85774Y154078D01*
X85799Y153928D01*
X85840Y153770D01*
Y153761D01*
X85849Y153753D01*
Y153728D01*
X85857Y153703D01*
X85890Y153620D01*
X85923Y153511D01*
X85974Y153386D01*
X86032Y153236D01*
X86107Y153086D01*
X86190Y152920D01*
X85141D01*
Y152928D01*
X85132Y152936D01*
X85115Y152987D01*
X85082Y153070D01*
X85049Y153170D01*
X85007Y153295D01*
X84966Y153436D01*
X84932Y153578D01*
X84899Y153736D01*
Y153744D01*
Y153753D01*
X84891Y153778D01*
X84882Y153811D01*
X84874Y153894D01*
X84857Y154011D01*
X84841Y154144D01*
X84832Y154294D01*
X84816Y154453D01*
Y154628D01*
Y154644D01*
Y154677D01*
Y154736D01*
X84824Y154811D01*
X84832Y154911D01*
X84841Y155011D01*
X84857Y155127D01*
X84874Y155261D01*
X84932Y155519D01*
X85015Y155785D01*
X85066Y155910D01*
X85124Y156035D01*
X85199Y156143D01*
X85282Y156235D01*
X85290Y156244D01*
X85307Y156252D01*
X85332Y156277D01*
X85374Y156310D01*
X85424Y156343D01*
X85490Y156385D01*
X85574Y156427D01*
X85665Y156468D01*
X85774Y156510D01*
X85890Y156552D01*
X86032Y156593D01*
X86182Y156627D01*
X86348Y156660D01*
X86532Y156685D01*
X86731Y156693D01*
X86948Y156702D01*
X89622D01*
Y155485D01*
D02*
G37*
G36*
Y134794D02*
X89106D01*
X89122Y134785D01*
X89156Y134752D01*
X89214Y134702D01*
X89280Y134635D01*
X89355Y134552D01*
X89439Y134460D01*
X89514Y134344D01*
X89580Y134219D01*
X89589Y134202D01*
X89605Y134161D01*
X89630Y134086D01*
X89664Y133994D01*
X89697Y133877D01*
X89722Y133753D01*
X89739Y133602D01*
X89747Y133453D01*
Y133444D01*
Y133419D01*
Y133378D01*
X89739Y133319D01*
X89730Y133253D01*
X89722Y133178D01*
X89714Y133086D01*
X89697Y132994D01*
X89647Y132794D01*
X89572Y132586D01*
X89522Y132486D01*
X89464Y132386D01*
X89406Y132295D01*
X89331Y132203D01*
X89322Y132195D01*
X89314Y132186D01*
X89289Y132161D01*
X89255Y132136D01*
X89205Y132103D01*
X89156Y132062D01*
X89097Y132020D01*
X89022Y131986D01*
X88939Y131945D01*
X88856Y131903D01*
X88756Y131862D01*
X88647Y131828D01*
X88531Y131803D01*
X88414Y131778D01*
X88281Y131770D01*
X88139Y131762D01*
X88064D01*
X88006Y131770D01*
X87939Y131778D01*
X87856Y131787D01*
X87681Y131828D01*
X87490Y131887D01*
X87381Y131937D01*
X87281Y131986D01*
X87190Y132045D01*
X87098Y132112D01*
X87006Y132195D01*
X86931Y132286D01*
X86923Y132295D01*
X86915Y132311D01*
X86898Y132345D01*
X86865Y132386D01*
X86840Y132445D01*
X86806Y132511D01*
X86765Y132595D01*
X86731Y132695D01*
X86690Y132803D01*
X86657Y132920D01*
X86623Y133061D01*
X86590Y133211D01*
X86565Y133369D01*
X86548Y133544D01*
X86540Y133736D01*
X86532Y133936D01*
Y134794D01*
X86282D01*
X86232Y134785D01*
X86165Y134769D01*
X86090Y134744D01*
X86015Y134702D01*
X85940Y134652D01*
X85882Y134577D01*
X85874Y134569D01*
X85857Y134536D01*
X85832Y134485D01*
X85799Y134419D01*
X85774Y134327D01*
X85749Y134219D01*
X85732Y134086D01*
X85724Y133936D01*
Y133927D01*
Y133919D01*
Y133894D01*
Y133861D01*
X85732Y133777D01*
X85740Y133661D01*
X85749Y133536D01*
X85774Y133386D01*
X85799Y133236D01*
X85840Y133078D01*
Y133069D01*
X85849Y133061D01*
Y133036D01*
X85857Y133011D01*
X85890Y132928D01*
X85923Y132819D01*
X85974Y132695D01*
X86032Y132545D01*
X86107Y132395D01*
X86190Y132228D01*
X85141D01*
Y132236D01*
X85132Y132245D01*
X85115Y132295D01*
X85082Y132378D01*
X85049Y132478D01*
X85007Y132603D01*
X84966Y132745D01*
X84932Y132886D01*
X84899Y133044D01*
Y133053D01*
Y133061D01*
X84891Y133086D01*
X84882Y133119D01*
X84874Y133203D01*
X84857Y133319D01*
X84841Y133453D01*
X84832Y133602D01*
X84816Y133761D01*
Y133936D01*
Y133952D01*
Y133986D01*
Y134044D01*
X84824Y134119D01*
X84832Y134219D01*
X84841Y134319D01*
X84857Y134435D01*
X84874Y134569D01*
X84932Y134827D01*
X85015Y135094D01*
X85066Y135219D01*
X85124Y135344D01*
X85199Y135452D01*
X85282Y135543D01*
X85290Y135552D01*
X85307Y135560D01*
X85332Y135585D01*
X85374Y135618D01*
X85424Y135652D01*
X85490Y135693D01*
X85574Y135735D01*
X85665Y135777D01*
X85774Y135818D01*
X85890Y135860D01*
X86032Y135902D01*
X86182Y135935D01*
X86348Y135968D01*
X86532Y135993D01*
X86731Y136002D01*
X86948Y136010D01*
X89622D01*
Y134794D01*
D02*
G37*
G36*
X89455Y130720D02*
X89472Y130687D01*
X89497Y130629D01*
X89530Y130545D01*
X89564Y130454D01*
X89605Y130345D01*
X89639Y130229D01*
X89672Y130112D01*
Y130096D01*
X89680Y130054D01*
X89697Y129996D01*
X89705Y129912D01*
X89722Y129812D01*
X89739Y129696D01*
X89747Y129571D01*
Y129438D01*
Y129421D01*
Y129379D01*
X89739Y129313D01*
X89730Y129229D01*
X89722Y129121D01*
X89705Y129004D01*
X89680Y128871D01*
X89639Y128721D01*
X89597Y128571D01*
X89547Y128413D01*
X89472Y128246D01*
X89397Y128088D01*
X89297Y127930D01*
X89189Y127780D01*
X89064Y127638D01*
X88914Y127505D01*
X88906Y127497D01*
X88872Y127480D01*
X88822Y127447D01*
X88756Y127405D01*
X88672Y127347D01*
X88564Y127297D01*
X88439Y127230D01*
X88298Y127172D01*
X88139Y127113D01*
X87956Y127047D01*
X87764Y126997D01*
X87548Y126947D01*
X87315Y126897D01*
X87065Y126864D01*
X86790Y126847D01*
X86507Y126839D01*
X86440D01*
X86357Y126847D01*
X86248D01*
X86115Y126855D01*
X85965Y126872D01*
X85790Y126897D01*
X85607Y126922D01*
X85415Y126955D01*
X85224Y127005D01*
X85024Y127055D01*
X84816Y127122D01*
X84624Y127197D01*
X84432Y127288D01*
X84258Y127388D01*
X84091Y127505D01*
X84083Y127513D01*
X84058Y127538D01*
X84016Y127572D01*
X83958Y127630D01*
X83899Y127697D01*
X83824Y127780D01*
X83749Y127880D01*
X83666Y127997D01*
X83591Y128130D01*
X83516Y128271D01*
X83441Y128430D01*
X83383Y128604D01*
X83325Y128788D01*
X83283Y128988D01*
X83258Y129204D01*
X83250Y129438D01*
Y129446D01*
Y129454D01*
Y129496D01*
Y129571D01*
X83258Y129654D01*
X83266Y129762D01*
X83283Y129879D01*
X83325Y130121D01*
Y130137D01*
X83341Y130179D01*
X83358Y130237D01*
X83383Y130321D01*
X83416Y130412D01*
X83450Y130520D01*
X83549Y130737D01*
X84924D01*
X84907Y130720D01*
X84874Y130679D01*
X84824Y130620D01*
X84757Y130537D01*
X84691Y130446D01*
X84624Y130337D01*
X84557Y130229D01*
X84499Y130112D01*
X84491Y130096D01*
X84474Y130062D01*
X84457Y130004D01*
X84424Y129921D01*
X84399Y129829D01*
X84382Y129729D01*
X84366Y129613D01*
X84358Y129496D01*
Y129488D01*
Y129463D01*
Y129429D01*
X84366Y129388D01*
X84374Y129329D01*
X84382Y129263D01*
X84424Y129113D01*
X84491Y128946D01*
X84532Y128863D01*
X84582Y128779D01*
X84649Y128696D01*
X84724Y128613D01*
X84807Y128538D01*
X84899Y128471D01*
X84907D01*
X84924Y128455D01*
X84957Y128438D01*
X84999Y128421D01*
X85057Y128396D01*
X85124Y128363D01*
X85207Y128330D01*
X85299Y128305D01*
X85407Y128271D01*
X85532Y128238D01*
X85657Y128213D01*
X85807Y128180D01*
X85965Y128163D01*
X86132Y128146D01*
X86315Y128130D01*
X86607D01*
X86682Y128138D01*
X86765D01*
X86873Y128146D01*
X86981Y128155D01*
X87106Y128171D01*
X87365Y128213D01*
X87631Y128271D01*
X87881Y128355D01*
X87998Y128413D01*
X88106Y128471D01*
X88114Y128480D01*
X88131Y128488D01*
X88156Y128505D01*
X88189Y128538D01*
X88273Y128621D01*
X88372Y128729D01*
X88472Y128879D01*
X88556Y129054D01*
X88589Y129154D01*
X88614Y129254D01*
X88631Y129371D01*
X88639Y129496D01*
Y129513D01*
Y129554D01*
X88631Y129613D01*
X88622Y129696D01*
X88606Y129787D01*
X88581Y129887D01*
X88547Y130004D01*
X88506Y130112D01*
X88498Y130129D01*
X88481Y130162D01*
X88447Y130221D01*
X88398Y130304D01*
X88339Y130395D01*
X88264Y130504D01*
X88181Y130620D01*
X88073Y130737D01*
X89447D01*
X89455Y130720D01*
D02*
G37*
G36*
X89622Y140383D02*
X86440D01*
X86332Y140375D01*
X86215Y140366D01*
X86098Y140350D01*
X85998Y140325D01*
X85915Y140300D01*
X85907D01*
X85890Y140283D01*
X85857Y140267D01*
X85824Y140233D01*
X85790Y140192D01*
X85757Y140142D01*
X85740Y140083D01*
X85732Y140008D01*
Y140000D01*
Y139975D01*
X85740Y139942D01*
X85757Y139892D01*
X85774Y139850D01*
X85807Y139800D01*
X85857Y139750D01*
X85915Y139717D01*
X85923D01*
X85948Y139700D01*
X85998Y139692D01*
X86073Y139675D01*
X86165Y139658D01*
X86290Y139650D01*
X86440Y139634D01*
X89622D01*
Y138642D01*
X86532D01*
X86440Y138634D01*
X86332D01*
X86215Y138617D01*
X86098Y138601D01*
X85998Y138584D01*
X85915Y138551D01*
X85907D01*
X85890Y138534D01*
X85857Y138517D01*
X85824Y138484D01*
X85790Y138442D01*
X85757Y138392D01*
X85740Y138334D01*
X85732Y138259D01*
Y138251D01*
Y138226D01*
X85740Y138192D01*
X85757Y138142D01*
X85774Y138101D01*
X85807Y138051D01*
X85857Y138001D01*
X85915Y137968D01*
X85923D01*
X85948Y137959D01*
X85998Y137943D01*
X86065Y137934D01*
X86165Y137917D01*
X86282Y137901D01*
X86432Y137892D01*
X89622D01*
Y136885D01*
X84924D01*
Y137776D01*
X85415D01*
X85407Y137784D01*
X85374Y137793D01*
X85324Y137818D01*
X85257Y137859D01*
X85190Y137901D01*
X85115Y137959D01*
X85049Y138026D01*
X84982Y138109D01*
X84974Y138117D01*
X84957Y138151D01*
X84932Y138201D01*
X84899Y138259D01*
X84866Y138334D01*
X84841Y138426D01*
X84824Y138526D01*
X84816Y138626D01*
Y138642D01*
Y138675D01*
X84824Y138725D01*
X84841Y138801D01*
X84857Y138875D01*
X84891Y138967D01*
X84932Y139050D01*
X84991Y139142D01*
X84999Y139150D01*
X85024Y139184D01*
X85057Y139225D01*
X85107Y139267D01*
X85166Y139317D01*
X85232Y139367D01*
X85315Y139409D01*
X85399Y139434D01*
X85382Y139442D01*
X85349Y139459D01*
X85299Y139492D01*
X85232Y139533D01*
X85166Y139584D01*
X85091Y139642D01*
X85024Y139708D01*
X84966Y139783D01*
X84957Y139792D01*
X84941Y139825D01*
X84916Y139867D01*
X84891Y139933D01*
X84866Y140008D01*
X84841Y140100D01*
X84824Y140200D01*
X84816Y140308D01*
Y140316D01*
Y140333D01*
Y140366D01*
X84824Y140408D01*
X84832Y140458D01*
X84841Y140516D01*
X84866Y140650D01*
X84916Y140783D01*
X84991Y140925D01*
X85040Y140991D01*
X85099Y141058D01*
X85166Y141108D01*
X85241Y141158D01*
X85249D01*
X85257Y141166D01*
X85290Y141183D01*
X85324Y141191D01*
X85374Y141216D01*
X85440Y141233D01*
X85524Y141250D01*
X85615Y141274D01*
X85724Y141299D01*
X85849Y141316D01*
X85990Y141341D01*
X86148Y141358D01*
X86332Y141366D01*
X86523Y141383D01*
X86740Y141391D01*
X89622D01*
Y140383D01*
D02*
G37*
G36*
X86215Y151712D02*
X86190Y151687D01*
X86157Y151637D01*
X86123Y151587D01*
X86073Y151512D01*
X86032Y151429D01*
X85990Y151346D01*
X85948Y151245D01*
X85940Y151237D01*
X85932Y151196D01*
X85915Y151146D01*
X85899Y151071D01*
X85882Y150987D01*
X85874Y150887D01*
X85857Y150771D01*
Y150654D01*
Y150646D01*
Y150637D01*
Y150587D01*
X85865Y150512D01*
X85874Y150421D01*
X85890Y150312D01*
X85915Y150204D01*
X85948Y150088D01*
X85998Y149971D01*
X86007Y149954D01*
X86023Y149921D01*
X86057Y149871D01*
X86098Y149804D01*
X86148Y149729D01*
X86223Y149654D01*
X86298Y149588D01*
X86390Y149521D01*
X86398D01*
X86415Y149504D01*
X86448Y149488D01*
X86498Y149463D01*
X86557Y149446D01*
X86623Y149421D01*
X86698Y149396D01*
X86782Y149380D01*
X86790D01*
X86823Y149371D01*
X86873D01*
X86948Y149363D01*
X87048Y149355D01*
X87165D01*
X87306Y149346D01*
X89622D01*
Y148113D01*
X84924D01*
Y149346D01*
X85657D01*
X85649Y149355D01*
X85599Y149380D01*
X85524Y149421D01*
X85432Y149479D01*
X85332Y149555D01*
X85232Y149654D01*
X85132Y149763D01*
X85040Y149896D01*
Y149904D01*
X85032Y149913D01*
X85007Y149963D01*
X84966Y150038D01*
X84924Y150146D01*
X84891Y150271D01*
X84849Y150421D01*
X84824Y150587D01*
X84816Y150762D01*
Y150771D01*
Y150804D01*
Y150854D01*
X84824Y150921D01*
X84832Y150996D01*
X84841Y151079D01*
X84882Y151254D01*
Y151262D01*
X84891Y151295D01*
X84907Y151346D01*
X84924Y151404D01*
X84949Y151470D01*
X84982Y151554D01*
X85057Y151720D01*
X86223D01*
X86215Y151712D01*
D02*
G37*
G36*
X87673Y143349D02*
X87723D01*
X87764Y143357D01*
X87864Y143365D01*
X87989Y143390D01*
X88123Y143424D01*
X88256Y143482D01*
X88389Y143557D01*
X88506Y143665D01*
X88514Y143682D01*
X88547Y143723D01*
X88589Y143798D01*
X88639Y143907D01*
X88689Y144040D01*
X88731Y144207D01*
X88764Y144407D01*
X88772Y144632D01*
Y144640D01*
Y144648D01*
Y144673D01*
Y144706D01*
X88764Y144790D01*
X88756Y144898D01*
X88747Y145023D01*
X88722Y145165D01*
X88697Y145315D01*
X88656Y145465D01*
Y145473D01*
X88647Y145481D01*
X88639Y145506D01*
X88631Y145539D01*
X88606Y145623D01*
X88564Y145731D01*
X88514Y145856D01*
X88447Y146006D01*
X88364Y146164D01*
X88273Y146331D01*
X89397D01*
Y146323D01*
X89406Y146314D01*
X89414Y146289D01*
X89422Y146256D01*
X89455Y146172D01*
X89497Y146056D01*
X89539Y145931D01*
X89580Y145781D01*
X89622Y145623D01*
X89655Y145456D01*
Y145448D01*
Y145440D01*
X89664Y145414D01*
X89672Y145381D01*
X89680Y145290D01*
X89697Y145173D01*
X89714Y145031D01*
X89730Y144873D01*
X89739Y144698D01*
X89747Y144515D01*
Y144498D01*
Y144465D01*
X89739Y144407D01*
Y144323D01*
X89730Y144223D01*
X89714Y144107D01*
X89697Y143982D01*
X89672Y143849D01*
X89639Y143707D01*
X89597Y143557D01*
X89547Y143407D01*
X89480Y143257D01*
X89414Y143115D01*
X89331Y142974D01*
X89231Y142841D01*
X89122Y142716D01*
X89114Y142707D01*
X89089Y142691D01*
X89056Y142657D01*
X89006Y142616D01*
X88939Y142574D01*
X88856Y142524D01*
X88764Y142466D01*
X88656Y142407D01*
X88539Y142349D01*
X88398Y142291D01*
X88248Y142241D01*
X88089Y142199D01*
X87914Y142157D01*
X87723Y142124D01*
X87523Y142107D01*
X87306Y142099D01*
X87198D01*
X87115Y142107D01*
X87023Y142116D01*
X86906Y142132D01*
X86782Y142149D01*
X86648Y142174D01*
X86507Y142207D01*
X86357Y142241D01*
X86207Y142291D01*
X86057Y142349D01*
X85907Y142416D01*
X85757Y142499D01*
X85624Y142591D01*
X85490Y142691D01*
X85482Y142699D01*
X85457Y142716D01*
X85424Y142749D01*
X85382Y142799D01*
X85332Y142866D01*
X85274Y142932D01*
X85216Y143024D01*
X85149Y143124D01*
X85091Y143232D01*
X85032Y143357D01*
X84974Y143490D01*
X84924Y143640D01*
X84874Y143790D01*
X84841Y143965D01*
X84824Y144140D01*
X84816Y144332D01*
Y144340D01*
Y144382D01*
Y144431D01*
X84824Y144507D01*
X84832Y144590D01*
X84849Y144690D01*
X84866Y144806D01*
X84891Y144923D01*
X84924Y145048D01*
X84966Y145181D01*
X85015Y145315D01*
X85082Y145456D01*
X85149Y145589D01*
X85232Y145714D01*
X85332Y145831D01*
X85440Y145948D01*
X85449Y145956D01*
X85465Y145973D01*
X85507Y145998D01*
X85557Y146039D01*
X85615Y146081D01*
X85690Y146131D01*
X85782Y146189D01*
X85890Y146239D01*
X86007Y146298D01*
X86132Y146347D01*
X86273Y146397D01*
X86432Y146439D01*
X86598Y146481D01*
X86782Y146506D01*
X86973Y146522D01*
X87173Y146531D01*
X87673D01*
Y143349D01*
D02*
G37*
G36*
X95964Y139336D02*
X95993Y139332D01*
X96030Y139328D01*
X96109Y139311D01*
X96197Y139282D01*
X96242Y139261D01*
X96288Y139240D01*
X96334Y139211D01*
X96376Y139178D01*
X96413Y139140D01*
X96451Y139099D01*
Y139095D01*
X96459Y139086D01*
X96467Y139074D01*
X96480Y139053D01*
X96492Y139028D01*
X96509Y138999D01*
X96521Y138962D01*
X96538Y138920D01*
X96554Y138874D01*
X96571Y138820D01*
X96588Y138762D01*
X96600Y138695D01*
X96613Y138629D01*
X96621Y138550D01*
X96625Y138471D01*
X96629Y138383D01*
Y138379D01*
Y138375D01*
Y138362D01*
Y138346D01*
X96625Y138304D01*
Y138250D01*
X96621Y138184D01*
X96613Y138109D01*
X96604Y138030D01*
X96592Y137946D01*
Y137942D01*
Y137938D01*
X96588Y137926D01*
X96584Y137909D01*
X96575Y137863D01*
X96567Y137809D01*
X96550Y137743D01*
X96534Y137668D01*
X96509Y137584D01*
X96484Y137501D01*
X95947D01*
Y137505D01*
X95951Y137510D01*
X95968Y137535D01*
X95989Y137576D01*
X96014Y137626D01*
X96043Y137689D01*
X96072Y137759D01*
X96101Y137834D01*
X96126Y137913D01*
Y137917D01*
X96130Y137922D01*
Y137934D01*
X96134Y137951D01*
X96143Y137992D01*
X96155Y138042D01*
X96168Y138104D01*
X96176Y138175D01*
X96180Y138246D01*
X96184Y138321D01*
Y138325D01*
Y138329D01*
Y138358D01*
X96180Y138396D01*
X96176Y138442D01*
X96168Y138496D01*
X96159Y138550D01*
X96143Y138604D01*
X96122Y138649D01*
X96118Y138654D01*
X96109Y138666D01*
X96097Y138687D01*
X96076Y138708D01*
X96051Y138724D01*
X96018Y138745D01*
X95985Y138758D01*
X95943Y138762D01*
X95922D01*
X95901Y138758D01*
X95876Y138753D01*
X95843Y138741D01*
X95814Y138728D01*
X95785Y138708D01*
X95760Y138683D01*
X95756Y138679D01*
X95747Y138666D01*
X95735Y138641D01*
X95718Y138608D01*
X95702Y138554D01*
X95689Y138525D01*
X95677Y138491D01*
X95664Y138450D01*
X95652Y138408D01*
X95639Y138358D01*
X95627Y138304D01*
X95589Y138134D01*
Y138129D01*
X95585Y138117D01*
X95581Y138100D01*
X95573Y138075D01*
X95564Y138046D01*
X95556Y138013D01*
X95527Y137938D01*
X95494Y137855D01*
X95452Y137772D01*
X95398Y137693D01*
X95369Y137655D01*
X95340Y137622D01*
X95331Y137614D01*
X95306Y137597D01*
X95269Y137572D01*
X95219Y137543D01*
X95152Y137514D01*
X95078Y137489D01*
X94986Y137472D01*
X94886Y137464D01*
X94853D01*
X94828Y137468D01*
X94803Y137472D01*
X94770Y137476D01*
X94691Y137493D01*
X94608Y137522D01*
X94562Y137543D01*
X94520Y137568D01*
X94475Y137597D01*
X94433Y137630D01*
X94395Y137668D01*
X94358Y137709D01*
X94354Y137714D01*
X94350Y137722D01*
X94341Y137734D01*
X94329Y137755D01*
X94312Y137780D01*
X94296Y137809D01*
X94279Y137847D01*
X94262Y137888D01*
X94246Y137934D01*
X94229Y137984D01*
X94212Y138042D01*
X94196Y138104D01*
X94183Y138167D01*
X94175Y138242D01*
X94167Y138317D01*
Y138396D01*
Y138400D01*
Y138404D01*
Y138429D01*
Y138471D01*
X94171Y138521D01*
X94175Y138583D01*
X94179Y138649D01*
X94187Y138720D01*
X94200Y138795D01*
Y138799D01*
Y138803D01*
X94204Y138828D01*
X94212Y138870D01*
X94225Y138920D01*
X94237Y138978D01*
X94254Y139045D01*
X94296Y139182D01*
X94832D01*
X94828Y139174D01*
X94816Y139153D01*
X94795Y139120D01*
X94770Y139074D01*
X94745Y139020D01*
X94720Y138957D01*
X94691Y138895D01*
X94670Y138824D01*
X94666Y138816D01*
X94662Y138791D01*
X94653Y138758D01*
X94641Y138712D01*
X94628Y138654D01*
X94620Y138591D01*
X94616Y138525D01*
X94612Y138458D01*
Y138454D01*
Y138450D01*
Y138425D01*
X94616Y138387D01*
X94620Y138342D01*
X94628Y138292D01*
X94637Y138238D01*
X94653Y138188D01*
X94674Y138146D01*
X94678Y138142D01*
X94687Y138129D01*
X94699Y138113D01*
X94716Y138096D01*
X94741Y138075D01*
X94774Y138059D01*
X94807Y138046D01*
X94849Y138042D01*
X94857D01*
X94878Y138050D01*
X94907Y138067D01*
X94928Y138080D01*
X94949Y138100D01*
X94969Y138121D01*
X94990Y138150D01*
X95015Y138188D01*
X95036Y138233D01*
X95061Y138283D01*
X95082Y138342D01*
X95103Y138412D01*
X95123Y138491D01*
X95132Y138512D01*
X95173Y138691D01*
Y138695D01*
X95178Y138708D01*
X95182Y138724D01*
X95190Y138745D01*
X95198Y138774D01*
X95207Y138803D01*
X95236Y138878D01*
X95269Y138957D01*
X95315Y139041D01*
X95369Y139115D01*
X95431Y139182D01*
X95440Y139190D01*
X95464Y139207D01*
X95502Y139232D01*
X95556Y139261D01*
X95623Y139290D01*
X95706Y139315D01*
X95797Y139332D01*
X95906Y139340D01*
X95939D01*
X95964Y139336D01*
D02*
G37*
G36*
X93796Y135584D02*
X93081D01*
Y136199D01*
X93796D01*
Y135584D01*
D02*
G37*
G36*
X96567Y139985D02*
X96097D01*
Y140750D01*
X94691D01*
Y140151D01*
X94221D01*
Y141366D01*
X96097D01*
Y142127D01*
X96567D01*
Y139985D01*
D02*
G37*
G36*
X95494Y144640D02*
X95539Y144636D01*
X95598Y144627D01*
X95656Y144619D01*
X95723Y144607D01*
X95793Y144590D01*
X95868Y144573D01*
X95943Y144548D01*
X96018Y144519D01*
X96093Y144486D01*
X96168Y144444D01*
X96234Y144403D01*
X96301Y144349D01*
X96305Y144344D01*
X96313Y144336D01*
X96330Y144320D01*
X96351Y144295D01*
X96376Y144265D01*
X96405Y144228D01*
X96434Y144186D01*
X96463Y144141D01*
X96496Y144087D01*
X96525Y144024D01*
X96554Y143962D01*
X96579Y143891D01*
X96600Y143812D01*
X96617Y143733D01*
X96625Y143646D01*
X96629Y143554D01*
Y143550D01*
Y143533D01*
X96625Y143508D01*
Y143471D01*
X96621Y143429D01*
X96613Y143384D01*
X96600Y143330D01*
X96588Y143271D01*
X96571Y143209D01*
X96550Y143142D01*
X96521Y143080D01*
X96492Y143013D01*
X96455Y142947D01*
X96409Y142884D01*
X96359Y142822D01*
X96301Y142764D01*
X96297Y142760D01*
X96284Y142751D01*
X96267Y142739D01*
X96238Y142718D01*
X96205Y142697D01*
X96163Y142672D01*
X96118Y142647D01*
X96064Y142618D01*
X96001Y142593D01*
X95935Y142564D01*
X95860Y142539D01*
X95781Y142518D01*
X95693Y142498D01*
X95602Y142485D01*
X95502Y142477D01*
X95398Y142473D01*
X95344D01*
X95302Y142477D01*
X95257Y142481D01*
X95202Y142489D01*
X95140Y142498D01*
X95073Y142510D01*
X95003Y142523D01*
X94928Y142543D01*
X94857Y142568D01*
X94778Y142597D01*
X94707Y142631D01*
X94633Y142668D01*
X94566Y142714D01*
X94499Y142764D01*
X94495Y142768D01*
X94487Y142776D01*
X94470Y142793D01*
X94445Y142818D01*
X94420Y142847D01*
X94395Y142884D01*
X94362Y142926D01*
X94333Y142972D01*
X94304Y143026D01*
X94271Y143088D01*
X94246Y143151D01*
X94217Y143221D01*
X94196Y143296D01*
X94179Y143379D01*
X94171Y143463D01*
X94167Y143554D01*
Y143558D01*
Y143575D01*
Y143604D01*
X94171Y143637D01*
X94175Y143679D01*
X94183Y143729D01*
X94196Y143783D01*
X94208Y143841D01*
X94225Y143904D01*
X94246Y143966D01*
X94275Y144033D01*
X94308Y144099D01*
X94345Y144166D01*
X94391Y144228D01*
X94441Y144290D01*
X94499Y144349D01*
X94504Y144353D01*
X94516Y144361D01*
X94533Y144378D01*
X94562Y144395D01*
X94595Y144415D01*
X94633Y144440D01*
X94682Y144469D01*
X94736Y144499D01*
X94799Y144523D01*
X94866Y144553D01*
X94940Y144578D01*
X95019Y144598D01*
X95107Y144615D01*
X95198Y144632D01*
X95294Y144640D01*
X95398Y144644D01*
X95452D01*
X95494Y144640D01*
D02*
G37*
G36*
X93796Y140750D02*
X93081D01*
Y141366D01*
X93796D01*
Y140750D01*
D02*
G37*
G36*
X96567Y134818D02*
X96097D01*
Y135584D01*
X94691D01*
Y134985D01*
X94221D01*
Y136199D01*
X96097D01*
Y136960D01*
X96567D01*
Y134818D01*
D02*
G37*
G36*
X89622Y191588D02*
X88939D01*
X88947Y191579D01*
X88997Y191554D01*
X89072Y191504D01*
X89164Y191446D01*
X89264Y191371D01*
X89364Y191288D01*
X89464Y191188D01*
X89547Y191071D01*
X89555Y191055D01*
X89580Y191013D01*
X89614Y190955D01*
X89647Y190863D01*
X89680Y190755D01*
X89714Y190630D01*
X89739Y190488D01*
X89747Y190338D01*
Y190330D01*
Y190305D01*
X89739Y190263D01*
Y190205D01*
X89730Y190138D01*
X89714Y190063D01*
X89697Y189972D01*
X89664Y189880D01*
X89630Y189780D01*
X89589Y189680D01*
X89539Y189572D01*
X89472Y189472D01*
X89406Y189372D01*
X89314Y189272D01*
X89222Y189172D01*
X89106Y189089D01*
X89097Y189080D01*
X89072Y189072D01*
X89039Y189047D01*
X88989Y189022D01*
X88922Y188989D01*
X88839Y188947D01*
X88739Y188905D01*
X88631Y188872D01*
X88514Y188830D01*
X88372Y188789D01*
X88223Y188747D01*
X88064Y188714D01*
X87889Y188689D01*
X87698Y188664D01*
X87498Y188655D01*
X87281Y188647D01*
X87165D01*
X87090Y188655D01*
X86990Y188664D01*
X86873Y188672D01*
X86748Y188689D01*
X86607Y188706D01*
X86315Y188756D01*
X86015Y188839D01*
X85865Y188889D01*
X85715Y188947D01*
X85582Y189022D01*
X85457Y189097D01*
X85449Y189105D01*
X85432Y189122D01*
X85399Y189147D01*
X85357Y189180D01*
X85307Y189230D01*
X85257Y189280D01*
X85199Y189347D01*
X85132Y189430D01*
X85074Y189514D01*
X85015Y189605D01*
X84966Y189713D01*
X84916Y189830D01*
X84874Y189955D01*
X84841Y190088D01*
X84824Y190230D01*
X84816Y190380D01*
Y190388D01*
Y190396D01*
Y190446D01*
X84824Y190513D01*
X84841Y190605D01*
X84866Y190713D01*
X84899Y190821D01*
X84949Y190938D01*
X85015Y191055D01*
X85024Y191071D01*
X85049Y191104D01*
X85099Y191163D01*
X85157Y191238D01*
X85241Y191313D01*
X85340Y191404D01*
X85457Y191496D01*
X85599Y191588D01*
X83100D01*
Y192812D01*
X89622D01*
Y191588D01*
D02*
G37*
G36*
Y186365D02*
Y186356D01*
Y186323D01*
Y186282D01*
X89614Y186223D01*
X89605Y186148D01*
X89597Y186065D01*
X89580Y185973D01*
X89564Y185873D01*
X89514Y185665D01*
X89430Y185457D01*
X89381Y185357D01*
X89322Y185265D01*
X89247Y185174D01*
X89172Y185099D01*
X89164D01*
X89147Y185082D01*
X89122Y185065D01*
X89089Y185040D01*
X89039Y185015D01*
X88972Y184982D01*
X88897Y184949D01*
X88814Y184915D01*
X88722Y184874D01*
X88606Y184840D01*
X88489Y184807D01*
X88348Y184782D01*
X88198Y184757D01*
X88039Y184740D01*
X87864Y184732D01*
X87673Y184724D01*
X84041D01*
Y183474D01*
X83100D01*
Y185957D01*
X87764D01*
X87856Y185965D01*
X87973Y185982D01*
X88106Y185998D01*
X88231Y186023D01*
X88356Y186065D01*
X88456Y186123D01*
X88464Y186132D01*
X88489Y186156D01*
X88531Y186198D01*
X88564Y186265D01*
X88606Y186340D01*
X88647Y186440D01*
X88672Y186565D01*
X88681Y186706D01*
Y187689D01*
X89622D01*
Y186365D01*
D02*
G37*
G36*
X96567Y128670D02*
X95781Y128291D01*
X95772Y128287D01*
X95756Y128279D01*
X95727Y128266D01*
X95689Y128250D01*
X95685D01*
X95673Y128241D01*
X95656Y128233D01*
X95635Y128220D01*
X95606Y128204D01*
X95577Y128187D01*
X95510Y128137D01*
X95444Y128083D01*
X95415Y128050D01*
X95385Y128016D01*
X95365Y127979D01*
X95348Y127942D01*
X95336Y127904D01*
X95331Y127863D01*
Y127667D01*
X96567D01*
Y127047D01*
X93439D01*
Y127937D01*
Y127946D01*
Y127962D01*
Y127996D01*
X93443Y128037D01*
X93447Y128087D01*
X93451Y128141D01*
X93455Y128204D01*
X93464Y128270D01*
X93493Y128416D01*
X93530Y128557D01*
X93555Y128624D01*
X93584Y128691D01*
X93617Y128749D01*
X93655Y128803D01*
X93659Y128807D01*
X93663Y128815D01*
X93676Y128828D01*
X93696Y128844D01*
X93717Y128865D01*
X93747Y128886D01*
X93780Y128911D01*
X93821Y128936D01*
X93867Y128961D01*
X93917Y128986D01*
X93975Y129007D01*
X94038Y129027D01*
X94104Y129044D01*
X94179Y129057D01*
X94262Y129065D01*
X94350Y129069D01*
X94379D01*
X94404Y129065D01*
X94429D01*
X94462Y129061D01*
X94537Y129048D01*
X94620Y129032D01*
X94703Y129002D01*
X94787Y128965D01*
X94866Y128911D01*
X94874Y128903D01*
X94895Y128882D01*
X94928Y128844D01*
X94965Y128795D01*
X95003Y128732D01*
X95040Y128653D01*
X95073Y128561D01*
X95094Y128457D01*
Y128462D01*
X95099Y128474D01*
X95103Y128491D01*
X95111Y128512D01*
X95123Y128536D01*
X95140Y128561D01*
X95157Y128591D01*
X95182Y128616D01*
X95186Y128620D01*
X95194Y128628D01*
X95215Y128645D01*
X95240Y128661D01*
X95273Y128686D01*
X95319Y128715D01*
X95377Y128749D01*
X95444Y128782D01*
X96567Y129352D01*
Y128670D01*
D02*
G37*
G36*
Y133599D02*
Y132846D01*
X94221Y132102D01*
Y132721D01*
X96055Y133221D01*
X94221Y133724D01*
Y134348D01*
X96567Y133599D01*
D02*
G37*
G36*
X95594Y130167D02*
X95618D01*
X95639Y130171D01*
X95689Y130176D01*
X95752Y130188D01*
X95818Y130205D01*
X95885Y130234D01*
X95951Y130271D01*
X96009Y130325D01*
X96014Y130334D01*
X96030Y130354D01*
X96051Y130392D01*
X96076Y130446D01*
X96101Y130512D01*
X96122Y130596D01*
X96139Y130696D01*
X96143Y130808D01*
Y130812D01*
Y130816D01*
Y130829D01*
Y130845D01*
X96139Y130887D01*
X96134Y130941D01*
X96130Y131003D01*
X96118Y131074D01*
X96105Y131149D01*
X96084Y131224D01*
Y131228D01*
X96080Y131232D01*
X96076Y131245D01*
X96072Y131261D01*
X96059Y131303D01*
X96039Y131357D01*
X96014Y131419D01*
X95980Y131494D01*
X95939Y131573D01*
X95893Y131657D01*
X96455D01*
Y131652D01*
X96459Y131648D01*
X96463Y131636D01*
X96467Y131619D01*
X96484Y131578D01*
X96504Y131519D01*
X96525Y131457D01*
X96546Y131382D01*
X96567Y131303D01*
X96584Y131220D01*
Y131216D01*
Y131211D01*
X96588Y131199D01*
X96592Y131182D01*
X96596Y131137D01*
X96604Y131078D01*
X96613Y131008D01*
X96621Y130929D01*
X96625Y130841D01*
X96629Y130750D01*
Y130741D01*
Y130725D01*
X96625Y130696D01*
Y130654D01*
X96621Y130604D01*
X96613Y130546D01*
X96604Y130483D01*
X96592Y130417D01*
X96575Y130346D01*
X96554Y130271D01*
X96530Y130196D01*
X96496Y130122D01*
X96463Y130051D01*
X96421Y129980D01*
X96371Y129913D01*
X96317Y129851D01*
X96313Y129847D01*
X96301Y129839D01*
X96284Y129822D01*
X96259Y129801D01*
X96226Y129780D01*
X96184Y129755D01*
X96139Y129726D01*
X96084Y129697D01*
X96026Y129668D01*
X95955Y129639D01*
X95881Y129614D01*
X95802Y129593D01*
X95714Y129572D01*
X95618Y129556D01*
X95519Y129547D01*
X95411Y129543D01*
X95356D01*
X95315Y129547D01*
X95269Y129552D01*
X95211Y129560D01*
X95148Y129568D01*
X95082Y129581D01*
X95011Y129597D01*
X94936Y129614D01*
X94861Y129639D01*
X94787Y129668D01*
X94712Y129701D01*
X94637Y129743D01*
X94570Y129789D01*
X94504Y129839D01*
X94499Y129843D01*
X94487Y129851D01*
X94470Y129868D01*
X94450Y129893D01*
X94424Y129926D01*
X94395Y129959D01*
X94366Y130005D01*
X94333Y130055D01*
X94304Y130109D01*
X94275Y130171D01*
X94246Y130238D01*
X94221Y130313D01*
X94196Y130388D01*
X94179Y130475D01*
X94171Y130562D01*
X94167Y130658D01*
Y130662D01*
Y130683D01*
Y130708D01*
X94171Y130745D01*
X94175Y130787D01*
X94183Y130837D01*
X94192Y130895D01*
X94204Y130954D01*
X94221Y131016D01*
X94241Y131082D01*
X94266Y131149D01*
X94300Y131220D01*
X94333Y131286D01*
X94375Y131349D01*
X94424Y131407D01*
X94479Y131465D01*
X94483Y131469D01*
X94491Y131478D01*
X94512Y131490D01*
X94537Y131511D01*
X94566Y131532D01*
X94603Y131557D01*
X94649Y131586D01*
X94703Y131611D01*
X94762Y131640D01*
X94824Y131665D01*
X94895Y131690D01*
X94974Y131711D01*
X95057Y131731D01*
X95148Y131744D01*
X95244Y131752D01*
X95344Y131756D01*
X95594D01*
Y130167D01*
D02*
G37*
G36*
X5000Y65448D02*
Y64591D01*
X1872Y63851D01*
Y64470D01*
X4488Y65020D01*
X1872Y65569D01*
Y66193D01*
X5000Y65448D01*
D02*
G37*
G36*
X4205Y63447D02*
X4243Y63443D01*
X4289Y63435D01*
X4334Y63426D01*
X4389Y63414D01*
X4443Y63401D01*
X4501Y63380D01*
X4559Y63355D01*
X4617Y63331D01*
X4671Y63293D01*
X4725Y63256D01*
X4780Y63210D01*
X4825Y63160D01*
X4829Y63156D01*
X4834Y63147D01*
X4846Y63131D01*
X4863Y63106D01*
X4879Y63077D01*
X4900Y63039D01*
X4921Y62994D01*
X4942Y62944D01*
X4967Y62890D01*
X4987Y62823D01*
X5008Y62757D01*
X5025Y62677D01*
X5042Y62598D01*
X5054Y62507D01*
X5058Y62411D01*
X5062Y62311D01*
Y62307D01*
Y62299D01*
Y62286D01*
Y62270D01*
X5058Y62224D01*
Y62166D01*
X5054Y62095D01*
X5046Y62016D01*
X5033Y61933D01*
X5021Y61845D01*
Y61841D01*
Y61837D01*
X5017Y61825D01*
X5012Y61808D01*
X5004Y61762D01*
X4992Y61704D01*
X4975Y61637D01*
X4958Y61567D01*
X4908Y61409D01*
X4334D01*
Y61413D01*
X4339Y61417D01*
X4351Y61442D01*
X4368Y61484D01*
X4389Y61533D01*
X4413Y61600D01*
X4438Y61671D01*
X4463Y61750D01*
X4484Y61833D01*
Y61837D01*
Y61845D01*
X4488Y61858D01*
X4493Y61875D01*
X4501Y61920D01*
X4509Y61979D01*
X4517Y62049D01*
X4526Y62133D01*
X4530Y62220D01*
X4534Y62311D01*
Y62315D01*
Y62324D01*
Y62336D01*
Y62353D01*
X4530Y62399D01*
X4522Y62457D01*
X4505Y62519D01*
X4488Y62586D01*
X4459Y62652D01*
X4422Y62711D01*
X4418Y62719D01*
X4401Y62736D01*
X4376Y62757D01*
X4339Y62786D01*
X4293Y62815D01*
X4239Y62836D01*
X4176Y62852D01*
X4106Y62861D01*
X4081D01*
X4064Y62856D01*
X4022Y62852D01*
X3968Y62844D01*
X3910Y62823D01*
X3848Y62798D01*
X3789Y62761D01*
X3735Y62711D01*
X3731Y62702D01*
X3715Y62686D01*
X3694Y62652D01*
X3669Y62603D01*
X3644Y62544D01*
X3623Y62474D01*
X3606Y62390D01*
X3602Y62295D01*
Y61966D01*
X3057D01*
Y62295D01*
Y62299D01*
Y62303D01*
Y62315D01*
Y62332D01*
X3053Y62374D01*
X3045Y62428D01*
X3036Y62486D01*
X3020Y62544D01*
X2999Y62603D01*
X2970Y62652D01*
X2966Y62657D01*
X2953Y62673D01*
X2932Y62694D01*
X2903Y62719D01*
X2866Y62740D01*
X2824Y62761D01*
X2770Y62777D01*
X2712Y62781D01*
X2683D01*
X2650Y62773D01*
X2612Y62765D01*
X2571Y62748D01*
X2525Y62727D01*
X2479Y62694D01*
X2442Y62652D01*
X2437Y62648D01*
X2425Y62628D01*
X2408Y62603D01*
X2392Y62561D01*
X2375Y62511D01*
X2358Y62449D01*
X2346Y62378D01*
X2342Y62295D01*
Y62286D01*
Y62266D01*
X2346Y62228D01*
Y62182D01*
X2354Y62124D01*
X2363Y62062D01*
X2371Y61991D01*
X2387Y61916D01*
Y61912D01*
Y61908D01*
X2396Y61883D01*
X2404Y61841D01*
X2417Y61791D01*
X2437Y61729D01*
X2458Y61658D01*
X2483Y61583D01*
X2512Y61504D01*
X1951D01*
Y61509D01*
X1947Y61513D01*
Y61525D01*
X1938Y61542D01*
X1930Y61583D01*
X1913Y61637D01*
X1901Y61700D01*
X1884Y61771D01*
X1867Y61845D01*
X1855Y61924D01*
Y61929D01*
Y61933D01*
X1851Y61945D01*
Y61962D01*
X1843Y62003D01*
X1834Y62053D01*
X1830Y62116D01*
X1822Y62182D01*
X1818Y62328D01*
Y62332D01*
Y62349D01*
Y62374D01*
X1822Y62411D01*
X1826Y62453D01*
X1830Y62499D01*
X1834Y62553D01*
X1843Y62611D01*
X1872Y62731D01*
X1909Y62861D01*
X1934Y62923D01*
X1963Y62985D01*
X1997Y63043D01*
X2034Y63098D01*
X2038Y63102D01*
X2042Y63110D01*
X2055Y63123D01*
X2076Y63143D01*
X2096Y63164D01*
X2121Y63185D01*
X2155Y63210D01*
X2188Y63239D01*
X2229Y63264D01*
X2275Y63289D01*
X2321Y63310D01*
X2375Y63335D01*
X2433Y63351D01*
X2496Y63364D01*
X2558Y63372D01*
X2629Y63376D01*
X2654D01*
X2675Y63372D01*
X2699D01*
X2725Y63368D01*
X2791Y63355D01*
X2862Y63339D01*
X2941Y63310D01*
X3016Y63268D01*
X3086Y63214D01*
X3095Y63206D01*
X3115Y63185D01*
X3145Y63147D01*
X3182Y63098D01*
X3220Y63035D01*
X3257Y62956D01*
X3290Y62865D01*
X3315Y62761D01*
Y62765D01*
X3319Y62777D01*
X3323Y62794D01*
X3328Y62815D01*
X3336Y62844D01*
X3344Y62877D01*
X3373Y62952D01*
X3407Y63035D01*
X3457Y63118D01*
X3515Y63202D01*
X3586Y63272D01*
X3590Y63276D01*
X3594Y63281D01*
X3606Y63289D01*
X3623Y63301D01*
X3644Y63314D01*
X3669Y63331D01*
X3698Y63347D01*
X3731Y63364D01*
X3810Y63393D01*
X3902Y63422D01*
X4010Y63443D01*
X4068Y63451D01*
X4172D01*
X4205Y63447D01*
D02*
G37*
G36*
X5000Y59503D02*
X4230D01*
Y60202D01*
X5000D01*
Y59503D01*
D02*
G37*
G36*
X77659Y43136D02*
X77742Y43128D01*
X77834Y43111D01*
X77942Y43094D01*
X78059Y43069D01*
X78184Y43036D01*
X78309Y42986D01*
X78442Y42936D01*
X78567Y42878D01*
X78700Y42803D01*
X78825Y42720D01*
X78942Y42619D01*
X79058Y42511D01*
X79067Y42503D01*
X79084Y42486D01*
X79109Y42445D01*
X79150Y42395D01*
X79192Y42336D01*
X79233Y42253D01*
X79292Y42170D01*
X79342Y42061D01*
X79392Y41945D01*
X79442Y41820D01*
X79492Y41678D01*
X79533Y41528D01*
X79575Y41362D01*
X79600Y41187D01*
X79617Y41004D01*
X79625Y40804D01*
Y40795D01*
Y40787D01*
Y40737D01*
Y40654D01*
X79617Y40554D01*
X79608Y40429D01*
X79600Y40287D01*
X79583Y40145D01*
X79558Y39987D01*
Y39979D01*
Y39971D01*
X79550Y39946D01*
X79542Y39921D01*
X79533Y39837D01*
X79508Y39729D01*
X79483Y39604D01*
X79442Y39463D01*
X79408Y39312D01*
X79358Y39154D01*
X78242D01*
X78250Y39171D01*
X78267Y39213D01*
X78300Y39279D01*
X78342Y39371D01*
X78384Y39479D01*
X78425Y39596D01*
X78467Y39729D01*
X78500Y39862D01*
Y39871D01*
Y39879D01*
X78517Y39929D01*
X78525Y40004D01*
X78542Y40096D01*
X78559Y40212D01*
X78567Y40337D01*
X78584Y40604D01*
Y40612D01*
Y40637D01*
Y40670D01*
X78575Y40712D01*
Y40770D01*
X78567Y40829D01*
X78550Y40979D01*
X78517Y41137D01*
X78467Y41303D01*
X78400Y41462D01*
X78309Y41603D01*
X78292Y41620D01*
X78259Y41653D01*
X78192Y41712D01*
X78101Y41778D01*
X77984Y41837D01*
X77842Y41895D01*
X77684Y41928D01*
X77492Y41945D01*
X77443D01*
X77409Y41936D01*
X77326Y41928D01*
X77209Y41903D01*
X77093Y41862D01*
X76959Y41803D01*
X76826Y41720D01*
X76710Y41603D01*
X76693Y41587D01*
X76660Y41545D01*
X76618Y41470D01*
X76560Y41362D01*
X76501Y41237D01*
X76460Y41078D01*
X76426Y40904D01*
X76410Y40704D01*
Y40687D01*
Y40645D01*
Y40579D01*
X76418Y40495D01*
X76426Y40395D01*
X76443Y40279D01*
X76468Y40154D01*
X76493Y40029D01*
Y40012D01*
X76509Y39971D01*
X76526Y39904D01*
X76551Y39821D01*
X76585Y39721D01*
X76626Y39604D01*
X76734Y39362D01*
X73236D01*
Y42770D01*
X74327D01*
Y40362D01*
X75493D01*
Y40370D01*
X75485Y40387D01*
X75477Y40420D01*
X75460Y40462D01*
X75435Y40562D01*
X75410Y40679D01*
Y40687D01*
X75402Y40712D01*
Y40745D01*
X75393Y40787D01*
X75385Y40845D01*
Y40904D01*
X75377Y41045D01*
Y41054D01*
Y41087D01*
Y41137D01*
X75385Y41203D01*
X75393Y41278D01*
X75410Y41370D01*
X75427Y41470D01*
X75452Y41587D01*
X75485Y41703D01*
X75518Y41828D01*
X75568Y41953D01*
X75626Y42078D01*
X75693Y42203D01*
X75776Y42328D01*
X75860Y42445D01*
X75968Y42561D01*
X75976Y42570D01*
X75993Y42586D01*
X76026Y42611D01*
X76076Y42653D01*
X76135Y42695D01*
X76201Y42744D01*
X76285Y42803D01*
X76376Y42853D01*
X76485Y42911D01*
X76601Y42961D01*
X76726Y43011D01*
X76859Y43053D01*
X77001Y43094D01*
X77159Y43119D01*
X77318Y43136D01*
X77492Y43144D01*
X77584D01*
X77659Y43136D01*
D02*
G37*
G36*
X79500Y35264D02*
X77959D01*
Y36664D01*
X79500D01*
Y35264D01*
D02*
G37*
G36*
Y29000D02*
X78409D01*
Y30383D01*
X74344D01*
X74660Y29092D01*
X73544D01*
X73236Y30383D01*
Y31582D01*
X78409D01*
Y32965D01*
X79500D01*
Y29000D01*
D02*
G37*
G36*
X5000Y46000D02*
X1872D01*
Y47947D01*
X2417D01*
Y46620D01*
X3091D01*
Y47822D01*
X3635D01*
Y46620D01*
X4455D01*
Y47947D01*
X5000D01*
Y46000D01*
D02*
G37*
G36*
X6912Y161673D02*
X9500D01*
Y161053D01*
X6912D01*
Y160259D01*
X6372D01*
Y162468D01*
X6912D01*
Y161673D01*
D02*
G37*
G36*
X9417Y159747D02*
X9425Y159730D01*
X9438Y159701D01*
X9454Y159660D01*
X9471Y159614D01*
X9492Y159560D01*
X9508Y159502D01*
X9525Y159443D01*
Y159435D01*
X9529Y159414D01*
X9537Y159385D01*
X9542Y159344D01*
X9550Y159294D01*
X9558Y159235D01*
X9562Y159173D01*
Y159106D01*
Y159098D01*
Y159077D01*
X9558Y159044D01*
X9554Y159002D01*
X9550Y158948D01*
X9542Y158890D01*
X9529Y158824D01*
X9508Y158749D01*
X9488Y158674D01*
X9463Y158595D01*
X9425Y158511D01*
X9388Y158432D01*
X9338Y158353D01*
X9284Y158279D01*
X9221Y158208D01*
X9146Y158141D01*
X9142Y158137D01*
X9126Y158129D01*
X9101Y158112D01*
X9067Y158091D01*
X9026Y158062D01*
X8972Y158037D01*
X8909Y158004D01*
X8839Y157975D01*
X8760Y157946D01*
X8668Y157913D01*
X8572Y157887D01*
X8464Y157863D01*
X8348Y157838D01*
X8223Y157821D01*
X8086Y157813D01*
X7944Y157808D01*
X7911D01*
X7869Y157813D01*
X7815D01*
X7749Y157817D01*
X7674Y157825D01*
X7586Y157838D01*
X7495Y157850D01*
X7399Y157867D01*
X7304Y157892D01*
X7204Y157917D01*
X7100Y157950D01*
X7004Y157987D01*
X6908Y158033D01*
X6821Y158083D01*
X6738Y158141D01*
X6734Y158145D01*
X6721Y158158D01*
X6700Y158175D01*
X6671Y158204D01*
X6642Y158237D01*
X6605Y158279D01*
X6567Y158328D01*
X6526Y158387D01*
X6488Y158453D01*
X6451Y158524D01*
X6413Y158603D01*
X6384Y158690D01*
X6355Y158782D01*
X6334Y158882D01*
X6322Y158990D01*
X6318Y159106D01*
Y159111D01*
Y159115D01*
Y159135D01*
Y159173D01*
X6322Y159215D01*
X6326Y159269D01*
X6334Y159327D01*
X6355Y159448D01*
Y159456D01*
X6363Y159477D01*
X6372Y159506D01*
X6384Y159547D01*
X6401Y159593D01*
X6417Y159647D01*
X6467Y159755D01*
X7154D01*
X7145Y159747D01*
X7129Y159726D01*
X7104Y159697D01*
X7071Y159655D01*
X7037Y159610D01*
X7004Y159556D01*
X6971Y159502D01*
X6942Y159443D01*
X6937Y159435D01*
X6929Y159418D01*
X6921Y159389D01*
X6904Y159348D01*
X6892Y159302D01*
X6883Y159252D01*
X6875Y159194D01*
X6871Y159135D01*
Y159131D01*
Y159119D01*
Y159102D01*
X6875Y159081D01*
X6879Y159052D01*
X6883Y159019D01*
X6904Y158944D01*
X6937Y158861D01*
X6958Y158819D01*
X6983Y158778D01*
X7017Y158736D01*
X7054Y158695D01*
X7096Y158657D01*
X7141Y158624D01*
X7145D01*
X7154Y158616D01*
X7170Y158607D01*
X7191Y158599D01*
X7220Y158586D01*
X7254Y158570D01*
X7295Y158553D01*
X7341Y158541D01*
X7395Y158524D01*
X7457Y158507D01*
X7520Y158495D01*
X7595Y158478D01*
X7674Y158470D01*
X7757Y158462D01*
X7848Y158453D01*
X7994D01*
X8032Y158457D01*
X8073D01*
X8127Y158462D01*
X8181Y158466D01*
X8244Y158474D01*
X8373Y158495D01*
X8506Y158524D01*
X8631Y158566D01*
X8689Y158595D01*
X8743Y158624D01*
X8747Y158628D01*
X8755Y158632D01*
X8768Y158641D01*
X8784Y158657D01*
X8826Y158699D01*
X8876Y158753D01*
X8926Y158828D01*
X8968Y158915D01*
X8984Y158965D01*
X8997Y159015D01*
X9005Y159073D01*
X9009Y159135D01*
Y159144D01*
Y159165D01*
X9005Y159194D01*
X9001Y159235D01*
X8992Y159281D01*
X8980Y159331D01*
X8963Y159389D01*
X8943Y159443D01*
X8938Y159452D01*
X8930Y159468D01*
X8913Y159497D01*
X8889Y159539D01*
X8859Y159585D01*
X8822Y159639D01*
X8780Y159697D01*
X8726Y159755D01*
X9413D01*
X9417Y159747D01*
D02*
G37*
G36*
X4205Y58280D02*
X4243Y58276D01*
X4289Y58268D01*
X4334Y58259D01*
X4389Y58247D01*
X4443Y58235D01*
X4501Y58214D01*
X4559Y58189D01*
X4617Y58164D01*
X4671Y58126D01*
X4725Y58089D01*
X4780Y58043D01*
X4825Y57993D01*
X4829Y57989D01*
X4834Y57981D01*
X4846Y57964D01*
X4863Y57939D01*
X4879Y57910D01*
X4900Y57873D01*
X4921Y57827D01*
X4942Y57777D01*
X4967Y57723D01*
X4987Y57656D01*
X5008Y57590D01*
X5025Y57511D01*
X5042Y57432D01*
X5054Y57340D01*
X5058Y57244D01*
X5062Y57145D01*
Y57140D01*
Y57132D01*
Y57120D01*
Y57103D01*
X5058Y57057D01*
Y56999D01*
X5054Y56928D01*
X5046Y56849D01*
X5033Y56766D01*
X5021Y56679D01*
Y56675D01*
Y56670D01*
X5017Y56658D01*
X5012Y56641D01*
X5004Y56595D01*
X4992Y56537D01*
X4975Y56471D01*
X4958Y56400D01*
X4908Y56242D01*
X4334D01*
Y56246D01*
X4339Y56250D01*
X4351Y56275D01*
X4368Y56317D01*
X4389Y56367D01*
X4413Y56433D01*
X4438Y56504D01*
X4463Y56583D01*
X4484Y56666D01*
Y56670D01*
Y56679D01*
X4488Y56691D01*
X4493Y56708D01*
X4501Y56754D01*
X4509Y56812D01*
X4517Y56883D01*
X4526Y56966D01*
X4530Y57053D01*
X4534Y57145D01*
Y57149D01*
Y57157D01*
Y57170D01*
Y57186D01*
X4530Y57232D01*
X4522Y57290D01*
X4505Y57353D01*
X4488Y57419D01*
X4459Y57486D01*
X4422Y57544D01*
X4418Y57552D01*
X4401Y57569D01*
X4376Y57590D01*
X4339Y57619D01*
X4293Y57648D01*
X4239Y57669D01*
X4176Y57685D01*
X4106Y57694D01*
X4081D01*
X4064Y57690D01*
X4022Y57685D01*
X3968Y57677D01*
X3910Y57656D01*
X3848Y57631D01*
X3789Y57594D01*
X3735Y57544D01*
X3731Y57536D01*
X3715Y57519D01*
X3694Y57486D01*
X3669Y57436D01*
X3644Y57378D01*
X3623Y57307D01*
X3606Y57224D01*
X3602Y57128D01*
Y56799D01*
X3057D01*
Y57128D01*
Y57132D01*
Y57136D01*
Y57149D01*
Y57165D01*
X3053Y57207D01*
X3045Y57261D01*
X3036Y57319D01*
X3020Y57378D01*
X2999Y57436D01*
X2970Y57486D01*
X2966Y57490D01*
X2953Y57507D01*
X2932Y57527D01*
X2903Y57552D01*
X2866Y57573D01*
X2824Y57594D01*
X2770Y57611D01*
X2712Y57615D01*
X2683D01*
X2650Y57606D01*
X2612Y57598D01*
X2571Y57581D01*
X2525Y57561D01*
X2479Y57527D01*
X2442Y57486D01*
X2437Y57482D01*
X2425Y57461D01*
X2408Y57436D01*
X2392Y57394D01*
X2375Y57344D01*
X2358Y57282D01*
X2346Y57211D01*
X2342Y57128D01*
Y57120D01*
Y57099D01*
X2346Y57061D01*
Y57016D01*
X2354Y56957D01*
X2363Y56895D01*
X2371Y56824D01*
X2387Y56749D01*
Y56745D01*
Y56741D01*
X2396Y56716D01*
X2404Y56675D01*
X2417Y56625D01*
X2437Y56562D01*
X2458Y56492D01*
X2483Y56417D01*
X2512Y56338D01*
X1951D01*
Y56342D01*
X1947Y56346D01*
Y56358D01*
X1938Y56375D01*
X1930Y56417D01*
X1913Y56471D01*
X1901Y56533D01*
X1884Y56604D01*
X1867Y56679D01*
X1855Y56758D01*
Y56762D01*
Y56766D01*
X1851Y56779D01*
Y56795D01*
X1843Y56837D01*
X1834Y56887D01*
X1830Y56949D01*
X1822Y57016D01*
X1818Y57161D01*
Y57165D01*
Y57182D01*
Y57207D01*
X1822Y57244D01*
X1826Y57286D01*
X1830Y57332D01*
X1834Y57386D01*
X1843Y57444D01*
X1872Y57565D01*
X1909Y57694D01*
X1934Y57756D01*
X1963Y57819D01*
X1997Y57877D01*
X2034Y57931D01*
X2038Y57935D01*
X2042Y57943D01*
X2055Y57956D01*
X2076Y57977D01*
X2096Y57997D01*
X2121Y58018D01*
X2155Y58043D01*
X2188Y58072D01*
X2229Y58097D01*
X2275Y58122D01*
X2321Y58143D01*
X2375Y58168D01*
X2433Y58185D01*
X2496Y58197D01*
X2558Y58205D01*
X2629Y58210D01*
X2654D01*
X2675Y58205D01*
X2699D01*
X2725Y58201D01*
X2791Y58189D01*
X2862Y58172D01*
X2941Y58143D01*
X3016Y58101D01*
X3086Y58047D01*
X3095Y58039D01*
X3115Y58018D01*
X3145Y57981D01*
X3182Y57931D01*
X3220Y57868D01*
X3257Y57789D01*
X3290Y57698D01*
X3315Y57594D01*
Y57598D01*
X3319Y57611D01*
X3323Y57627D01*
X3328Y57648D01*
X3336Y57677D01*
X3344Y57710D01*
X3373Y57785D01*
X3407Y57868D01*
X3457Y57952D01*
X3515Y58035D01*
X3586Y58106D01*
X3590Y58110D01*
X3594Y58114D01*
X3606Y58122D01*
X3623Y58135D01*
X3644Y58147D01*
X3669Y58164D01*
X3698Y58180D01*
X3731Y58197D01*
X3810Y58226D01*
X3902Y58255D01*
X4010Y58276D01*
X4068Y58284D01*
X4172D01*
X4205Y58280D01*
D02*
G37*
G36*
X2413Y52415D02*
X5000D01*
Y51795D01*
X2413D01*
Y51000D01*
X1872D01*
Y53209D01*
X2413D01*
Y52415D01*
D02*
G37*
G36*
X5000Y50118D02*
X3968Y49519D01*
X5000Y48924D01*
Y48288D01*
X3415Y49203D01*
X1872Y48313D01*
Y48949D01*
X2870Y49519D01*
X1872Y50093D01*
Y50734D01*
X3415Y49844D01*
X5000Y50759D01*
Y50118D01*
D02*
G37*
G36*
X79500Y47168D02*
Y45452D01*
X73236Y43969D01*
Y45210D01*
X78475Y46310D01*
X73236Y47409D01*
Y48659D01*
X79500Y47168D01*
D02*
G37*
G36*
X56500Y120207D02*
X53568D01*
X53476Y120199D01*
X53368Y120191D01*
X53251Y120174D01*
X53135Y120141D01*
X53018Y120107D01*
X52926Y120057D01*
X52918Y120049D01*
X52893Y120032D01*
X52851Y119991D01*
X52810Y119941D01*
X52776Y119874D01*
X52735Y119791D01*
X52710Y119699D01*
X52701Y119583D01*
Y119566D01*
X52710Y119524D01*
X52718Y119466D01*
X52735Y119391D01*
X52776Y119299D01*
X52826Y119216D01*
X52901Y119124D01*
X53001Y119050D01*
X53018Y119041D01*
X53051Y119025D01*
X53118Y118991D01*
X53210Y118958D01*
X53326Y118925D01*
X53468Y118891D01*
X53635Y118875D01*
X53818Y118866D01*
X56500D01*
Y117650D01*
X49978D01*
Y118866D01*
X52510D01*
X52502Y118875D01*
X52452Y118891D01*
X52385Y118925D01*
X52293Y118966D01*
X52193Y119033D01*
X52093Y119108D01*
X52002Y119200D01*
X51910Y119308D01*
X51902Y119324D01*
X51877Y119366D01*
X51844Y119433D01*
X51802Y119524D01*
X51760Y119633D01*
X51727Y119758D01*
X51702Y119907D01*
X51694Y120066D01*
Y120074D01*
Y120099D01*
Y120132D01*
X51702Y120174D01*
X51710Y120232D01*
X51719Y120299D01*
X51752Y120449D01*
X51802Y120607D01*
X51885Y120782D01*
X51935Y120865D01*
X51994Y120940D01*
X52060Y121015D01*
X52143Y121082D01*
X52152D01*
X52160Y121099D01*
X52193Y121115D01*
X52227Y121132D01*
X52268Y121165D01*
X52327Y121190D01*
X52393Y121224D01*
X52477Y121257D01*
X52560Y121282D01*
X52660Y121315D01*
X52768Y121349D01*
X52885Y121374D01*
X53010Y121390D01*
X53151Y121407D01*
X53301Y121424D01*
X56500D01*
Y120207D01*
D02*
G37*
G36*
X55292Y116226D02*
X55351Y116217D01*
X55425Y116209D01*
X55584Y116176D01*
X55759Y116117D01*
X55850Y116076D01*
X55942Y116034D01*
X56033Y115976D01*
X56117Y115909D01*
X56192Y115834D01*
X56267Y115751D01*
Y115743D01*
X56283Y115726D01*
X56300Y115701D01*
X56325Y115659D01*
X56350Y115609D01*
X56383Y115551D01*
X56408Y115476D01*
X56442Y115393D01*
X56475Y115301D01*
X56508Y115193D01*
X56542Y115076D01*
X56567Y114943D01*
X56592Y114810D01*
X56608Y114651D01*
X56617Y114493D01*
X56625Y114318D01*
Y114310D01*
Y114301D01*
Y114276D01*
Y114243D01*
X56617Y114160D01*
Y114051D01*
X56608Y113918D01*
X56592Y113768D01*
X56575Y113610D01*
X56550Y113443D01*
Y113435D01*
Y113427D01*
X56542Y113402D01*
X56533Y113368D01*
X56517Y113277D01*
X56500Y113169D01*
X56467Y113035D01*
X56433Y112885D01*
X56383Y112719D01*
X56333Y112552D01*
X55259D01*
Y112560D01*
X55267Y112569D01*
X55300Y112619D01*
X55342Y112702D01*
X55392Y112802D01*
X55450Y112927D01*
X55509Y113069D01*
X55567Y113218D01*
X55617Y113377D01*
Y113385D01*
X55625Y113393D01*
Y113418D01*
X55634Y113452D01*
X55650Y113535D01*
X55675Y113635D01*
X55700Y113760D01*
X55717Y113902D01*
X55725Y114043D01*
X55734Y114193D01*
Y114201D01*
Y114210D01*
Y114268D01*
X55725Y114343D01*
X55717Y114435D01*
X55700Y114543D01*
X55684Y114651D01*
X55650Y114760D01*
X55609Y114851D01*
X55600Y114859D01*
X55584Y114884D01*
X55559Y114926D01*
X55517Y114968D01*
X55467Y115001D01*
X55400Y115043D01*
X55334Y115068D01*
X55251Y115076D01*
X55209D01*
X55167Y115068D01*
X55117Y115059D01*
X55051Y115034D01*
X54992Y115009D01*
X54934Y114968D01*
X54884Y114918D01*
X54876Y114910D01*
X54859Y114884D01*
X54834Y114834D01*
X54801Y114768D01*
X54767Y114660D01*
X54742Y114601D01*
X54717Y114535D01*
X54692Y114451D01*
X54667Y114368D01*
X54642Y114268D01*
X54617Y114160D01*
X54542Y113818D01*
Y113810D01*
X54534Y113785D01*
X54526Y113752D01*
X54509Y113702D01*
X54492Y113643D01*
X54476Y113577D01*
X54418Y113427D01*
X54351Y113260D01*
X54268Y113094D01*
X54159Y112935D01*
X54101Y112860D01*
X54043Y112794D01*
X54026Y112777D01*
X53976Y112744D01*
X53901Y112694D01*
X53801Y112635D01*
X53668Y112577D01*
X53518Y112527D01*
X53335Y112494D01*
X53135Y112477D01*
X53068D01*
X53018Y112486D01*
X52968Y112494D01*
X52901Y112502D01*
X52743Y112535D01*
X52577Y112594D01*
X52485Y112635D01*
X52402Y112685D01*
X52310Y112744D01*
X52227Y112810D01*
X52152Y112885D01*
X52077Y112969D01*
X52068Y112977D01*
X52060Y112994D01*
X52043Y113019D01*
X52018Y113060D01*
X51985Y113110D01*
X51952Y113169D01*
X51919Y113243D01*
X51885Y113327D01*
X51852Y113418D01*
X51819Y113518D01*
X51785Y113635D01*
X51752Y113760D01*
X51727Y113885D01*
X51710Y114035D01*
X51694Y114185D01*
Y114343D01*
Y114351D01*
Y114360D01*
Y114410D01*
Y114493D01*
X51702Y114593D01*
X51710Y114718D01*
X51719Y114851D01*
X51735Y114993D01*
X51760Y115143D01*
Y115151D01*
Y115159D01*
X51769Y115209D01*
X51785Y115293D01*
X51810Y115393D01*
X51835Y115509D01*
X51868Y115642D01*
X51952Y115917D01*
X53026D01*
X53018Y115901D01*
X52993Y115859D01*
X52951Y115793D01*
X52901Y115701D01*
X52851Y115593D01*
X52802Y115468D01*
X52743Y115343D01*
X52701Y115201D01*
X52693Y115184D01*
X52685Y115134D01*
X52668Y115068D01*
X52643Y114976D01*
X52618Y114859D01*
X52602Y114735D01*
X52593Y114601D01*
X52585Y114468D01*
Y114460D01*
Y114451D01*
Y114401D01*
X52593Y114326D01*
X52602Y114235D01*
X52618Y114135D01*
X52635Y114026D01*
X52668Y113927D01*
X52710Y113843D01*
X52718Y113835D01*
X52735Y113810D01*
X52760Y113777D01*
X52793Y113743D01*
X52843Y113702D01*
X52910Y113668D01*
X52976Y113643D01*
X53060Y113635D01*
X53076D01*
X53118Y113652D01*
X53176Y113685D01*
X53218Y113710D01*
X53260Y113752D01*
X53301Y113793D01*
X53343Y113852D01*
X53393Y113927D01*
X53435Y114018D01*
X53484Y114118D01*
X53526Y114235D01*
X53568Y114376D01*
X53610Y114535D01*
X53626Y114576D01*
X53710Y114935D01*
Y114943D01*
X53718Y114968D01*
X53726Y115001D01*
X53743Y115043D01*
X53759Y115101D01*
X53776Y115159D01*
X53834Y115309D01*
X53901Y115468D01*
X53993Y115634D01*
X54101Y115784D01*
X54226Y115917D01*
X54243Y115934D01*
X54293Y115967D01*
X54368Y116017D01*
X54476Y116076D01*
X54609Y116134D01*
X54776Y116184D01*
X54959Y116217D01*
X55176Y116234D01*
X55242D01*
X55292Y116226D01*
D02*
G37*
G36*
X56500Y110003D02*
X55984D01*
X56000Y109995D01*
X56033Y109961D01*
X56092Y109912D01*
X56159Y109845D01*
X56233Y109762D01*
X56317Y109670D01*
X56392Y109553D01*
X56458Y109428D01*
X56467Y109412D01*
X56483Y109370D01*
X56508Y109295D01*
X56542Y109203D01*
X56575Y109087D01*
X56600Y108962D01*
X56617Y108812D01*
X56625Y108662D01*
Y108654D01*
Y108629D01*
Y108587D01*
X56617Y108529D01*
X56608Y108462D01*
X56600Y108387D01*
X56592Y108296D01*
X56575Y108204D01*
X56525Y108004D01*
X56450Y107796D01*
X56400Y107696D01*
X56342Y107596D01*
X56283Y107504D01*
X56208Y107413D01*
X56200Y107404D01*
X56192Y107396D01*
X56167Y107371D01*
X56134Y107346D01*
X56084Y107313D01*
X56033Y107271D01*
X55975Y107229D01*
X55900Y107196D01*
X55817Y107154D01*
X55734Y107113D01*
X55634Y107071D01*
X55525Y107038D01*
X55409Y107013D01*
X55292Y106988D01*
X55159Y106979D01*
X55017Y106971D01*
X54942D01*
X54884Y106979D01*
X54817Y106988D01*
X54734Y106996D01*
X54559Y107038D01*
X54368Y107096D01*
X54259Y107146D01*
X54159Y107196D01*
X54068Y107254D01*
X53976Y107321D01*
X53884Y107404D01*
X53809Y107496D01*
X53801Y107504D01*
X53793Y107521D01*
X53776Y107554D01*
X53743Y107596D01*
X53718Y107654D01*
X53685Y107721D01*
X53643Y107804D01*
X53610Y107904D01*
X53568Y108012D01*
X53535Y108129D01*
X53501Y108271D01*
X53468Y108420D01*
X53443Y108579D01*
X53426Y108754D01*
X53418Y108945D01*
X53410Y109145D01*
Y110003D01*
X53160D01*
X53110Y109995D01*
X53043Y109978D01*
X52968Y109953D01*
X52893Y109912D01*
X52818Y109862D01*
X52760Y109787D01*
X52751Y109778D01*
X52735Y109745D01*
X52710Y109695D01*
X52676Y109628D01*
X52652Y109537D01*
X52627Y109428D01*
X52610Y109295D01*
X52602Y109145D01*
Y109137D01*
Y109128D01*
Y109104D01*
Y109070D01*
X52610Y108987D01*
X52618Y108870D01*
X52627Y108745D01*
X52652Y108595D01*
X52676Y108445D01*
X52718Y108287D01*
Y108279D01*
X52727Y108271D01*
Y108246D01*
X52735Y108221D01*
X52768Y108137D01*
X52802Y108029D01*
X52851Y107904D01*
X52910Y107754D01*
X52985Y107604D01*
X53068Y107438D01*
X52018D01*
Y107446D01*
X52010Y107454D01*
X51994Y107504D01*
X51960Y107587D01*
X51927Y107687D01*
X51885Y107812D01*
X51844Y107954D01*
X51810Y108096D01*
X51777Y108254D01*
Y108262D01*
Y108271D01*
X51769Y108296D01*
X51760Y108329D01*
X51752Y108412D01*
X51735Y108529D01*
X51719Y108662D01*
X51710Y108812D01*
X51694Y108970D01*
Y109145D01*
Y109162D01*
Y109195D01*
Y109253D01*
X51702Y109328D01*
X51710Y109428D01*
X51719Y109528D01*
X51735Y109645D01*
X51752Y109778D01*
X51810Y110036D01*
X51894Y110303D01*
X51943Y110428D01*
X52002Y110553D01*
X52077Y110661D01*
X52160Y110753D01*
X52168Y110761D01*
X52185Y110769D01*
X52210Y110794D01*
X52252Y110828D01*
X52302Y110861D01*
X52368Y110903D01*
X52452Y110944D01*
X52543Y110986D01*
X52652Y111028D01*
X52768Y111069D01*
X52910Y111111D01*
X53060Y111144D01*
X53226Y111178D01*
X53410Y111203D01*
X53610Y111211D01*
X53826Y111219D01*
X56500D01*
Y110003D01*
D02*
G37*
G36*
X147108Y180770D02*
X147158Y180745D01*
X147208Y180669D01*
X147283Y180570D01*
X147458Y180319D01*
X147633Y180019D01*
X147833Y179669D01*
X148008Y179320D01*
X148133Y178970D01*
X148158Y178820D01*
X148183Y178670D01*
Y178645D01*
X148158Y178620D01*
X148133Y178544D01*
X148083Y178445D01*
X147983Y178219D01*
X147833Y177970D01*
X147683Y177694D01*
X147508Y177470D01*
X147408Y177369D01*
X147308Y177295D01*
X147208Y177269D01*
X147108Y177244D01*
X145658D01*
X145583Y177269D01*
X145483Y177295D01*
X145358Y177369D01*
X145208Y177520D01*
X145033Y177694D01*
X144833Y177970D01*
X144733Y178120D01*
X144633Y178320D01*
Y179394D01*
Y179420D01*
X144658Y179445D01*
X144758Y179620D01*
X144908Y179844D01*
X145158Y180095D01*
X145483Y180344D01*
X145683Y180470D01*
X145908Y180570D01*
X146183Y180669D01*
X146458Y180745D01*
X146758Y180770D01*
X147108Y180795D01*
Y180770D01*
D02*
G37*
G36*
X161658Y160819D02*
X161958Y160794D01*
X162333Y160720D01*
X162708Y160594D01*
X163058Y160395D01*
X163208Y160269D01*
X163333Y160119D01*
X163433Y159969D01*
X163508Y159769D01*
Y158695D01*
Y158669D01*
X163483Y158595D01*
X163433Y158469D01*
X163333Y158319D01*
X163158Y158095D01*
X163033Y157994D01*
X162908Y157870D01*
X162733Y157720D01*
X162558Y157595D01*
X162333Y157420D01*
X162083Y157270D01*
X161333D01*
X161308Y157294D01*
X161133Y157395D01*
X160908Y157545D01*
X160658Y157794D01*
X160408Y158144D01*
X160283Y158344D01*
X160183Y158570D01*
X160083Y158819D01*
X160008Y159119D01*
X159983Y159420D01*
X159958Y159769D01*
X161358Y160845D01*
X161533D01*
X161658Y160819D01*
D02*
G37*
G36*
X153533Y188645D02*
X153508Y188619D01*
X153408Y188569D01*
X153258Y188495D01*
X153058Y188370D01*
X152808Y188219D01*
X152508Y188045D01*
X152183Y187845D01*
X151808Y187594D01*
X151408Y187345D01*
X150958Y187069D01*
X150033Y186469D01*
X149033Y185794D01*
X148008Y185070D01*
X146983Y184294D01*
X145983Y183519D01*
X145033Y182720D01*
X144608Y182319D01*
X144208Y181920D01*
X143833Y181519D01*
X143508Y181144D01*
X143208Y180745D01*
X142958Y180369D01*
X142758Y180019D01*
X142608Y179669D01*
X142508Y179344D01*
X142483Y179019D01*
Y178320D01*
X142508Y178270D01*
X142558Y178145D01*
X142683Y177919D01*
X142858Y177594D01*
X143108Y177219D01*
X143433Y176769D01*
X143633Y176544D01*
X143858Y176269D01*
X144108Y175995D01*
X144408Y175695D01*
X144708Y175394D01*
X145058Y175069D01*
X145433Y174744D01*
X145858Y174419D01*
X146283Y174069D01*
X146783Y173695D01*
X147283Y173345D01*
X147858Y172969D01*
X148458Y172570D01*
X149083Y172195D01*
X149783Y171794D01*
X150508Y171395D01*
X151283Y170994D01*
X152083Y170570D01*
X152958Y170169D01*
X153883Y169745D01*
X153933Y169770D01*
X154033Y169819D01*
X154208Y169920D01*
X154458Y170045D01*
X154733Y170194D01*
X155033Y170370D01*
X155733Y170770D01*
X156433Y171220D01*
X156758Y171469D01*
X157058Y171720D01*
X157333Y171944D01*
X157558Y172169D01*
X157708Y172395D01*
X157808Y172619D01*
Y173319D01*
Y173345D01*
X157758Y173419D01*
X157708Y173495D01*
X157633Y173594D01*
X157533Y173720D01*
X157408Y173845D01*
X157233Y174020D01*
X157033Y174220D01*
X156758Y174444D01*
X156458Y174720D01*
X156083Y175020D01*
X155658Y175370D01*
X155158Y175744D01*
X154608Y176170D01*
X154983D01*
X155033Y176145D01*
X155108Y176119D01*
X155208Y176094D01*
X155333Y176044D01*
X155483Y175970D01*
X155858Y175845D01*
X156283Y175670D01*
X156758Y175470D01*
X157283Y175244D01*
X157808Y175020D01*
X158333Y174769D01*
X158858Y174520D01*
X159333Y174244D01*
X159758Y173969D01*
X160133Y173720D01*
X160283Y173570D01*
X160408Y173444D01*
X160508Y173319D01*
X160583Y173195D01*
X160633Y173094D01*
X160658Y172969D01*
Y172944D01*
X160633Y172895D01*
X160608Y172819D01*
X160558Y172695D01*
X160458Y172545D01*
X160308Y172370D01*
X160108Y172169D01*
X159858Y171944D01*
X159508Y171695D01*
X159083Y171420D01*
X158833Y171270D01*
X158558Y171119D01*
X158283Y170969D01*
X157958Y170819D01*
X157583Y170644D01*
X157208Y170469D01*
X156808Y170294D01*
X156358Y170120D01*
X155883Y169945D01*
X155358Y169770D01*
X154808Y169595D01*
X154233Y169395D01*
Y169044D01*
X154283Y169019D01*
X154433Y168970D01*
X154658Y168869D01*
X154958Y168745D01*
X155358Y168595D01*
X155808Y168394D01*
X156333Y168169D01*
X156908Y167920D01*
X157533Y167645D01*
X158208Y167344D01*
X158908Y167019D01*
X159633Y166694D01*
X160408Y166344D01*
X161183Y165970D01*
X162783Y165194D01*
X164383Y164369D01*
X165158Y163944D01*
X165933Y163520D01*
X166658Y163069D01*
X167358Y162645D01*
X168033Y162220D01*
X168658Y161794D01*
X169233Y161370D01*
X169758Y160944D01*
X170208Y160545D01*
X170608Y160144D01*
X170908Y159769D01*
X171133Y159395D01*
X171283Y159045D01*
X171308Y158870D01*
X171333Y158695D01*
Y158669D01*
X171308Y158545D01*
X171208Y158370D01*
X171158Y158245D01*
X171058Y158095D01*
X170933Y157945D01*
X170808Y157770D01*
X170633Y157570D01*
X170408Y157369D01*
X170158Y157120D01*
X169883Y156869D01*
X169533Y156595D01*
X169158Y156319D01*
X168708Y155994D01*
X168233Y155669D01*
X167683Y155344D01*
X167083Y154970D01*
X166408Y154595D01*
X165658Y154169D01*
X164858Y153770D01*
X163958Y153320D01*
X163008Y152845D01*
X161983Y152369D01*
X160858Y151869D01*
X159633Y151370D01*
X158333Y150820D01*
X156958Y150269D01*
X155458Y149695D01*
X154683Y149395D01*
X153883Y149094D01*
Y149444D01*
Y149469D01*
X153933Y149495D01*
X153983Y149569D01*
X154083Y149670D01*
X154233Y149820D01*
X154458Y149995D01*
X154733Y150220D01*
X155083Y150470D01*
X155533Y150769D01*
X155783Y150944D01*
X156058Y151145D01*
X156358Y151345D01*
X156708Y151544D01*
X157058Y151769D01*
X157458Y152020D01*
X157858Y152269D01*
X158308Y152520D01*
X158808Y152820D01*
X159308Y153094D01*
X159858Y153419D01*
X160458Y153744D01*
X161083Y154095D01*
X161733Y154445D01*
X161758Y154470D01*
X161858Y154544D01*
X161983Y154694D01*
X162183Y154844D01*
X162383Y155069D01*
X162633Y155319D01*
X162883Y155595D01*
X163158Y155894D01*
X163683Y156570D01*
X163933Y156920D01*
X164133Y157270D01*
X164308Y157644D01*
X164458Y157994D01*
X164558Y158344D01*
X164583Y158695D01*
Y159420D01*
Y159469D01*
X164558Y159619D01*
X164508Y159845D01*
X164408Y160144D01*
X164233Y160545D01*
X164108Y160769D01*
X163983Y160995D01*
X163808Y161269D01*
X163633Y161545D01*
X163408Y161820D01*
X163158Y162144D01*
X162883Y162469D01*
X162558Y162794D01*
X162208Y163145D01*
X161808Y163520D01*
X161358Y163894D01*
X160883Y164269D01*
X160358Y164670D01*
X159783Y165094D01*
X159158Y165495D01*
X158458Y165945D01*
X157733Y166369D01*
X156933Y166820D01*
X156108Y167295D01*
X155183Y167745D01*
X154208Y168219D01*
X153183Y168694D01*
X153158Y168669D01*
X153058Y168620D01*
X152933Y168544D01*
X152733Y168445D01*
X152508Y168295D01*
X152283Y168145D01*
X151733Y167795D01*
X151158Y167394D01*
X150883Y167194D01*
X150633Y166995D01*
X150408Y166770D01*
X150208Y166569D01*
X150058Y166369D01*
X149958Y166194D01*
Y165120D01*
Y165094D01*
X150008Y165020D01*
X150033Y164945D01*
X150108Y164869D01*
X150208Y164769D01*
X150308Y164645D01*
X150458Y164495D01*
X150658Y164320D01*
X150883Y164120D01*
X151158Y163870D01*
X151483Y163619D01*
X151858Y163320D01*
X152308Y162995D01*
X152808Y162619D01*
X152433D01*
X152408Y162645D01*
X152333Y162670D01*
X152233Y162695D01*
X151958Y162794D01*
X151633Y162919D01*
X151208Y163069D01*
X150758Y163244D01*
X150283Y163444D01*
X149783Y163670D01*
X149283Y163894D01*
X148808Y164145D01*
X148358Y164419D01*
X147933Y164694D01*
X147608Y164970D01*
X147333Y165244D01*
X147233Y165394D01*
X147158Y165544D01*
X147133Y165670D01*
X147108Y165820D01*
Y166194D01*
X147133Y166219D01*
X147183Y166270D01*
X147258Y166344D01*
X147408Y166470D01*
X147583Y166620D01*
X147783Y166770D01*
X148058Y166970D01*
X148358Y167169D01*
X148733Y167394D01*
X149133Y167620D01*
X149608Y167844D01*
X150133Y168095D01*
X150708Y168344D01*
X151333Y168570D01*
X152033Y168819D01*
X152808Y169044D01*
Y169395D01*
X152758Y169420D01*
X152658Y169445D01*
X152483Y169519D01*
X152233Y169620D01*
X151933Y169745D01*
X151558Y169895D01*
X151158Y170045D01*
X150708Y170245D01*
X150183Y170445D01*
X149658Y170694D01*
X149058Y170944D01*
X148458Y171195D01*
X147808Y171494D01*
X147158Y171794D01*
X145783Y172420D01*
X144358Y173119D01*
X142933Y173845D01*
X141533Y174619D01*
X140208Y175419D01*
X139558Y175820D01*
X138958Y176219D01*
X138383Y176645D01*
X137833Y177044D01*
X137333Y177445D01*
X136858Y177869D01*
X136433Y178270D01*
X136083Y178670D01*
Y180095D01*
Y180120D01*
X136108Y180219D01*
X136208Y180369D01*
X136258Y180470D01*
X136358Y180570D01*
X136458Y180694D01*
X136608Y180844D01*
X136783Y181019D01*
X137008Y181194D01*
X137258Y181395D01*
X137533Y181620D01*
X137883Y181869D01*
X138258Y182120D01*
X138708Y182395D01*
X139183Y182694D01*
X139733Y182994D01*
X140333Y183344D01*
X141008Y183695D01*
X141758Y184070D01*
X142558Y184444D01*
X143433Y184870D01*
X144408Y185319D01*
X145433Y185769D01*
X146558Y186244D01*
X147783Y186744D01*
X149058Y187269D01*
X150458Y187820D01*
X151958Y188394D01*
X152733Y188695D01*
X153533Y188995D01*
Y188645D01*
D02*
G37*
G36*
X77902Y76486D02*
X77977Y76477D01*
X78060Y76469D01*
X78160Y76452D01*
X78260Y76428D01*
X78485Y76361D01*
X78601Y76319D01*
X78718Y76269D01*
X78834Y76211D01*
X78943Y76136D01*
X79043Y76053D01*
X79143Y75961D01*
X79151Y75953D01*
X79168Y75936D01*
X79184Y75903D01*
X79218Y75861D01*
X79259Y75811D01*
X79301Y75744D01*
X79343Y75661D01*
X79384Y75570D01*
X79434Y75470D01*
X79476Y75353D01*
X79518Y75236D01*
X79559Y75095D01*
X79593Y74953D01*
X79609Y74795D01*
X79626Y74628D01*
X79634Y74445D01*
Y74437D01*
Y74403D01*
Y74353D01*
X79626Y74287D01*
X79618Y74203D01*
X79609Y74103D01*
X79593Y74003D01*
X79576Y73887D01*
X79518Y73645D01*
X79476Y73520D01*
X79426Y73387D01*
X79368Y73270D01*
X79301Y73146D01*
X79226Y73037D01*
X79143Y72929D01*
X79134Y72921D01*
X79118Y72904D01*
X79093Y72879D01*
X79051Y72846D01*
X79001Y72804D01*
X78943Y72762D01*
X78868Y72712D01*
X78785Y72671D01*
X78693Y72621D01*
X78585Y72571D01*
X78476Y72529D01*
X78351Y72487D01*
X78210Y72454D01*
X78068Y72429D01*
X77918Y72413D01*
X77752Y72404D01*
X77693D01*
X77652Y72413D01*
X77602D01*
X77543Y72421D01*
X77410Y72438D01*
X77252Y72479D01*
X77085Y72529D01*
X76919Y72596D01*
X76760Y72696D01*
X76752D01*
X76744Y72712D01*
X76694Y72754D01*
X76619Y72821D01*
X76535Y72912D01*
X76436Y73029D01*
X76344Y73171D01*
X76261Y73337D01*
X76194Y73529D01*
Y73520D01*
X76186Y73512D01*
X76177Y73487D01*
X76161Y73454D01*
X76119Y73362D01*
X76069Y73262D01*
X75994Y73146D01*
X75902Y73021D01*
X75802Y72904D01*
X75677Y72804D01*
X75661Y72796D01*
X75611Y72771D01*
X75536Y72729D01*
X75436Y72687D01*
X75311Y72637D01*
X75169Y72604D01*
X75003Y72571D01*
X74819Y72562D01*
X74744D01*
X74695Y72571D01*
X74628Y72579D01*
X74553Y72587D01*
X74470Y72604D01*
X74378Y72629D01*
X74178Y72687D01*
X74078Y72729D01*
X73978Y72771D01*
X73878Y72829D01*
X73778Y72896D01*
X73687Y72971D01*
X73595Y73062D01*
X73587Y73071D01*
X73578Y73087D01*
X73553Y73112D01*
X73520Y73154D01*
X73487Y73204D01*
X73453Y73270D01*
X73412Y73346D01*
X73362Y73429D01*
X73320Y73520D01*
X73278Y73620D01*
X73245Y73737D01*
X73212Y73862D01*
X73178Y73995D01*
X73153Y74137D01*
X73145Y74287D01*
X73137Y74445D01*
Y74453D01*
Y74487D01*
Y74528D01*
X73145Y74587D01*
X73153Y74662D01*
X73162Y74745D01*
X73178Y74845D01*
X73195Y74945D01*
X73245Y75170D01*
X73328Y75395D01*
X73378Y75511D01*
X73445Y75620D01*
X73512Y75728D01*
X73595Y75828D01*
X73603Y75836D01*
X73612Y75853D01*
X73645Y75878D01*
X73678Y75911D01*
X73720Y75944D01*
X73778Y75986D01*
X73845Y76036D01*
X73920Y76086D01*
X74003Y76128D01*
X74095Y76178D01*
X74195Y76219D01*
X74303Y76261D01*
X74420Y76286D01*
X74545Y76311D01*
X74678Y76328D01*
X74819Y76336D01*
X74903D01*
X74994Y76319D01*
X75119Y76303D01*
X75253Y76278D01*
X75394Y76228D01*
X75536Y76169D01*
X75677Y76086D01*
X75694Y76078D01*
X75736Y76044D01*
X75794Y75986D01*
X75869Y75911D01*
X75961Y75811D01*
X76044Y75686D01*
X76127Y75545D01*
X76194Y75386D01*
Y75395D01*
X76202Y75411D01*
X76211Y75436D01*
X76227Y75470D01*
X76269Y75561D01*
X76327Y75678D01*
X76402Y75811D01*
X76502Y75944D01*
X76627Y76078D01*
X76769Y76194D01*
X76777D01*
X76785Y76211D01*
X76810Y76219D01*
X76844Y76244D01*
X76927Y76286D01*
X77044Y76344D01*
X77185Y76403D01*
X77352Y76444D01*
X77543Y76477D01*
X77752Y76494D01*
X77835D01*
X77902Y76486D01*
D02*
G37*
G36*
X79509Y68572D02*
X77968D01*
Y69972D01*
X79509D01*
Y68572D01*
D02*
G37*
G36*
Y62000D02*
X78460D01*
X77743Y62666D01*
X77727Y62683D01*
X77685Y62716D01*
X77627Y62775D01*
X77543Y62858D01*
X77443Y62950D01*
X77327Y63058D01*
X77202Y63174D01*
X77069Y63291D01*
X76802Y63541D01*
X76677Y63666D01*
X76552Y63783D01*
X76436Y63883D01*
X76327Y63982D01*
X76244Y64057D01*
X76177Y64116D01*
X76169D01*
X76161Y64132D01*
X76119Y64166D01*
X76052Y64224D01*
X75961Y64291D01*
X75869Y64357D01*
X75761Y64432D01*
X75652Y64507D01*
X75544Y64566D01*
X75528Y64574D01*
X75494Y64591D01*
X75444Y64607D01*
X75369Y64641D01*
X75286Y64666D01*
X75194Y64682D01*
X75094Y64699D01*
X74994Y64707D01*
X74928D01*
X74844Y64691D01*
X74753Y64674D01*
X74653Y64641D01*
X74545Y64599D01*
X74436Y64532D01*
X74345Y64449D01*
X74336Y64441D01*
X74311Y64399D01*
X74270Y64349D01*
X74228Y64266D01*
X74186Y64166D01*
X74145Y64041D01*
X74120Y63899D01*
X74111Y63733D01*
Y63716D01*
Y63674D01*
X74120Y63608D01*
X74128Y63516D01*
X74145Y63399D01*
X74170Y63275D01*
X74203Y63133D01*
X74245Y62983D01*
Y62975D01*
X74253Y62966D01*
X74261Y62941D01*
X74270Y62916D01*
X74303Y62833D01*
X74345Y62725D01*
X74395Y62600D01*
X74461Y62450D01*
X74536Y62300D01*
X74620Y62133D01*
X73470D01*
Y62142D01*
X73462Y62150D01*
X73453Y62175D01*
X73445Y62208D01*
X73412Y62300D01*
X73378Y62408D01*
X73345Y62541D01*
X73303Y62691D01*
X73262Y62850D01*
X73228Y63008D01*
Y63016D01*
X73220Y63025D01*
Y63050D01*
X73212Y63083D01*
X73195Y63166D01*
X73178Y63275D01*
X73162Y63399D01*
X73153Y63541D01*
X73137Y63683D01*
Y63833D01*
Y63841D01*
Y63874D01*
Y63924D01*
X73145Y63999D01*
X73153Y64082D01*
X73162Y64174D01*
X73178Y64282D01*
X73195Y64399D01*
X73253Y64649D01*
X73337Y64907D01*
X73387Y65040D01*
X73445Y65157D01*
X73520Y65282D01*
X73603Y65390D01*
X73612Y65399D01*
X73628Y65415D01*
X73653Y65440D01*
X73687Y65482D01*
X73737Y65524D01*
X73795Y65574D01*
X73861Y65624D01*
X73936Y65682D01*
X74020Y65732D01*
X74120Y65782D01*
X74220Y65832D01*
X74336Y65873D01*
X74453Y65915D01*
X74586Y65940D01*
X74720Y65957D01*
X74869Y65965D01*
X74928D01*
X75003Y65957D01*
X75094Y65948D01*
X75203Y65932D01*
X75319Y65915D01*
X75436Y65882D01*
X75561Y65840D01*
X75577Y65832D01*
X75619Y65815D01*
X75686Y65782D01*
X75769Y65740D01*
X75877Y65682D01*
X76002Y65607D01*
X76136Y65524D01*
X76277Y65415D01*
X76294Y65407D01*
X76310Y65390D01*
X76336Y65365D01*
X76377Y65332D01*
X76419Y65290D01*
X76477Y65240D01*
X76544Y65182D01*
X76619Y65107D01*
X76719Y65016D01*
X76819Y64916D01*
X76935Y64807D01*
X77069Y64674D01*
X77219Y64532D01*
X77377Y64366D01*
X77560Y64191D01*
X77568Y64183D01*
X77585Y64166D01*
X77610Y64141D01*
X77652Y64099D01*
X77752Y63999D01*
X77868Y63883D01*
X78010Y63741D01*
X78151Y63599D01*
X78293Y63458D01*
X78418Y63333D01*
Y65973D01*
X79509D01*
Y62000D01*
D02*
G37*
G36*
X56500Y104672D02*
Y104664D01*
Y104630D01*
Y104589D01*
X56492Y104530D01*
X56483Y104455D01*
X56475Y104372D01*
X56458Y104280D01*
X56442Y104181D01*
X56392Y103972D01*
X56308Y103764D01*
X56258Y103664D01*
X56200Y103572D01*
X56125Y103481D01*
X56050Y103406D01*
X56042D01*
X56025Y103389D01*
X56000Y103373D01*
X55967Y103348D01*
X55917Y103323D01*
X55850Y103289D01*
X55775Y103256D01*
X55692Y103223D01*
X55600Y103181D01*
X55484Y103147D01*
X55367Y103114D01*
X55225Y103089D01*
X55076Y103064D01*
X54917Y103048D01*
X54742Y103039D01*
X54551Y103031D01*
X50919D01*
Y101781D01*
X49978D01*
Y104264D01*
X54642D01*
X54734Y104272D01*
X54851Y104289D01*
X54984Y104305D01*
X55109Y104330D01*
X55234Y104372D01*
X55334Y104430D01*
X55342Y104439D01*
X55367Y104464D01*
X55409Y104505D01*
X55442Y104572D01*
X55484Y104647D01*
X55525Y104747D01*
X55550Y104872D01*
X55559Y105014D01*
Y105996D01*
X56500D01*
Y104672D01*
D02*
G37*
G36*
X51327Y98241D02*
X52676D01*
Y100657D01*
X53768D01*
Y98241D01*
X56500D01*
Y97000D01*
X50236D01*
Y100898D01*
X51327D01*
Y98241D01*
D02*
G37*
G36*
X79509Y80476D02*
Y78760D01*
X73245Y77277D01*
Y78518D01*
X78485Y79618D01*
X73245Y80717D01*
Y81967D01*
X79509Y80476D01*
D02*
G37*
G36*
X19577Y123205D02*
X19644Y123201D01*
X19719Y123193D01*
X19802Y123184D01*
X19893Y123176D01*
X19989Y123159D01*
X20089Y123143D01*
X20193Y123118D01*
X20293Y123093D01*
X20389Y123059D01*
X20484Y123022D01*
X20572Y122980D01*
X20655Y122930D01*
X20659Y122926D01*
X20671Y122918D01*
X20692Y122901D01*
X20717Y122880D01*
X20750Y122847D01*
X20784Y122814D01*
X20821Y122772D01*
X20859Y122722D01*
X20896Y122668D01*
X20933Y122606D01*
X20967Y122539D01*
X21000Y122465D01*
X21025Y122385D01*
X21046Y122298D01*
X21058Y122207D01*
X21062Y122107D01*
Y122103D01*
Y122082D01*
X21058Y122057D01*
X21054Y122019D01*
X21050Y121974D01*
X21042Y121920D01*
X21029Y121865D01*
X21012Y121803D01*
X20992Y121737D01*
X20963Y121670D01*
X20929Y121599D01*
X20892Y121533D01*
X20842Y121466D01*
X20788Y121404D01*
X20725Y121341D01*
X20655Y121287D01*
X20651Y121283D01*
X20634Y121275D01*
X20613Y121262D01*
X20576Y121246D01*
X20534Y121225D01*
X20484Y121200D01*
X20422Y121175D01*
X20347Y121150D01*
X20268Y121125D01*
X20176Y121100D01*
X20081Y121075D01*
X19968Y121054D01*
X19852Y121038D01*
X19727Y121025D01*
X19590Y121017D01*
X19444Y121013D01*
X19369D01*
X19311Y121017D01*
X19244Y121021D01*
X19170Y121029D01*
X19082Y121038D01*
X18991Y121046D01*
X18895Y121063D01*
X18795Y121079D01*
X18695Y121100D01*
X18591Y121129D01*
X18496Y121158D01*
X18400Y121196D01*
X18313Y121237D01*
X18229Y121287D01*
X18225Y121291D01*
X18213Y121300D01*
X18192Y121316D01*
X18163Y121341D01*
X18134Y121370D01*
X18101Y121404D01*
X18063Y121445D01*
X18021Y121495D01*
X17984Y121549D01*
X17947Y121612D01*
X17913Y121678D01*
X17880Y121749D01*
X17855Y121832D01*
X17834Y121915D01*
X17822Y122007D01*
X17818Y122107D01*
Y122115D01*
Y122132D01*
X17822Y122161D01*
X17826Y122198D01*
X17830Y122240D01*
X17838Y122294D01*
X17851Y122352D01*
X17867Y122415D01*
X17892Y122481D01*
X17917Y122548D01*
X17951Y122614D01*
X17992Y122685D01*
X18038Y122751D01*
X18092Y122814D01*
X18159Y122876D01*
X18229Y122930D01*
X18234Y122935D01*
X18250Y122943D01*
X18271Y122955D01*
X18304Y122976D01*
X18350Y122997D01*
X18400Y123018D01*
X18462Y123043D01*
X18537Y123072D01*
X18616Y123097D01*
X18708Y123122D01*
X18808Y123143D01*
X18916Y123168D01*
X19032Y123184D01*
X19161Y123197D01*
X19299Y123205D01*
X19444Y123209D01*
X19519D01*
X19577Y123205D01*
D02*
G37*
G36*
X9500Y137761D02*
X8730D01*
Y138460D01*
X9500D01*
Y137761D01*
D02*
G37*
G36*
X20218Y120663D02*
X20255Y120659D01*
X20297Y120655D01*
X20343Y120647D01*
X20397Y120634D01*
X20501Y120601D01*
X20559Y120580D01*
X20613Y120551D01*
X20663Y120522D01*
X20713Y120484D01*
X20759Y120443D01*
X20800Y120393D01*
X20805Y120389D01*
X20809Y120380D01*
X20817Y120364D01*
X20829Y120339D01*
X20846Y120310D01*
X20863Y120272D01*
X20879Y120231D01*
X20900Y120181D01*
X20917Y120122D01*
X20938Y120056D01*
X20954Y119981D01*
X20967Y119902D01*
X20983Y119815D01*
X20992Y119719D01*
X20996Y119615D01*
X21000Y119503D01*
Y118500D01*
X17867D01*
Y119503D01*
Y119507D01*
Y119527D01*
Y119553D01*
X17872Y119590D01*
Y119632D01*
X17876Y119681D01*
X17884Y119740D01*
X17892Y119798D01*
X17917Y119927D01*
X17951Y120056D01*
X18001Y120181D01*
X18034Y120239D01*
X18067Y120289D01*
X18071Y120293D01*
X18076Y120301D01*
X18088Y120314D01*
X18105Y120330D01*
X18125Y120351D01*
X18150Y120372D01*
X18180Y120397D01*
X18217Y120422D01*
X18254Y120447D01*
X18300Y120472D01*
X18346Y120493D01*
X18400Y120513D01*
X18458Y120530D01*
X18521Y120543D01*
X18587Y120551D01*
X18658Y120555D01*
X18687D01*
X18708Y120551D01*
X18733D01*
X18762Y120547D01*
X18833Y120534D01*
X18907Y120518D01*
X18987Y120489D01*
X19061Y120451D01*
X19132Y120397D01*
X19140Y120389D01*
X19157Y120368D01*
X19186Y120335D01*
X19219Y120285D01*
X19253Y120218D01*
X19286Y120139D01*
X19311Y120047D01*
X19328Y119943D01*
Y119948D01*
Y119960D01*
X19332Y119977D01*
X19336Y120002D01*
X19340Y120031D01*
X19349Y120068D01*
X19369Y120147D01*
X19403Y120235D01*
X19444Y120322D01*
X19498Y120409D01*
X19569Y120484D01*
X19573Y120489D01*
X19577Y120493D01*
X19590Y120501D01*
X19606Y120513D01*
X19627Y120526D01*
X19652Y120543D01*
X19681Y120559D01*
X19719Y120576D01*
X19756Y120592D01*
X19798Y120609D01*
X19848Y120626D01*
X19898Y120638D01*
X20010Y120659D01*
X20076Y120667D01*
X20185D01*
X20218Y120663D01*
D02*
G37*
G36*
X8705Y141705D02*
X8743Y141701D01*
X8789Y141693D01*
X8834Y141684D01*
X8889Y141672D01*
X8943Y141659D01*
X9001Y141639D01*
X9059Y141614D01*
X9117Y141589D01*
X9171Y141551D01*
X9225Y141514D01*
X9279Y141468D01*
X9325Y141418D01*
X9329Y141414D01*
X9334Y141406D01*
X9346Y141389D01*
X9363Y141364D01*
X9379Y141335D01*
X9400Y141297D01*
X9421Y141252D01*
X9442Y141202D01*
X9467Y141148D01*
X9488Y141081D01*
X9508Y141015D01*
X9525Y140936D01*
X9542Y140857D01*
X9554Y140765D01*
X9558Y140669D01*
X9562Y140569D01*
Y140565D01*
Y140557D01*
Y140544D01*
Y140528D01*
X9558Y140482D01*
Y140424D01*
X9554Y140353D01*
X9546Y140274D01*
X9533Y140191D01*
X9521Y140103D01*
Y140099D01*
Y140095D01*
X9517Y140083D01*
X9512Y140066D01*
X9504Y140020D01*
X9492Y139962D01*
X9475Y139895D01*
X9458Y139825D01*
X9409Y139667D01*
X8834D01*
Y139671D01*
X8839Y139675D01*
X8851Y139700D01*
X8868Y139742D01*
X8889Y139792D01*
X8913Y139858D01*
X8938Y139929D01*
X8963Y140008D01*
X8984Y140091D01*
Y140095D01*
Y140103D01*
X8988Y140116D01*
X8992Y140133D01*
X9001Y140178D01*
X9009Y140237D01*
X9017Y140307D01*
X9026Y140391D01*
X9030Y140478D01*
X9034Y140569D01*
Y140574D01*
Y140582D01*
Y140594D01*
Y140611D01*
X9030Y140657D01*
X9022Y140715D01*
X9005Y140777D01*
X8988Y140844D01*
X8959Y140911D01*
X8922Y140969D01*
X8918Y140977D01*
X8901Y140994D01*
X8876Y141015D01*
X8839Y141044D01*
X8793Y141073D01*
X8739Y141094D01*
X8676Y141110D01*
X8606Y141119D01*
X8581D01*
X8564Y141114D01*
X8522Y141110D01*
X8468Y141102D01*
X8410Y141081D01*
X8348Y141056D01*
X8289Y141019D01*
X8235Y140969D01*
X8231Y140961D01*
X8215Y140944D01*
X8194Y140911D01*
X8169Y140861D01*
X8144Y140802D01*
X8123Y140732D01*
X8106Y140648D01*
X8102Y140553D01*
Y140224D01*
X7557D01*
Y140553D01*
Y140557D01*
Y140561D01*
Y140574D01*
Y140590D01*
X7553Y140632D01*
X7545Y140686D01*
X7536Y140744D01*
X7520Y140802D01*
X7499Y140861D01*
X7470Y140911D01*
X7466Y140915D01*
X7453Y140931D01*
X7433Y140952D01*
X7403Y140977D01*
X7366Y140998D01*
X7324Y141019D01*
X7270Y141035D01*
X7212Y141040D01*
X7183D01*
X7150Y141031D01*
X7112Y141023D01*
X7071Y141006D01*
X7025Y140985D01*
X6979Y140952D01*
X6942Y140911D01*
X6937Y140906D01*
X6925Y140886D01*
X6908Y140861D01*
X6892Y140819D01*
X6875Y140769D01*
X6858Y140707D01*
X6846Y140636D01*
X6842Y140553D01*
Y140544D01*
Y140524D01*
X6846Y140486D01*
Y140440D01*
X6854Y140382D01*
X6863Y140320D01*
X6871Y140249D01*
X6887Y140174D01*
Y140170D01*
Y140166D01*
X6896Y140141D01*
X6904Y140099D01*
X6917Y140049D01*
X6937Y139987D01*
X6958Y139916D01*
X6983Y139841D01*
X7012Y139762D01*
X6451D01*
Y139767D01*
X6447Y139771D01*
Y139783D01*
X6438Y139800D01*
X6430Y139841D01*
X6413Y139895D01*
X6401Y139958D01*
X6384Y140029D01*
X6368Y140103D01*
X6355Y140183D01*
Y140187D01*
Y140191D01*
X6351Y140203D01*
Y140220D01*
X6343Y140262D01*
X6334Y140312D01*
X6330Y140374D01*
X6322Y140440D01*
X6318Y140586D01*
Y140590D01*
Y140607D01*
Y140632D01*
X6322Y140669D01*
X6326Y140711D01*
X6330Y140757D01*
X6334Y140811D01*
X6343Y140869D01*
X6372Y140990D01*
X6409Y141119D01*
X6434Y141181D01*
X6463Y141243D01*
X6497Y141302D01*
X6534Y141356D01*
X6538Y141360D01*
X6542Y141368D01*
X6555Y141381D01*
X6576Y141401D01*
X6596Y141422D01*
X6621Y141443D01*
X6655Y141468D01*
X6688Y141497D01*
X6729Y141522D01*
X6775Y141547D01*
X6821Y141568D01*
X6875Y141593D01*
X6933Y141609D01*
X6996Y141622D01*
X7058Y141630D01*
X7129Y141634D01*
X7154D01*
X7175Y141630D01*
X7199D01*
X7225Y141626D01*
X7291Y141614D01*
X7362Y141597D01*
X7441Y141568D01*
X7516Y141526D01*
X7586Y141472D01*
X7595Y141464D01*
X7615Y141443D01*
X7645Y141406D01*
X7682Y141356D01*
X7720Y141293D01*
X7757Y141214D01*
X7790Y141123D01*
X7815Y141019D01*
Y141023D01*
X7819Y141035D01*
X7824Y141052D01*
X7828Y141073D01*
X7836Y141102D01*
X7844Y141135D01*
X7873Y141210D01*
X7907Y141293D01*
X7957Y141376D01*
X8015Y141460D01*
X8086Y141530D01*
X8090Y141535D01*
X8094Y141539D01*
X8106Y141547D01*
X8123Y141560D01*
X8144Y141572D01*
X8169Y141589D01*
X8198Y141605D01*
X8231Y141622D01*
X8310Y141651D01*
X8402Y141680D01*
X8510Y141701D01*
X8568Y141709D01*
X8672D01*
X8705Y141705D01*
D02*
G37*
G36*
X21000Y125302D02*
X20226Y125110D01*
Y124278D01*
X21000Y124091D01*
Y123475D01*
X17872Y124320D01*
Y125073D01*
X21000Y125921D01*
Y125302D01*
D02*
G37*
G36*
Y127889D02*
X20214Y127511D01*
X20205Y127506D01*
X20189Y127498D01*
X20160Y127486D01*
X20122Y127469D01*
X20118D01*
X20106Y127461D01*
X20089Y127452D01*
X20068Y127440D01*
X20039Y127423D01*
X20010Y127407D01*
X19943Y127357D01*
X19877Y127303D01*
X19848Y127269D01*
X19819Y127236D01*
X19798Y127199D01*
X19781Y127161D01*
X19769Y127124D01*
X19764Y127082D01*
Y126887D01*
X21000D01*
Y126267D01*
X17872D01*
Y127157D01*
Y127165D01*
Y127182D01*
Y127215D01*
X17876Y127257D01*
X17880Y127307D01*
X17884Y127361D01*
X17888Y127423D01*
X17897Y127490D01*
X17926Y127635D01*
X17963Y127777D01*
X17988Y127843D01*
X18017Y127910D01*
X18051Y127968D01*
X18088Y128022D01*
X18092Y128026D01*
X18096Y128035D01*
X18109Y128047D01*
X18130Y128064D01*
X18150Y128085D01*
X18180Y128105D01*
X18213Y128130D01*
X18254Y128155D01*
X18300Y128180D01*
X18350Y128205D01*
X18408Y128226D01*
X18471Y128247D01*
X18537Y128263D01*
X18612Y128276D01*
X18695Y128284D01*
X18783Y128288D01*
X18812D01*
X18837Y128284D01*
X18862D01*
X18895Y128280D01*
X18970Y128268D01*
X19053Y128251D01*
X19136Y128222D01*
X19219Y128184D01*
X19299Y128130D01*
X19307Y128122D01*
X19328Y128101D01*
X19361Y128064D01*
X19398Y128014D01*
X19436Y127952D01*
X19473Y127873D01*
X19507Y127781D01*
X19527Y127677D01*
Y127681D01*
X19532Y127694D01*
X19536Y127710D01*
X19544Y127731D01*
X19557Y127756D01*
X19573Y127781D01*
X19590Y127810D01*
X19615Y127835D01*
X19619Y127839D01*
X19627Y127848D01*
X19648Y127864D01*
X19673Y127881D01*
X19706Y127906D01*
X19752Y127935D01*
X19810Y127968D01*
X19877Y128001D01*
X21000Y128571D01*
Y127889D01*
D02*
G37*
G36*
X8705Y136538D02*
X8743Y136534D01*
X8789Y136526D01*
X8834Y136518D01*
X8889Y136505D01*
X8943Y136493D01*
X9001Y136472D01*
X9059Y136447D01*
X9117Y136422D01*
X9171Y136384D01*
X9225Y136347D01*
X9279Y136301D01*
X9325Y136251D01*
X9329Y136247D01*
X9334Y136239D01*
X9346Y136222D01*
X9363Y136197D01*
X9379Y136168D01*
X9400Y136131D01*
X9421Y136085D01*
X9442Y136035D01*
X9467Y135981D01*
X9488Y135914D01*
X9508Y135848D01*
X9525Y135769D01*
X9542Y135690D01*
X9554Y135598D01*
X9558Y135503D01*
X9562Y135403D01*
Y135399D01*
Y135390D01*
Y135378D01*
Y135361D01*
X9558Y135315D01*
Y135257D01*
X9554Y135186D01*
X9546Y135107D01*
X9533Y135024D01*
X9521Y134937D01*
Y134933D01*
Y134929D01*
X9517Y134916D01*
X9512Y134899D01*
X9504Y134854D01*
X9492Y134795D01*
X9475Y134729D01*
X9458Y134658D01*
X9409Y134500D01*
X8834D01*
Y134504D01*
X8839Y134508D01*
X8851Y134533D01*
X8868Y134575D01*
X8889Y134625D01*
X8913Y134691D01*
X8938Y134762D01*
X8963Y134841D01*
X8984Y134924D01*
Y134929D01*
Y134937D01*
X8988Y134949D01*
X8992Y134966D01*
X9001Y135012D01*
X9009Y135070D01*
X9017Y135141D01*
X9026Y135224D01*
X9030Y135311D01*
X9034Y135403D01*
Y135407D01*
Y135415D01*
Y135428D01*
Y135444D01*
X9030Y135490D01*
X9022Y135548D01*
X9005Y135611D01*
X8988Y135677D01*
X8959Y135744D01*
X8922Y135802D01*
X8918Y135810D01*
X8901Y135827D01*
X8876Y135848D01*
X8839Y135877D01*
X8793Y135906D01*
X8739Y135927D01*
X8676Y135943D01*
X8606Y135952D01*
X8581D01*
X8564Y135948D01*
X8522Y135943D01*
X8468Y135935D01*
X8410Y135914D01*
X8348Y135889D01*
X8289Y135852D01*
X8235Y135802D01*
X8231Y135794D01*
X8215Y135777D01*
X8194Y135744D01*
X8169Y135694D01*
X8144Y135636D01*
X8123Y135565D01*
X8106Y135482D01*
X8102Y135386D01*
Y135057D01*
X7557D01*
Y135386D01*
Y135390D01*
Y135394D01*
Y135407D01*
Y135424D01*
X7553Y135465D01*
X7545Y135519D01*
X7536Y135577D01*
X7520Y135636D01*
X7499Y135694D01*
X7470Y135744D01*
X7466Y135748D01*
X7453Y135765D01*
X7433Y135785D01*
X7403Y135810D01*
X7366Y135831D01*
X7324Y135852D01*
X7270Y135869D01*
X7212Y135873D01*
X7183D01*
X7150Y135864D01*
X7112Y135856D01*
X7071Y135839D01*
X7025Y135819D01*
X6979Y135785D01*
X6942Y135744D01*
X6937Y135740D01*
X6925Y135719D01*
X6908Y135694D01*
X6892Y135652D01*
X6875Y135602D01*
X6858Y135540D01*
X6846Y135469D01*
X6842Y135386D01*
Y135378D01*
Y135357D01*
X6846Y135319D01*
Y135274D01*
X6854Y135215D01*
X6863Y135153D01*
X6871Y135082D01*
X6887Y135008D01*
Y135003D01*
Y134999D01*
X6896Y134974D01*
X6904Y134933D01*
X6917Y134883D01*
X6937Y134820D01*
X6958Y134750D01*
X6983Y134675D01*
X7012Y134596D01*
X6451D01*
Y134600D01*
X6447Y134604D01*
Y134616D01*
X6438Y134633D01*
X6430Y134675D01*
X6413Y134729D01*
X6401Y134791D01*
X6384Y134862D01*
X6368Y134937D01*
X6355Y135016D01*
Y135020D01*
Y135024D01*
X6351Y135037D01*
Y135053D01*
X6343Y135095D01*
X6334Y135145D01*
X6330Y135207D01*
X6322Y135274D01*
X6318Y135419D01*
Y135424D01*
Y135440D01*
Y135465D01*
X6322Y135503D01*
X6326Y135544D01*
X6330Y135590D01*
X6334Y135644D01*
X6343Y135702D01*
X6372Y135823D01*
X6409Y135952D01*
X6434Y136014D01*
X6463Y136077D01*
X6497Y136135D01*
X6534Y136189D01*
X6538Y136193D01*
X6542Y136201D01*
X6555Y136214D01*
X6576Y136235D01*
X6596Y136256D01*
X6621Y136276D01*
X6655Y136301D01*
X6688Y136330D01*
X6729Y136355D01*
X6775Y136380D01*
X6821Y136401D01*
X6875Y136426D01*
X6933Y136443D01*
X6996Y136455D01*
X7058Y136463D01*
X7129Y136468D01*
X7154D01*
X7175Y136463D01*
X7199D01*
X7225Y136459D01*
X7291Y136447D01*
X7362Y136430D01*
X7441Y136401D01*
X7516Y136360D01*
X7586Y136305D01*
X7595Y136297D01*
X7615Y136276D01*
X7645Y136239D01*
X7682Y136189D01*
X7720Y136127D01*
X7757Y136047D01*
X7790Y135956D01*
X7815Y135852D01*
Y135856D01*
X7819Y135869D01*
X7824Y135885D01*
X7828Y135906D01*
X7836Y135935D01*
X7844Y135968D01*
X7873Y136043D01*
X7907Y136127D01*
X7957Y136210D01*
X8015Y136293D01*
X8086Y136364D01*
X8090Y136368D01*
X8094Y136372D01*
X8106Y136380D01*
X8123Y136393D01*
X8144Y136405D01*
X8169Y136422D01*
X8198Y136439D01*
X8231Y136455D01*
X8310Y136484D01*
X8402Y136513D01*
X8510Y136534D01*
X8568Y136543D01*
X8672D01*
X8705Y136538D01*
D02*
G37*
G36*
X19515Y130955D02*
X19573D01*
X19640Y130951D01*
X19719Y130943D01*
X19806Y130930D01*
X19898Y130918D01*
X19993Y130901D01*
X20093Y130876D01*
X20193Y130851D01*
X20293Y130818D01*
X20389Y130780D01*
X20476Y130735D01*
X20559Y130681D01*
X20634Y130622D01*
X20638Y130618D01*
X20651Y130606D01*
X20667Y130585D01*
X20692Y130560D01*
X20717Y130522D01*
X20750Y130477D01*
X20784Y130423D01*
X20817Y130360D01*
X20850Y130285D01*
X20884Y130206D01*
X20917Y130115D01*
X20942Y130015D01*
X20967Y129907D01*
X20983Y129786D01*
X20996Y129657D01*
X21000Y129520D01*
Y128858D01*
X17872D01*
Y129520D01*
Y129524D01*
Y129528D01*
Y129553D01*
X17876Y129595D01*
Y129645D01*
X17884Y129707D01*
X17892Y129782D01*
X17901Y129861D01*
X17917Y129944D01*
X17938Y130036D01*
X17959Y130127D01*
X17992Y130219D01*
X18026Y130306D01*
X18067Y130393D01*
X18117Y130477D01*
X18171Y130556D01*
X18238Y130622D01*
X18242Y130626D01*
X18254Y130639D01*
X18275Y130656D01*
X18308Y130676D01*
X18346Y130701D01*
X18396Y130730D01*
X18458Y130760D01*
X18525Y130793D01*
X18604Y130822D01*
X18691Y130851D01*
X18791Y130880D01*
X18899Y130905D01*
X19016Y130930D01*
X19145Y130947D01*
X19286Y130955D01*
X19436Y130959D01*
X19473D01*
X19515Y130955D01*
D02*
G37*
G36*
X9500Y150092D02*
X6372D01*
Y152039D01*
X6917D01*
Y150712D01*
X7591D01*
Y151914D01*
X8135D01*
Y150712D01*
X8955D01*
Y152039D01*
X9500D01*
Y150092D01*
D02*
G37*
G36*
Y152792D02*
X6372D01*
Y153411D01*
X8955D01*
Y154730D01*
X9500D01*
Y152792D01*
D02*
G37*
G36*
X8701Y149476D02*
X8739Y149472D01*
X8784Y149463D01*
X8834Y149455D01*
X8889Y149447D01*
X9005Y149409D01*
X9063Y149389D01*
X9121Y149360D01*
X9176Y149330D01*
X9234Y149289D01*
X9284Y149247D01*
X9329Y149197D01*
X9334Y149193D01*
X9338Y149185D01*
X9350Y149168D01*
X9367Y149143D01*
X9384Y149114D01*
X9404Y149081D01*
X9425Y149035D01*
X9446Y148989D01*
X9467Y148931D01*
X9488Y148869D01*
X9508Y148798D01*
X9525Y148723D01*
X9542Y148640D01*
X9554Y148553D01*
X9558Y148457D01*
X9562Y148353D01*
Y148349D01*
Y148345D01*
Y148328D01*
Y148311D01*
X9558Y148265D01*
X9554Y148207D01*
X9550Y148136D01*
X9537Y148057D01*
X9525Y147974D01*
X9508Y147887D01*
Y147883D01*
X9504Y147879D01*
Y147866D01*
X9500Y147845D01*
X9483Y147804D01*
X9467Y147745D01*
X9442Y147675D01*
X9417Y147600D01*
X9379Y147521D01*
X9342Y147438D01*
X8701D01*
Y147442D01*
X8710Y147450D01*
X8718Y147463D01*
X8730Y147479D01*
X8747Y147500D01*
X8764Y147529D01*
X8801Y147587D01*
X8843Y147662D01*
X8889Y147741D01*
X8930Y147825D01*
X8968Y147912D01*
Y147916D01*
X8972Y147924D01*
X8976Y147937D01*
X8980Y147953D01*
X8992Y147999D01*
X9009Y148057D01*
X9026Y148124D01*
X9038Y148203D01*
X9047Y148286D01*
X9051Y148369D01*
Y148374D01*
Y148378D01*
Y148390D01*
Y148407D01*
X9047Y148449D01*
X9038Y148498D01*
X9026Y148557D01*
X9009Y148615D01*
X8984Y148673D01*
X8951Y148723D01*
X8947Y148727D01*
X8930Y148744D01*
X8909Y148765D01*
X8876Y148790D01*
X8834Y148810D01*
X8784Y148831D01*
X8726Y148848D01*
X8660Y148852D01*
X8635D01*
X8610Y148848D01*
X8576Y148839D01*
X8539Y148831D01*
X8497Y148815D01*
X8456Y148794D01*
X8414Y148765D01*
X8410Y148760D01*
X8398Y148748D01*
X8377Y148731D01*
X8352Y148702D01*
X8327Y148669D01*
X8298Y148627D01*
X8269Y148577D01*
X8244Y148523D01*
X8131Y148220D01*
X8127Y148215D01*
X8123Y148199D01*
X8115Y148174D01*
X8102Y148145D01*
X8086Y148107D01*
X8065Y148062D01*
X8044Y148016D01*
X8019Y147966D01*
X7961Y147862D01*
X7898Y147758D01*
X7865Y147708D01*
X7828Y147662D01*
X7794Y147621D01*
X7757Y147587D01*
X7753D01*
X7749Y147579D01*
X7736Y147571D01*
X7720Y147562D01*
X7703Y147550D01*
X7678Y147537D01*
X7615Y147508D01*
X7541Y147475D01*
X7453Y147450D01*
X7345Y147433D01*
X7229Y147425D01*
X7187D01*
X7158Y147429D01*
X7125Y147433D01*
X7083Y147438D01*
X7037Y147446D01*
X6987Y147458D01*
X6879Y147492D01*
X6825Y147512D01*
X6767Y147537D01*
X6713Y147571D01*
X6659Y147608D01*
X6609Y147650D01*
X6563Y147696D01*
X6559Y147700D01*
X6551Y147708D01*
X6542Y147725D01*
X6526Y147745D01*
X6505Y147775D01*
X6484Y147808D01*
X6463Y147845D01*
X6438Y147891D01*
X6417Y147941D01*
X6397Y147999D01*
X6376Y148062D01*
X6355Y148128D01*
X6338Y148199D01*
X6330Y148278D01*
X6322Y148357D01*
X6318Y148444D01*
Y148449D01*
Y148453D01*
Y148465D01*
Y148482D01*
X6322Y148523D01*
Y148582D01*
X6330Y148644D01*
X6338Y148719D01*
X6351Y148798D01*
X6368Y148877D01*
Y148881D01*
X6372Y148885D01*
Y148898D01*
X6376Y148914D01*
X6388Y148956D01*
X6405Y149010D01*
X6426Y149077D01*
X6451Y149147D01*
X6480Y149226D01*
X6513Y149305D01*
X7116D01*
Y149301D01*
X7112Y149297D01*
X7096Y149272D01*
X7071Y149231D01*
X7037Y149181D01*
X7004Y149118D01*
X6971Y149048D01*
X6933Y148977D01*
X6904Y148898D01*
Y148894D01*
X6900Y148889D01*
X6896Y148877D01*
X6892Y148864D01*
X6879Y148823D01*
X6867Y148769D01*
X6854Y148711D01*
X6842Y148640D01*
X6833Y148565D01*
X6829Y148490D01*
Y148486D01*
Y148482D01*
Y148469D01*
Y148453D01*
X6833Y148411D01*
X6842Y148361D01*
X6850Y148307D01*
X6867Y148249D01*
X6892Y148195D01*
X6921Y148145D01*
X6925Y148141D01*
X6937Y148128D01*
X6958Y148107D01*
X6987Y148087D01*
X7025Y148066D01*
X7066Y148045D01*
X7120Y148032D01*
X7179Y148028D01*
X7199D01*
X7225Y148032D01*
X7254Y148041D01*
X7287Y148049D01*
X7324Y148062D01*
X7362Y148082D01*
X7395Y148111D01*
X7399Y148116D01*
X7407Y148128D01*
X7428Y148153D01*
X7449Y148191D01*
X7478Y148240D01*
X7507Y148303D01*
X7528Y148340D01*
X7545Y148382D01*
X7561Y148428D01*
X7582Y148478D01*
X7682Y148744D01*
Y148748D01*
X7686Y148760D01*
X7695Y148781D01*
X7707Y148806D01*
X7720Y148835D01*
X7736Y148873D01*
X7778Y148956D01*
X7832Y149048D01*
X7894Y149139D01*
X7965Y149226D01*
X8007Y149264D01*
X8048Y149301D01*
X8052Y149305D01*
X8056Y149310D01*
X8073Y149318D01*
X8090Y149330D01*
X8111Y149343D01*
X8140Y149360D01*
X8169Y149376D01*
X8206Y149393D01*
X8289Y149422D01*
X8385Y149451D01*
X8497Y149472D01*
X8560Y149480D01*
X8668D01*
X8701Y149476D01*
D02*
G37*
G36*
X9500Y155258D02*
X6372D01*
Y157205D01*
X6917D01*
Y155878D01*
X7591D01*
Y157080D01*
X8135D01*
Y155878D01*
X8955D01*
Y157205D01*
X9500D01*
Y155258D01*
D02*
G37*
G36*
Y143706D02*
Y142849D01*
X6372Y142109D01*
Y142728D01*
X8988Y143278D01*
X6372Y143827D01*
Y144451D01*
X9500Y143706D01*
D02*
G37*
%LPC*%
G36*
X74706Y186456D02*
X74598D01*
X74548Y186448D01*
X74490D01*
X74340Y186423D01*
X74182Y186398D01*
X74015Y186356D01*
X73848Y186298D01*
X73698Y186215D01*
X73690D01*
X73682Y186206D01*
X73640Y186173D01*
X73573Y186123D01*
X73507Y186048D01*
X73440Y185957D01*
X73374Y185857D01*
X73332Y185732D01*
X73315Y185665D01*
Y185590D01*
Y185573D01*
X73324Y185523D01*
X73332Y185457D01*
X73365Y185373D01*
X73407Y185274D01*
X73474Y185165D01*
X73573Y185065D01*
X73632Y185015D01*
X73698Y184974D01*
X73715Y184965D01*
X73740Y184949D01*
X73765Y184940D01*
X73848Y184899D01*
X73965Y184857D01*
X74107Y184815D01*
X74282Y184774D01*
X74481Y184749D01*
X74706Y184740D01*
X74815D01*
X74865Y184749D01*
X74923Y184757D01*
X75073Y184774D01*
X75231Y184799D01*
X75398Y184840D01*
X75564Y184899D01*
X75714Y184974D01*
X75731Y184982D01*
X75773Y185015D01*
X75831Y185065D01*
X75898Y185140D01*
X75972Y185224D01*
X76031Y185332D01*
X76073Y185457D01*
X76081Y185523D01*
X76089Y185590D01*
Y185598D01*
Y185607D01*
X76081Y185657D01*
X76073Y185723D01*
X76039Y185815D01*
X75998Y185915D01*
X75931Y186023D01*
X75839Y186123D01*
X75781Y186173D01*
X75714Y186215D01*
X75706D01*
X75698Y186223D01*
X75673Y186240D01*
X75648Y186257D01*
X75564Y186290D01*
X75448Y186340D01*
X75306Y186381D01*
X75131Y186423D01*
X74931Y186448D01*
X74706Y186456D01*
D02*
G37*
G36*
X18820Y127648D02*
X18783D01*
X18741Y127644D01*
X18691Y127635D01*
X18641Y127619D01*
X18583Y127602D01*
X18533Y127573D01*
X18492Y127535D01*
X18487Y127531D01*
X18475Y127515D01*
X18458Y127490D01*
X18442Y127448D01*
X18425Y127398D01*
X18408Y127336D01*
X18396Y127261D01*
X18392Y127174D01*
Y126887D01*
X19244D01*
Y127174D01*
Y127178D01*
Y127186D01*
Y127199D01*
Y127215D01*
X19240Y127261D01*
X19232Y127315D01*
X19219Y127373D01*
X19203Y127431D01*
X19182Y127490D01*
X19149Y127535D01*
X19145Y127540D01*
X19128Y127552D01*
X19103Y127573D01*
X19070Y127594D01*
X19024Y127610D01*
X18970Y127631D01*
X18899Y127644D01*
X18820Y127648D01*
D02*
G37*
G36*
X19719Y124990D02*
X18442Y124694D01*
X19719Y124403D01*
Y124990D01*
D02*
G37*
G36*
X87506Y155485D02*
X87415D01*
Y154994D01*
Y154986D01*
Y154961D01*
Y154927D01*
Y154886D01*
X87423Y154827D01*
Y154761D01*
X87440Y154611D01*
X87456Y154453D01*
X87490Y154294D01*
X87539Y154144D01*
X87564Y154086D01*
X87598Y154028D01*
X87606Y154019D01*
X87631Y153986D01*
X87673Y153944D01*
X87739Y153894D01*
X87823Y153844D01*
X87931Y153803D01*
X88056Y153770D01*
X88206Y153761D01*
X88256D01*
X88314Y153770D01*
X88389Y153786D01*
X88472Y153803D01*
X88556Y153836D01*
X88639Y153886D01*
X88714Y153944D01*
X88722Y153953D01*
X88739Y153978D01*
X88772Y154019D01*
X88806Y154078D01*
X88839Y154153D01*
X88872Y154244D01*
X88889Y154344D01*
X88897Y154461D01*
Y154469D01*
Y154486D01*
Y154511D01*
X88889Y154544D01*
X88881Y154628D01*
X88847Y154736D01*
X88806Y154852D01*
X88739Y154977D01*
X88647Y155102D01*
X88598Y155161D01*
X88531Y155211D01*
X88522D01*
X88514Y155219D01*
X88489Y155236D01*
X88464Y155252D01*
X88381Y155294D01*
X88264Y155352D01*
X88123Y155402D01*
X87948Y155444D01*
X87739Y155477D01*
X87506Y155485D01*
D02*
G37*
G36*
X20056Y120039D02*
X20014D01*
X19968Y120031D01*
X19914Y120023D01*
X19856Y120010D01*
X19794Y119985D01*
X19739Y119956D01*
X19690Y119914D01*
X19685Y119910D01*
X19673Y119889D01*
X19652Y119860D01*
X19631Y119815D01*
X19615Y119761D01*
X19594Y119690D01*
X19581Y119602D01*
X19577Y119503D01*
Y119095D01*
X20505D01*
Y119503D01*
Y119507D01*
Y119515D01*
Y119532D01*
Y119553D01*
X20501Y119573D01*
Y119602D01*
X20493Y119665D01*
X20480Y119736D01*
X20463Y119802D01*
X20438Y119864D01*
X20405Y119919D01*
X20401Y119923D01*
X20384Y119939D01*
X20359Y119956D01*
X20322Y119981D01*
X20276Y120002D01*
X20214Y120023D01*
X20143Y120035D01*
X20056Y120039D01*
D02*
G37*
G36*
X18729Y119939D02*
X18695D01*
X18662Y119935D01*
X18620Y119927D01*
X18575Y119914D01*
X18525Y119894D01*
X18483Y119869D01*
X18446Y119835D01*
X18442Y119831D01*
X18433Y119815D01*
X18417Y119790D01*
X18400Y119756D01*
X18387Y119711D01*
X18371Y119652D01*
X18363Y119586D01*
X18358Y119503D01*
Y119095D01*
X19086D01*
Y119503D01*
Y119507D01*
Y119515D01*
Y119523D01*
Y119540D01*
X19082Y119582D01*
X19074Y119636D01*
X19066Y119690D01*
X19053Y119744D01*
X19032Y119798D01*
X19003Y119840D01*
X18999Y119844D01*
X18987Y119856D01*
X18966Y119873D01*
X18937Y119889D01*
X18899Y119906D01*
X18853Y119923D01*
X18795Y119935D01*
X18729Y119939D01*
D02*
G37*
G36*
X87506Y134794D02*
X87415D01*
Y134302D01*
Y134294D01*
Y134269D01*
Y134236D01*
Y134194D01*
X87423Y134136D01*
Y134069D01*
X87440Y133919D01*
X87456Y133761D01*
X87490Y133602D01*
X87539Y133453D01*
X87564Y133394D01*
X87598Y133336D01*
X87606Y133328D01*
X87631Y133294D01*
X87673Y133253D01*
X87739Y133203D01*
X87823Y133153D01*
X87931Y133111D01*
X88056Y133078D01*
X88206Y133069D01*
X88256D01*
X88314Y133078D01*
X88389Y133094D01*
X88472Y133111D01*
X88556Y133144D01*
X88639Y133194D01*
X88714Y133253D01*
X88722Y133261D01*
X88739Y133286D01*
X88772Y133328D01*
X88806Y133386D01*
X88839Y133461D01*
X88872Y133553D01*
X88889Y133652D01*
X88897Y133769D01*
Y133777D01*
Y133794D01*
Y133819D01*
X88889Y133852D01*
X88881Y133936D01*
X88847Y134044D01*
X88806Y134161D01*
X88739Y134286D01*
X88647Y134411D01*
X88598Y134469D01*
X88531Y134519D01*
X88522D01*
X88514Y134527D01*
X88489Y134544D01*
X88464Y134561D01*
X88381Y134602D01*
X88264Y134660D01*
X88123Y134710D01*
X87948Y134752D01*
X87739Y134785D01*
X87506Y134794D01*
D02*
G37*
G36*
X54384Y110003D02*
X54293D01*
Y109512D01*
Y109503D01*
Y109478D01*
Y109445D01*
Y109403D01*
X54301Y109345D01*
Y109278D01*
X54317Y109128D01*
X54334Y108970D01*
X54368Y108812D01*
X54418Y108662D01*
X54443Y108604D01*
X54476Y108545D01*
X54484Y108537D01*
X54509Y108504D01*
X54551Y108462D01*
X54617Y108412D01*
X54701Y108362D01*
X54809Y108320D01*
X54934Y108287D01*
X55084Y108279D01*
X55134D01*
X55192Y108287D01*
X55267Y108304D01*
X55351Y108320D01*
X55434Y108354D01*
X55517Y108404D01*
X55592Y108462D01*
X55600Y108470D01*
X55617Y108495D01*
X55650Y108537D01*
X55684Y108595D01*
X55717Y108670D01*
X55750Y108762D01*
X55767Y108862D01*
X55775Y108978D01*
Y108987D01*
Y109003D01*
Y109028D01*
X55767Y109062D01*
X55759Y109145D01*
X55725Y109253D01*
X55684Y109370D01*
X55617Y109495D01*
X55525Y109620D01*
X55475Y109678D01*
X55409Y109728D01*
X55400D01*
X55392Y109737D01*
X55367Y109753D01*
X55342Y109770D01*
X55259Y109811D01*
X55142Y109870D01*
X55001Y109920D01*
X54826Y109961D01*
X54617Y109995D01*
X54384Y110003D01*
D02*
G37*
G36*
X19544Y122564D02*
X19353D01*
X19307Y122560D01*
X19253D01*
X19195Y122556D01*
X19128Y122552D01*
X18995Y122535D01*
X18858Y122519D01*
X18795Y122506D01*
X18733Y122489D01*
X18675Y122473D01*
X18625Y122452D01*
X18620D01*
X18612Y122448D01*
X18600Y122440D01*
X18583Y122431D01*
X18546Y122406D01*
X18496Y122369D01*
X18450Y122319D01*
X18408Y122261D01*
X18396Y122227D01*
X18383Y122190D01*
X18375Y122148D01*
X18371Y122107D01*
Y122103D01*
Y122098D01*
Y122086D01*
X18375Y122069D01*
X18383Y122028D01*
X18404Y121978D01*
X18433Y121920D01*
X18454Y121895D01*
X18479Y121865D01*
X18508Y121836D01*
X18541Y121811D01*
X18579Y121786D01*
X18625Y121766D01*
X18629D01*
X18637Y121761D01*
X18650Y121757D01*
X18675Y121749D01*
X18699Y121741D01*
X18733Y121732D01*
X18774Y121720D01*
X18820Y121712D01*
X18874Y121703D01*
X18937Y121691D01*
X19003Y121682D01*
X19078Y121674D01*
X19157Y121666D01*
X19244Y121662D01*
X19340Y121657D01*
X19536D01*
X19581Y121662D01*
X19636D01*
X19694Y121666D01*
X19756Y121670D01*
X19889Y121682D01*
X20027Y121703D01*
X20089Y121716D01*
X20151Y121728D01*
X20210Y121745D01*
X20259Y121766D01*
X20264D01*
X20272Y121770D01*
X20285Y121778D01*
X20297Y121786D01*
X20339Y121811D01*
X20384Y121849D01*
X20430Y121895D01*
X20472Y121957D01*
X20484Y121990D01*
X20497Y122023D01*
X20505Y122065D01*
X20509Y122107D01*
Y122111D01*
Y122119D01*
Y122127D01*
X20505Y122144D01*
X20497Y122186D01*
X20476Y122240D01*
X20447Y122294D01*
X20426Y122323D01*
X20405Y122352D01*
X20376Y122381D01*
X20343Y122406D01*
X20305Y122431D01*
X20259Y122452D01*
X20255D01*
X20247Y122456D01*
X20230Y122465D01*
X20210Y122469D01*
X20185Y122477D01*
X20151Y122489D01*
X20110Y122498D01*
X20064Y122510D01*
X20010Y122519D01*
X19948Y122527D01*
X19881Y122539D01*
X19810Y122548D01*
X19727Y122556D01*
X19640Y122560D01*
X19544Y122564D01*
D02*
G37*
G36*
X86748Y145290D02*
X86698D01*
X86665Y145281D01*
X86582Y145273D01*
X86473Y145256D01*
X86357Y145223D01*
X86232Y145181D01*
X86115Y145123D01*
X86015Y145040D01*
X86007Y145031D01*
X85974Y144998D01*
X85932Y144940D01*
X85890Y144865D01*
X85840Y144765D01*
X85807Y144640D01*
X85774Y144498D01*
X85765Y144332D01*
Y144323D01*
Y144315D01*
Y144265D01*
X85782Y144182D01*
X85799Y144090D01*
X85832Y143982D01*
X85874Y143865D01*
X85940Y143757D01*
X86023Y143657D01*
X86032Y143649D01*
X86073Y143615D01*
X86132Y143574D01*
X86215Y143524D01*
X86315Y143474D01*
X86440Y143432D01*
X86590Y143390D01*
X86756Y143365D01*
X86748Y145290D01*
D02*
G37*
G36*
X75006Y150312D02*
X74915D01*
Y149821D01*
Y149813D01*
Y149788D01*
Y149754D01*
Y149713D01*
X74923Y149654D01*
Y149588D01*
X74940Y149438D01*
X74956Y149280D01*
X74990Y149121D01*
X75039Y148971D01*
X75064Y148913D01*
X75098Y148855D01*
X75106Y148846D01*
X75131Y148813D01*
X75173Y148772D01*
X75239Y148722D01*
X75323Y148671D01*
X75431Y148630D01*
X75556Y148597D01*
X75706Y148588D01*
X75756D01*
X75814Y148597D01*
X75889Y148613D01*
X75972Y148630D01*
X76056Y148663D01*
X76139Y148713D01*
X76214Y148772D01*
X76222Y148780D01*
X76239Y148805D01*
X76272Y148846D01*
X76306Y148905D01*
X76339Y148980D01*
X76372Y149071D01*
X76389Y149171D01*
X76397Y149288D01*
Y149296D01*
Y149313D01*
Y149338D01*
X76389Y149371D01*
X76381Y149454D01*
X76347Y149563D01*
X76306Y149679D01*
X76239Y149804D01*
X76147Y149929D01*
X76098Y149988D01*
X76031Y150038D01*
X76022D01*
X76014Y150046D01*
X75989Y150063D01*
X75964Y150079D01*
X75881Y150121D01*
X75764Y150179D01*
X75623Y150229D01*
X75448Y150271D01*
X75239Y150304D01*
X75006Y150312D01*
D02*
G37*
G36*
X74190Y165898D02*
X73882D01*
X73807Y165890D01*
X73723D01*
X73615Y165881D01*
X73507Y165873D01*
X73382Y165856D01*
X73124Y165823D01*
X72865Y165765D01*
X72749Y165731D01*
X72632Y165690D01*
X72524Y165648D01*
X72432Y165590D01*
X72424D01*
X72416Y165573D01*
X72357Y165531D01*
X72291Y165456D01*
X72249Y165407D01*
X72199Y165348D01*
X72157Y165281D01*
X72116Y165198D01*
X72082Y165115D01*
X72049Y165023D01*
X72016Y164923D01*
X71991Y164807D01*
X71982Y164690D01*
X71974Y164557D01*
Y164224D01*
X76006D01*
Y164557D01*
Y164565D01*
Y164590D01*
Y164623D01*
X75998Y164673D01*
X75989Y164732D01*
X75981Y164807D01*
X75947Y164957D01*
X75898Y165132D01*
X75814Y165298D01*
X75756Y165382D01*
X75698Y165456D01*
X75631Y165531D01*
X75548Y165590D01*
X75539D01*
X75523Y165606D01*
X75498Y165615D01*
X75456Y165640D01*
X75406Y165665D01*
X75348Y165690D01*
X75273Y165715D01*
X75181Y165748D01*
X75081Y165773D01*
X74965Y165798D01*
X74840Y165823D01*
X74698Y165848D01*
X74540Y165873D01*
X74373Y165881D01*
X74190Y165898D01*
D02*
G37*
G36*
X19536Y130314D02*
X19382D01*
X19344Y130310D01*
X19303D01*
X19249Y130306D01*
X19195Y130302D01*
X19132Y130294D01*
X19003Y130277D01*
X18874Y130248D01*
X18816Y130231D01*
X18758Y130210D01*
X18704Y130190D01*
X18658Y130160D01*
X18654D01*
X18650Y130152D01*
X18620Y130131D01*
X18587Y130094D01*
X18566Y130069D01*
X18541Y130040D01*
X18521Y130007D01*
X18500Y129965D01*
X18483Y129923D01*
X18467Y129878D01*
X18450Y129828D01*
X18437Y129769D01*
X18433Y129711D01*
X18429Y129645D01*
Y129478D01*
X20443D01*
Y129645D01*
Y129649D01*
Y129661D01*
Y129678D01*
X20438Y129703D01*
X20434Y129732D01*
X20430Y129769D01*
X20413Y129844D01*
X20389Y129932D01*
X20347Y130015D01*
X20318Y130057D01*
X20289Y130094D01*
X20255Y130131D01*
X20214Y130160D01*
X20210D01*
X20201Y130169D01*
X20189Y130173D01*
X20168Y130185D01*
X20143Y130198D01*
X20114Y130210D01*
X20076Y130223D01*
X20031Y130239D01*
X19981Y130252D01*
X19923Y130264D01*
X19860Y130277D01*
X19789Y130289D01*
X19710Y130302D01*
X19627Y130306D01*
X19536Y130314D01*
D02*
G37*
G36*
X74773Y145281D02*
X74665D01*
X74606Y145273D01*
X74540D01*
X74390Y145256D01*
X74215Y145223D01*
X74040Y145181D01*
X73873Y145123D01*
X73715Y145048D01*
X73707D01*
X73698Y145040D01*
X73657Y145006D01*
X73590Y144956D01*
X73515Y144890D01*
X73448Y144798D01*
X73382Y144690D01*
X73340Y144573D01*
X73324Y144507D01*
Y144431D01*
Y144423D01*
Y144415D01*
X73332Y144365D01*
X73340Y144290D01*
X73374Y144207D01*
X73415Y144098D01*
X73490Y143998D01*
X73582Y143890D01*
X73648Y143840D01*
X73715Y143798D01*
X73723D01*
X73732Y143790D01*
X73757Y143782D01*
X73782Y143765D01*
X73823Y143748D01*
X73873Y143723D01*
X73990Y143690D01*
X74140Y143649D01*
X74323Y143607D01*
X74531Y143582D01*
X74773Y143574D01*
X74881D01*
X74940Y143582D01*
X75006D01*
X75165Y143599D01*
X75331Y143632D01*
X75514Y143665D01*
X75681Y143723D01*
X75839Y143798D01*
X75856Y143807D01*
X75898Y143840D01*
X75964Y143890D01*
X76031Y143965D01*
X76098Y144057D01*
X76164Y144165D01*
X76206Y144290D01*
X76214Y144357D01*
X76222Y144431D01*
Y144440D01*
Y144448D01*
X76214Y144498D01*
X76206Y144565D01*
X76172Y144657D01*
X76131Y144756D01*
X76064Y144856D01*
X75964Y144956D01*
X75906Y145006D01*
X75839Y145048D01*
X75831D01*
X75823Y145056D01*
X75798Y145073D01*
X75764Y145081D01*
X75731Y145106D01*
X75681Y145123D01*
X75564Y145165D01*
X75414Y145206D01*
X75231Y145248D01*
X75015Y145273D01*
X74773Y145281D01*
D02*
G37*
G36*
X74781Y134894D02*
X74665D01*
X74615Y134885D01*
X74548Y134877D01*
X74390Y134860D01*
X74215Y134827D01*
X74040Y134785D01*
X73865Y134719D01*
X73707Y134635D01*
X73698D01*
X73690Y134627D01*
X73648Y134594D01*
X73582Y134536D01*
X73507Y134452D01*
X73440Y134361D01*
X73374Y134236D01*
X73332Y134102D01*
X73315Y134027D01*
Y133944D01*
Y133936D01*
Y133927D01*
Y133902D01*
X73324Y133869D01*
X73332Y133794D01*
X73365Y133694D01*
X73407Y133586D01*
X73482Y133478D01*
X73573Y133361D01*
X73640Y133311D01*
X73707Y133261D01*
X73715D01*
X73723Y133253D01*
X73748Y133236D01*
X73782Y133219D01*
X73815Y133203D01*
X73865Y133186D01*
X73990Y133136D01*
X74140Y133094D01*
X74323Y133053D01*
X74540Y133019D01*
X74781Y133011D01*
X74848D01*
X74898Y133019D01*
X74956D01*
X75023Y133028D01*
X75173Y133044D01*
X75348Y133069D01*
X75531Y133119D01*
X75706Y133178D01*
X75864Y133261D01*
X75881Y133269D01*
X75923Y133311D01*
X75989Y133361D01*
X76056Y133444D01*
X76122Y133536D01*
X76189Y133652D01*
X76231Y133794D01*
X76239Y133869D01*
X76247Y133944D01*
Y133952D01*
Y133961D01*
Y133986D01*
X76239Y134019D01*
X76231Y134094D01*
X76197Y134194D01*
X76156Y134311D01*
X76089Y134419D01*
X75989Y134536D01*
X75931Y134585D01*
X75864Y134635D01*
X75856D01*
X75848Y134644D01*
X75823Y134660D01*
X75789Y134677D01*
X75756Y134694D01*
X75706Y134719D01*
X75648Y134744D01*
X75581Y134769D01*
X75431Y134810D01*
X75239Y134852D01*
X75023Y134885D01*
X74781Y134894D01*
D02*
G37*
G36*
X94807Y153207D02*
X94622D01*
X94577Y153202D01*
X94527D01*
X94462Y153197D01*
X94397Y153192D01*
X94322Y153182D01*
X94167Y153162D01*
X94012Y153127D01*
X93942Y153107D01*
X93872Y153082D01*
X93807Y153057D01*
X93752Y153022D01*
X93747D01*
X93742Y153012D01*
X93707Y152987D01*
X93667Y152942D01*
X93642Y152912D01*
X93612Y152877D01*
X93587Y152837D01*
X93562Y152787D01*
X93542Y152737D01*
X93522Y152682D01*
X93502Y152622D01*
X93487Y152552D01*
X93482Y152482D01*
X93477Y152402D01*
Y152202D01*
X95897D01*
Y152402D01*
Y152407D01*
Y152422D01*
Y152442D01*
X95892Y152472D01*
X95887Y152507D01*
X95882Y152552D01*
X95862Y152642D01*
X95832Y152747D01*
X95782Y152847D01*
X95747Y152897D01*
X95712Y152942D01*
X95672Y152987D01*
X95622Y153022D01*
X95617D01*
X95607Y153032D01*
X95592Y153037D01*
X95567Y153052D01*
X95537Y153067D01*
X95502Y153082D01*
X95457Y153097D01*
X95402Y153117D01*
X95342Y153132D01*
X95272Y153147D01*
X95197Y153162D01*
X95112Y153177D01*
X95017Y153192D01*
X94917Y153197D01*
X94807Y153207D01*
D02*
G37*
G36*
X95398Y144028D02*
X95340D01*
X95315Y144024D01*
X95281Y144020D01*
X95202Y144012D01*
X95115Y143995D01*
X95028Y143974D01*
X94940Y143941D01*
X94861Y143899D01*
X94857D01*
X94853Y143895D01*
X94832Y143879D01*
X94799Y143850D01*
X94762Y143808D01*
X94728Y143762D01*
X94695Y143700D01*
X94674Y143633D01*
X94666Y143596D01*
Y143554D01*
Y143550D01*
Y143546D01*
Y143533D01*
X94670Y143517D01*
X94674Y143479D01*
X94691Y143429D01*
X94712Y143375D01*
X94749Y143321D01*
X94795Y143263D01*
X94828Y143238D01*
X94861Y143213D01*
X94866D01*
X94870Y143209D01*
X94882Y143201D01*
X94899Y143192D01*
X94915Y143184D01*
X94940Y143176D01*
X95003Y143151D01*
X95078Y143130D01*
X95169Y143109D01*
X95277Y143092D01*
X95398Y143088D01*
X95431D01*
X95456Y143092D01*
X95485D01*
X95519Y143096D01*
X95594Y143105D01*
X95681Y143117D01*
X95772Y143142D01*
X95860Y143171D01*
X95939Y143213D01*
X95947Y143217D01*
X95968Y143238D01*
X96001Y143263D01*
X96034Y143305D01*
X96068Y143350D01*
X96101Y143409D01*
X96122Y143479D01*
X96126Y143517D01*
X96130Y143554D01*
Y143558D01*
Y143562D01*
Y143575D01*
X96126Y143592D01*
X96122Y143629D01*
X96105Y143679D01*
X96084Y143737D01*
X96051Y143791D01*
X96001Y143850D01*
X95972Y143875D01*
X95939Y143899D01*
X95935D01*
X95930Y143904D01*
X95918Y143912D01*
X95901Y143920D01*
X95885Y143929D01*
X95860Y143941D01*
X95831Y143954D01*
X95797Y143966D01*
X95723Y143987D01*
X95627Y144008D01*
X95519Y144024D01*
X95398Y144028D01*
D02*
G37*
G36*
X77677Y75378D02*
X77602D01*
X77527Y75361D01*
X77427Y75345D01*
X77318Y75311D01*
X77202Y75270D01*
X77085Y75203D01*
X76977Y75120D01*
X76969Y75111D01*
X76935Y75070D01*
X76894Y75020D01*
X76844Y74936D01*
X76794Y74845D01*
X76752Y74728D01*
X76719Y74595D01*
X76710Y74445D01*
Y74437D01*
Y74428D01*
Y74378D01*
X76727Y74303D01*
X76744Y74203D01*
X76777Y74095D01*
X76819Y73987D01*
X76885Y73870D01*
X76977Y73770D01*
X76985Y73762D01*
X77027Y73729D01*
X77085Y73695D01*
X77160Y73645D01*
X77268Y73604D01*
X77385Y73562D01*
X77518Y73529D01*
X77677Y73520D01*
X77718D01*
X77752Y73529D01*
X77827Y73537D01*
X77926Y73554D01*
X78035Y73579D01*
X78151Y73629D01*
X78268Y73687D01*
X78376Y73770D01*
X78385Y73779D01*
X78418Y73820D01*
X78460Y73870D01*
X78501Y73953D01*
X78551Y74045D01*
X78593Y74162D01*
X78626Y74295D01*
X78635Y74445D01*
Y74453D01*
Y74462D01*
X78626Y74512D01*
X78618Y74587D01*
X78601Y74687D01*
X78568Y74795D01*
X78518Y74903D01*
X78460Y75020D01*
X78368Y75120D01*
X78351Y75128D01*
X78318Y75161D01*
X78260Y75203D01*
X78185Y75253D01*
X78085Y75295D01*
X77960Y75336D01*
X77827Y75370D01*
X77677Y75378D01*
D02*
G37*
G36*
X74928Y75236D02*
X74869D01*
X74803Y75228D01*
X74720Y75211D01*
X74628Y75186D01*
X74528Y75145D01*
X74436Y75095D01*
X74353Y75020D01*
X74345Y75011D01*
X74320Y74978D01*
X74286Y74936D01*
X74245Y74870D01*
X74203Y74787D01*
X74170Y74687D01*
X74145Y74578D01*
X74136Y74445D01*
Y74428D01*
Y74387D01*
X74145Y74320D01*
X74161Y74237D01*
X74186Y74145D01*
X74228Y74054D01*
X74278Y73953D01*
X74353Y73870D01*
X74361Y73862D01*
X74395Y73837D01*
X74436Y73804D01*
X74503Y73770D01*
X74586Y73729D01*
X74686Y73695D01*
X74803Y73670D01*
X74928Y73662D01*
X74986D01*
X75053Y73670D01*
X75136Y73687D01*
X75228Y73712D01*
X75328Y73754D01*
X75419Y73804D01*
X75511Y73870D01*
X75519Y73879D01*
X75544Y73912D01*
X75577Y73953D01*
X75611Y74020D01*
X75652Y74103D01*
X75686Y74203D01*
X75711Y74312D01*
X75719Y74445D01*
Y74453D01*
Y74462D01*
Y74503D01*
X75711Y74570D01*
X75694Y74653D01*
X75669Y74745D01*
X75627Y74845D01*
X75577Y74936D01*
X75511Y75020D01*
X75503Y75028D01*
X75469Y75053D01*
X75419Y75086D01*
X75353Y75128D01*
X75269Y75170D01*
X75169Y75203D01*
X75061Y75228D01*
X74928Y75236D01*
D02*
G37*
G36*
X86748Y181500D02*
X86698D01*
X86665Y181492D01*
X86582Y181483D01*
X86473Y181467D01*
X86357Y181433D01*
X86232Y181392D01*
X86115Y181333D01*
X86015Y181250D01*
X86007Y181242D01*
X85974Y181209D01*
X85932Y181150D01*
X85890Y181075D01*
X85840Y180975D01*
X85807Y180850D01*
X85774Y180709D01*
X85765Y180542D01*
Y180534D01*
Y180525D01*
Y180475D01*
X85782Y180392D01*
X85799Y180300D01*
X85832Y180192D01*
X85874Y180076D01*
X85940Y179967D01*
X86023Y179867D01*
X86032Y179859D01*
X86073Y179826D01*
X86132Y179784D01*
X86215Y179734D01*
X86315Y179684D01*
X86440Y179642D01*
X86590Y179601D01*
X86756Y179576D01*
X86748Y181500D01*
D02*
G37*
G36*
X87290Y191588D02*
X87181D01*
X87123Y191579D01*
X87056D01*
X86906Y191563D01*
X86731Y191529D01*
X86557Y191488D01*
X86390Y191429D01*
X86232Y191354D01*
X86223D01*
X86215Y191346D01*
X86173Y191313D01*
X86107Y191263D01*
X86032Y191188D01*
X85965Y191096D01*
X85899Y190996D01*
X85857Y190871D01*
X85840Y190805D01*
Y190730D01*
Y190721D01*
Y190713D01*
X85849Y190663D01*
X85857Y190588D01*
X85890Y190505D01*
X85932Y190405D01*
X86007Y190296D01*
X86098Y190197D01*
X86165Y190147D01*
X86232Y190105D01*
X86240D01*
X86248Y190097D01*
X86273Y190088D01*
X86298Y190072D01*
X86340Y190055D01*
X86390Y190030D01*
X86507Y189997D01*
X86657Y189955D01*
X86840Y189913D01*
X87048Y189888D01*
X87290Y189880D01*
X87398D01*
X87456Y189888D01*
X87523D01*
X87681Y189905D01*
X87848Y189938D01*
X88031Y189972D01*
X88198Y190030D01*
X88356Y190105D01*
X88372Y190113D01*
X88414Y190147D01*
X88481Y190197D01*
X88547Y190271D01*
X88614Y190355D01*
X88681Y190463D01*
X88722Y190588D01*
X88731Y190655D01*
X88739Y190730D01*
Y190738D01*
Y190746D01*
X88731Y190796D01*
X88722Y190863D01*
X88689Y190955D01*
X88647Y191055D01*
X88581Y191163D01*
X88481Y191263D01*
X88423Y191313D01*
X88356Y191354D01*
X88348D01*
X88339Y191363D01*
X88314Y191379D01*
X88281Y191388D01*
X88248Y191413D01*
X88198Y191429D01*
X88081Y191471D01*
X87931Y191513D01*
X87748Y191554D01*
X87531Y191579D01*
X87290Y191588D01*
D02*
G37*
G36*
X95132Y131137D02*
X95107D01*
X95090Y131132D01*
X95048Y131128D01*
X94994Y131120D01*
X94936Y131103D01*
X94874Y131082D01*
X94816Y131053D01*
X94766Y131012D01*
X94762Y131008D01*
X94745Y130991D01*
X94724Y130962D01*
X94703Y130924D01*
X94678Y130875D01*
X94662Y130812D01*
X94645Y130741D01*
X94641Y130658D01*
Y130654D01*
Y130650D01*
Y130625D01*
X94649Y130583D01*
X94657Y130537D01*
X94674Y130483D01*
X94695Y130425D01*
X94728Y130371D01*
X94770Y130321D01*
X94774Y130317D01*
X94795Y130300D01*
X94824Y130280D01*
X94866Y130255D01*
X94915Y130230D01*
X94978Y130209D01*
X95053Y130188D01*
X95136Y130176D01*
X95132Y131137D01*
D02*
G37*
G36*
X74248Y171154D02*
X74198D01*
X74165Y171146D01*
X74082Y171137D01*
X73973Y171121D01*
X73857Y171088D01*
X73732Y171046D01*
X73615Y170988D01*
X73515Y170904D01*
X73507Y170896D01*
X73474Y170863D01*
X73432Y170804D01*
X73390Y170729D01*
X73340Y170629D01*
X73307Y170504D01*
X73274Y170363D01*
X73265Y170196D01*
Y170188D01*
Y170180D01*
Y170130D01*
X73282Y170046D01*
X73299Y169955D01*
X73332Y169846D01*
X73374Y169730D01*
X73440Y169622D01*
X73523Y169521D01*
X73532Y169513D01*
X73573Y169480D01*
X73632Y169438D01*
X73715Y169388D01*
X73815Y169338D01*
X73940Y169297D01*
X74090Y169255D01*
X74256Y169230D01*
X74248Y171154D01*
D02*
G37*
G36*
X94387Y128428D02*
X94350D01*
X94308Y128424D01*
X94258Y128416D01*
X94208Y128399D01*
X94150Y128383D01*
X94100Y128354D01*
X94059Y128316D01*
X94054Y128312D01*
X94042Y128295D01*
X94025Y128270D01*
X94008Y128229D01*
X93992Y128179D01*
X93975Y128116D01*
X93963Y128042D01*
X93959Y127954D01*
Y127667D01*
X94811D01*
Y127954D01*
Y127958D01*
Y127967D01*
Y127979D01*
Y127996D01*
X94807Y128042D01*
X94799Y128096D01*
X94787Y128154D01*
X94770Y128212D01*
X94749Y128270D01*
X94716Y128316D01*
X94712Y128320D01*
X94695Y128333D01*
X94670Y128354D01*
X94637Y128374D01*
X94591Y128391D01*
X94537Y128412D01*
X94466Y128424D01*
X94387Y128428D01*
D02*
G37*
%LPD*%
D23*
X13626Y120000D02*
X14000D01*
X4000D02*
X4472D01*
X4000Y94606D02*
X14000D01*
X4000D02*
Y125000D01*
X14000D01*
Y94606D02*
Y125000D01*
X2307Y27500D02*
X3307D01*
X1913Y21791D02*
Y43740D01*
Y21791D02*
X16087D01*
Y43740D01*
X1913D02*
X16087D01*
X14709Y27500D02*
X15709D01*
D26*
X161859Y32497D02*
G03*
X161859Y29297I-3300J-1600D01*
G01*
X160575Y22704D02*
G03*
X163227Y23730I-1635J8161D01*
G01*
X154413Y23805D02*
G03*
X156859Y22759I4456J7040D01*
G01*
X150752Y28922D02*
G03*
X151723Y26532I8104J1899D01*
G01*
X151742Y35234D02*
G03*
X150734Y32750I7143J-4346D01*
G01*
X156859Y38987D02*
G03*
X154375Y37885I1997J-7852D01*
G01*
X163264Y37998D02*
G03*
X160594Y39006I-4145J-6937D01*
G01*
X61319Y68032D02*
X63681D01*
X40472Y72165D02*
X44213D01*
X40472Y60354D02*
X44213D01*
X40472D02*
Y72165D01*
X44213Y60354D02*
Y72165D01*
X61319Y38032D02*
X63681D01*
X40472Y42165D02*
X44213D01*
X40472Y30354D02*
X44213D01*
X40472D02*
Y42165D01*
X44213Y30354D02*
Y42165D01*
X45531Y76319D02*
Y78681D01*
Y46319D02*
Y48681D01*
X161959Y29297D02*
X166459Y27297D01*
X165859Y26297D02*
X166459Y27297D01*
X165859Y26297D02*
X167559Y23897D01*
X165659Y22097D02*
X167559Y23897D01*
X163259Y23697D02*
X165659Y22097D01*
X160059Y19697D02*
X160559Y22697D01*
X157459Y19697D02*
X160059D01*
X156859Y22697D02*
X157459Y19697D01*
X151759Y21997D02*
X154359Y23797D01*
X149959Y23897D02*
X151759Y21997D01*
X149959Y23897D02*
X151759Y26497D01*
X147559Y29497D02*
X150759Y28997D01*
X147559Y29497D02*
Y32197D01*
X150759Y32697D01*
X149959Y37797D02*
X151759Y35197D01*
X149959Y37797D02*
X151759Y39697D01*
X154359Y37897D01*
X156859Y38997D02*
X157459Y41997D01*
X160059D01*
X160559Y38997D01*
X163259Y37997D02*
X165659Y39697D01*
X167559Y37797D01*
X165859Y35397D02*
X167559Y37797D01*
X165859Y35397D02*
X166459Y34397D01*
X161959Y32497D02*
X166459Y34397D01*
X6099Y131099D02*
X5100D01*
X5599D01*
Y128600D01*
X5100Y128100D01*
X4600D01*
X4100Y128600D01*
X9098Y131099D02*
X8099Y130599D01*
X7099Y129599D01*
Y128600D01*
X7599Y128100D01*
X8599D01*
X9098Y128600D01*
Y129100D01*
X8599Y129599D01*
X7099D01*
X6954Y13299D02*
Y12299D01*
Y12799D01*
X9453D01*
X9953Y12299D01*
Y11799D01*
X9453Y11299D01*
X6954Y14298D02*
Y16298D01*
X7454D01*
X9453Y14298D01*
X9953D01*
X35999Y189000D02*
X33000D01*
Y187001D01*
X35999Y184002D02*
Y186001D01*
X33000D01*
Y184002D01*
X34499Y186001D02*
Y185001D01*
X35999Y183002D02*
X33000D01*
Y181502D01*
X33500Y181003D01*
X35499D01*
X35999Y181502D01*
Y183002D01*
X33000Y180003D02*
Y179003D01*
Y179503D01*
X35999D01*
X35499Y180003D01*
X50000Y168500D02*
Y171499D01*
X51499D01*
X51999Y170999D01*
Y170000D01*
X51499Y169500D01*
X50000D01*
X51000D02*
X51999Y168500D01*
X52999Y170999D02*
X53499Y171499D01*
X54499D01*
X54998Y170999D01*
Y170499D01*
X54499Y170000D01*
X54998Y169500D01*
Y169000D01*
X54499Y168500D01*
X53499D01*
X52999Y169000D01*
Y169500D01*
X53499Y170000D01*
X52999Y170499D01*
Y170999D01*
X53499Y170000D02*
X54499D01*
X63499Y46499D02*
X62999Y46999D01*
X62000D01*
X61500Y46499D01*
Y44500D01*
X62000Y44000D01*
X62999D01*
X63499Y44500D01*
X64499Y44000D02*
X65499D01*
X64999D01*
Y46999D01*
X64499Y46499D01*
X28501Y46499D02*
X28001Y46000D01*
Y45000D01*
X28501Y44500D01*
X30500D01*
X31000Y45000D01*
Y46000D01*
X30500Y46499D01*
X31000Y49498D02*
Y47499D01*
X29001Y49498D01*
X28501D01*
X28001Y48999D01*
Y47999D01*
X28501Y47499D01*
X44799Y54199D02*
X44300Y54699D01*
X43300D01*
X42800Y54199D01*
Y52200D01*
X43300Y51700D01*
X44300D01*
X44799Y52200D01*
X45799Y54199D02*
X46299Y54699D01*
X47299D01*
X47798Y54199D01*
Y53699D01*
X47299Y53199D01*
X46799D01*
X47299D01*
X47798Y52700D01*
Y52200D01*
X47299Y51700D01*
X46299D01*
X45799Y52200D01*
X63499Y76499D02*
X62999Y76999D01*
X62000D01*
X61500Y76499D01*
Y74500D01*
X62000Y74000D01*
X62999D01*
X63499Y74500D01*
X65999Y74000D02*
Y76999D01*
X64499Y75499D01*
X66498D01*
X28501Y74968D02*
X28001Y74468D01*
Y73468D01*
X28501Y72969D01*
X30500D01*
X31000Y73468D01*
Y74468D01*
X30500Y74968D01*
X28001Y77967D02*
Y75968D01*
X29500D01*
X29001Y76967D01*
Y77467D01*
X29500Y77967D01*
X30500D01*
X31000Y77467D01*
Y76467D01*
X30500Y75968D01*
X53900Y44500D02*
Y47499D01*
X55400D01*
X55899Y46999D01*
Y46000D01*
X55400Y45500D01*
X53900D01*
X54900D02*
X55899Y44500D01*
X56899D02*
X57899D01*
X57399D01*
Y47499D01*
X56899Y46999D01*
X40752Y137004D02*
Y134005D01*
X39252D01*
X38753Y134505D01*
Y135504D01*
X39252Y136004D01*
X40752D01*
X39752D02*
X38753Y137004D01*
X35754D02*
X37753D01*
X35754Y135005D01*
Y134505D01*
X36253Y134005D01*
X37253D01*
X37753Y134505D01*
X40752Y125622D02*
Y122623D01*
X39252D01*
X38753Y123123D01*
Y124123D01*
X39252Y124622D01*
X40752D01*
X39752D02*
X38753Y125622D01*
X37753Y123123D02*
X37253Y122623D01*
X36253D01*
X35754Y123123D01*
Y123623D01*
X36253Y124123D01*
X36753D01*
X36253D01*
X35754Y124622D01*
Y125122D01*
X36253Y125622D01*
X37253D01*
X37753Y125122D01*
X61000Y30000D02*
X63999D01*
Y28501D01*
X63499Y28001D01*
X62499D01*
X62000Y28501D01*
Y30000D01*
Y29000D02*
X61000Y28001D01*
Y25501D02*
X63999D01*
X62499Y27001D01*
Y25002D01*
X53900Y74500D02*
Y77499D01*
X55400D01*
X55899Y76999D01*
Y75999D01*
X55400Y75500D01*
X53900D01*
X54900D02*
X55899Y74500D01*
X58898Y77499D02*
X56899D01*
Y75999D01*
X57899Y76499D01*
X58399D01*
X58898Y75999D01*
Y75000D01*
X58399Y74500D01*
X57399D01*
X56899Y75000D01*
X62000Y54000D02*
X59001D01*
Y55500D01*
X59501Y55999D01*
X60501D01*
X61000Y55500D01*
Y54000D01*
Y55000D02*
X62000Y55999D01*
X59001Y58998D02*
X59501Y57999D01*
X60501Y56999D01*
X61500D01*
X62000Y57499D01*
Y58499D01*
X61500Y58998D01*
X61000D01*
X60501Y58499D01*
Y56999D01*
X34892Y49909D02*
Y47410D01*
X35392Y46910D01*
X36392D01*
X36892Y47410D01*
Y49909D01*
X39891Y46910D02*
X37892D01*
X39891Y48909D01*
Y49409D01*
X39391Y49909D01*
X38391D01*
X37892Y49409D01*
X34843Y79959D02*
Y77460D01*
X35342Y76960D01*
X36342D01*
X36842Y77460D01*
Y79959D01*
X37842Y79459D02*
X38341Y79959D01*
X39341D01*
X39841Y79459D01*
Y78959D01*
X39341Y78459D01*
X38841D01*
X39341D01*
X39841Y77960D01*
Y77460D01*
X39341Y76960D01*
X38341D01*
X37842Y77460D01*
X70001Y98000D02*
X73000D01*
Y99999D01*
X70001Y102998D02*
Y100999D01*
X73000D01*
Y102998D01*
X71500Y100999D02*
Y101999D01*
X70001Y103998D02*
X73000D01*
Y105498D01*
X72500Y105997D01*
X70501D01*
X70001Y105498D01*
Y103998D01*
X73000Y108996D02*
Y106997D01*
X71001Y108996D01*
X70501D01*
X70001Y108497D01*
Y107497D01*
X70501Y106997D01*
X73000Y115500D02*
X70001D01*
Y116999D01*
X70501Y117499D01*
X71500D01*
X72000Y116999D01*
Y115500D01*
Y116500D02*
X73000Y117499D01*
X70001Y118499D02*
Y120498D01*
X70501D01*
X72500Y118499D01*
X73000D01*
X111600Y123699D02*
Y121200D01*
X112100Y120700D01*
X113100D01*
X113599Y121200D01*
Y123699D01*
X114599Y120700D02*
X115599D01*
X115099D01*
Y123699D01*
X114599Y123199D01*
X81757Y99488D02*
X84256D01*
X84756Y99988D01*
Y100988D01*
X84256Y101488D01*
X81757D01*
X84756Y103987D02*
X81757D01*
X83256Y102487D01*
Y104487D01*
X149747Y122460D02*
X149248Y122960D01*
X148248D01*
X147748Y122460D01*
Y120460D01*
X148248Y119961D01*
X149248D01*
X149747Y120460D01*
X150747Y122960D02*
X152746D01*
Y122460D01*
X150747Y120460D01*
Y119961D01*
X111165Y73641D02*
X110665Y74141D01*
X109665D01*
X109165Y73641D01*
Y71642D01*
X109665Y71142D01*
X110665D01*
X111165Y71642D01*
X112164Y73641D02*
X112664Y74141D01*
X113664D01*
X114164Y73641D01*
Y73141D01*
X113664Y72641D01*
X114164Y72141D01*
Y71642D01*
X113664Y71142D01*
X112664D01*
X112164Y71642D01*
Y72141D01*
X112664Y72641D01*
X112164Y73141D01*
Y73641D01*
X112664Y72641D02*
X113664D01*
X103517Y107787D02*
X103017Y107287D01*
Y106287D01*
X103517Y105787D01*
X105516D01*
X106016Y106287D01*
Y107287D01*
X105516Y107787D01*
Y108786D02*
X106016Y109286D01*
Y110286D01*
X105516Y110786D01*
X103517D01*
X103017Y110286D01*
Y109286D01*
X103517Y108786D01*
X104016D01*
X104516Y109286D01*
Y110786D01*
X44799Y84199D02*
X44300Y84699D01*
X43300D01*
X42800Y84199D01*
Y82200D01*
X43300Y81700D01*
X44300D01*
X44799Y82200D01*
X47798Y84699D02*
X46799Y84199D01*
X45799Y83200D01*
Y82200D01*
X46299Y81700D01*
X47299D01*
X47798Y82200D01*
Y82700D01*
X47299Y83200D01*
X45799D01*
X54835Y179803D02*
X51836D01*
Y181303D01*
X52336Y181802D01*
X53335D01*
X53835Y181303D01*
Y179803D01*
Y180803D02*
X54835Y181802D01*
X54335Y182802D02*
X54835Y183302D01*
Y184302D01*
X54335Y184801D01*
X52336D01*
X51836Y184302D01*
Y183302D01*
X52336Y182802D01*
X52835D01*
X53335Y183302D01*
Y184801D01*
X130115Y92118D02*
X133114Y94117D01*
X130115D02*
X133114Y92118D01*
X118714Y103169D02*
X119213D01*
X120213Y104169D01*
X119213Y105169D01*
X118714D01*
X120213Y104169D02*
X121713D01*
X10000Y210000D02*
G03*
X0Y200000I0J-10000D01*
G01*
X165000Y0D02*
G03*
X175000Y10000I0J10000D01*
G01*
X175000Y200000D02*
G03*
X165000Y210000I-10000J0D01*
G01*
X0Y10000D02*
G03*
X10000Y0I10000J0D01*
G01*
X165000D01*
X10000Y210000D02*
X165000D01*
X175000Y10000D02*
Y200000D01*
X0Y10000D02*
Y200000D01*
D31*
X37677Y73347D02*
G03*
X37677Y73347I-492J0D01*
G01*
Y43347D02*
G03*
X37677Y43347I-492J0D01*
G01*
D32*
X83772Y118878D02*
G03*
X83772Y118878I-197J0D01*
G01*
X28409Y178307D02*
X29591D01*
X30772Y179882D02*
Y185787D01*
X27228Y179882D02*
Y185787D01*
D33*
X130847Y101063D02*
G03*
X130847Y101063I-2784J0D01*
G01*
X133631D02*
G03*
X133631Y101063I-5568J0D01*
G01*
X117350Y109807D02*
X117374Y109783D01*
X120189Y108937D02*
X135937D01*
X120189D02*
X122158Y106968D01*
X120189Y108937D02*
X122158Y110906D01*
X135937Y93189D02*
Y108937D01*
X133968Y95157D02*
X135937Y93189D01*
X137906Y95157D01*
X119343Y109783D02*
Y111752D01*
X117374Y109783D02*
X119343D01*
X119319Y111776D02*
X138626D01*
X138752Y111650D01*
Y90445D02*
Y111650D01*
X117350Y109807D02*
X119319Y111776D01*
X117374Y90445D02*
Y109783D01*
X117445Y90445D02*
X138752D01*
D34*
X64213Y98110D02*
X65787D01*
X85150Y118976D02*
X92236D01*
X85150Y106772D02*
X92236D01*
D35*
X54213Y37835D02*
X55787D01*
X58213Y182000D02*
X59787D01*
D36*
X29213Y38032D02*
X30787D01*
X29213Y67500D02*
X30787D01*
X121764Y77441D02*
Y79016D01*
X137906Y120748D02*
Y122323D01*
X98929Y106968D02*
X100504D01*
M02*
