%FSLAX25Y25*%
%MOIN*%
G70*
G01*
G75*
G04 Layer_Color=8388736*
%ADD10R,0.01969X0.02756*%
%ADD11R,0.02953X0.02559*%
%ADD12R,0.02559X0.02953*%
%ADD13R,0.02362X0.01969*%
%ADD14R,0.04803X0.02362*%
%ADD15R,0.02362X0.03543*%
G04:AMPARAMS|DCode=16|XSize=25.59mil|YSize=23.62mil|CornerRadius=5.91mil|HoleSize=0mil|Usage=FLASHONLY|Rotation=0.000|XOffset=0mil|YOffset=0mil|HoleType=Round|Shape=RoundedRectangle|*
%AMROUNDEDRECTD16*
21,1,0.02559,0.01181,0,0,0.0*
21,1,0.01378,0.02362,0,0,0.0*
1,1,0.01181,0.00689,-0.00591*
1,1,0.01181,-0.00689,-0.00591*
1,1,0.01181,-0.00689,0.00591*
1,1,0.01181,0.00689,0.00591*
%
%ADD16ROUNDEDRECTD16*%
%ADD17R,0.01969X0.02362*%
G04:AMPARAMS|DCode=18|XSize=25.59mil|YSize=23.62mil|CornerRadius=5.91mil|HoleSize=0mil|Usage=FLASHONLY|Rotation=270.000|XOffset=0mil|YOffset=0mil|HoleType=Round|Shape=RoundedRectangle|*
%AMROUNDEDRECTD18*
21,1,0.02559,0.01181,0,0,270.0*
21,1,0.01378,0.02362,0,0,270.0*
1,1,0.01181,-0.00591,-0.00689*
1,1,0.01181,-0.00591,0.00689*
1,1,0.01181,0.00591,0.00689*
1,1,0.01181,0.00591,-0.00689*
%
%ADD18ROUNDEDRECTD18*%
%ADD19R,0.05709X0.02165*%
%ADD20R,0.05709X0.02165*%
%ADD21R,0.05000X0.02500*%
%ADD22R,0.02500X0.05000*%
%ADD23C,0.01000*%
%ADD24C,0.01500*%
%ADD25C,0.02000*%
%ADD26C,0.00600*%
%ADD27C,0.06000*%
%ADD28C,0.05906*%
%ADD29C,0.03000*%
%ADD30C,0.03000*%
%ADD31C,0.00984*%
%ADD32C,0.00394*%
%ADD33C,0.00500*%
%ADD34C,0.00787*%
%ADD35C,0.00591*%
%ADD36C,0.00472*%
%ADD37R,0.02769X0.03556*%
%ADD38R,0.03753X0.03359*%
%ADD39R,0.03359X0.03753*%
%ADD40R,0.03162X0.02769*%
%ADD41R,0.05603X0.03162*%
%ADD42R,0.03162X0.04343*%
G04:AMPARAMS|DCode=43|XSize=33.59mil|YSize=31.62mil|CornerRadius=9.91mil|HoleSize=0mil|Usage=FLASHONLY|Rotation=0.000|XOffset=0mil|YOffset=0mil|HoleType=Round|Shape=RoundedRectangle|*
%AMROUNDEDRECTD43*
21,1,0.03359,0.01181,0,0,0.0*
21,1,0.01378,0.03162,0,0,0.0*
1,1,0.01981,0.00689,-0.00591*
1,1,0.01981,-0.00689,-0.00591*
1,1,0.01981,-0.00689,0.00591*
1,1,0.01981,0.00689,0.00591*
%
%ADD43ROUNDEDRECTD43*%
%ADD44R,0.02769X0.03162*%
G04:AMPARAMS|DCode=45|XSize=33.59mil|YSize=31.62mil|CornerRadius=9.91mil|HoleSize=0mil|Usage=FLASHONLY|Rotation=270.000|XOffset=0mil|YOffset=0mil|HoleType=Round|Shape=RoundedRectangle|*
%AMROUNDEDRECTD45*
21,1,0.03359,0.01181,0,0,270.0*
21,1,0.01378,0.03162,0,0,270.0*
1,1,0.01981,-0.00591,-0.00689*
1,1,0.01981,-0.00591,0.00689*
1,1,0.01981,0.00591,0.00689*
1,1,0.01981,0.00591,-0.00689*
%
%ADD45ROUNDEDRECTD45*%
%ADD46R,0.06509X0.02965*%
%ADD47R,0.06509X0.02965*%
%ADD48R,0.05600X0.03100*%
%ADD49R,0.03100X0.05600*%
%ADD50C,0.06800*%
%ADD51C,0.06706*%
%ADD52C,0.03800*%
D26*
X10000Y210000D02*
G03*
X0Y200000I0J-10000D01*
G01*
X165000Y0D02*
G03*
X175000Y10000I0J10000D01*
G01*
X175000Y200000D02*
G03*
X165000Y210000I-10000J0D01*
G01*
X0Y10000D02*
G03*
X10000Y0I10000J0D01*
G01*
X165000D01*
X10000Y210000D02*
X165000D01*
X175000Y10000D02*
Y200000D01*
X0Y10000D02*
Y200000D01*
D37*
X29000Y185000D02*
D03*
Y180669D02*
D03*
D38*
X37500Y170000D02*
D03*
X41831D02*
D03*
X36921Y128622D02*
D03*
X41252D02*
D03*
X36921Y140504D02*
D03*
X41252D02*
D03*
D39*
X55000Y70000D02*
D03*
Y65669D02*
D03*
Y59000D02*
D03*
Y54669D02*
D03*
Y30000D02*
D03*
Y25669D02*
D03*
X65000Y116500D02*
D03*
Y120831D02*
D03*
D40*
X62500Y70000D02*
D03*
Y66063D02*
D03*
Y40000D02*
D03*
Y36063D02*
D03*
D41*
X37185Y70000D02*
D03*
Y66260D02*
D03*
Y62520D02*
D03*
X47500D02*
D03*
Y70000D02*
D03*
X37185Y40000D02*
D03*
Y36260D02*
D03*
Y32520D02*
D03*
X47500D02*
D03*
Y40000D02*
D03*
D42*
X65000Y108937D02*
D03*
Y101063D02*
D03*
D43*
X55000Y35866D02*
D03*
Y39803D02*
D03*
X30000Y40000D02*
D03*
Y36063D02*
D03*
Y69468D02*
D03*
Y65531D02*
D03*
X59000Y180032D02*
D03*
Y183968D02*
D03*
X99717Y108937D02*
D03*
Y105000D02*
D03*
D44*
X47500Y77500D02*
D03*
X43563D02*
D03*
Y47500D02*
D03*
X47500D02*
D03*
D45*
X119795Y78228D02*
D03*
X123732D02*
D03*
X135937Y121535D02*
D03*
X139874D02*
D03*
D46*
X84461Y116614D02*
D03*
D47*
X84461Y112874D02*
D03*
Y109134D02*
D03*
X92925D02*
D03*
X92925Y112874D02*
D03*
Y116614D02*
D03*
D48*
X113890Y108937D02*
D03*
Y105394D02*
D03*
Y101850D02*
D03*
Y98307D02*
D03*
Y94764D02*
D03*
X142236Y93189D02*
D03*
Y96732D02*
D03*
Y100276D02*
D03*
Y103819D02*
D03*
Y107362D02*
D03*
D49*
X120189Y86890D02*
D03*
X123732D02*
D03*
X127276D02*
D03*
X130819D02*
D03*
X134362D02*
D03*
X135937Y115236D02*
D03*
X132394D02*
D03*
X128850D02*
D03*
X125307D02*
D03*
X121764D02*
D03*
D50*
X45000Y10000D02*
D03*
X55000D02*
D03*
X65000D02*
D03*
X75000D02*
D03*
X85000D02*
D03*
X95000D02*
D03*
X79000Y200000D02*
D03*
X69000D02*
D03*
X59000D02*
D03*
X49000D02*
D03*
X39000D02*
D03*
X29000D02*
D03*
X19000D02*
D03*
X9000D02*
D03*
X165000D02*
D03*
X155000D02*
D03*
X145000D02*
D03*
X135000D02*
D03*
X125000D02*
D03*
X115000D02*
D03*
X105000D02*
D03*
X95000D02*
D03*
X115000Y10000D02*
D03*
X125000D02*
D03*
X135000D02*
D03*
X145000D02*
D03*
X155000D02*
D03*
X165000D02*
D03*
X9000Y120000D02*
D03*
Y110000D02*
D03*
Y100000D02*
D03*
D51*
Y37500D02*
D03*
Y27500D02*
D03*
D52*
X49323Y140433D02*
D03*
X57197Y128622D02*
D03*
X29638Y140504D02*
D03*
Y128622D02*
D03*
X37185Y56500D02*
D03*
X22500Y70000D02*
D03*
Y40000D02*
D03*
X37185Y26500D02*
D03*
X65071Y89252D02*
D03*
X67500Y70000D02*
D03*
X92630Y94764D02*
D03*
X100504Y98307D02*
D03*
X99717Y112874D02*
D03*
X77079Y109134D02*
D03*
X77079Y116614D02*
D03*
X112315Y132559D02*
D03*
X120189D02*
D03*
X128850D02*
D03*
X135937D02*
D03*
X151685Y100276D02*
D03*
X147748Y132559D02*
D03*
X155622Y96732D02*
D03*
X159559Y93189D02*
D03*
X163496Y86890D02*
D03*
X130819Y78622D02*
D03*
X127276Y73504D02*
D03*
X135000Y37984D02*
D03*
X125000D02*
D03*
X135000Y57606D02*
D03*
X125000D02*
D03*
X84756Y69567D02*
D03*
X100504Y53819D02*
D03*
X135937Y127047D02*
D03*
X104441Y101850D02*
D03*
X92925Y103425D02*
D03*
X113890Y116811D02*
D03*
M02*
